<?xml version="1.0" encoding="UTF-8" ?>
<!DOCTYPE svg PUBLIC "-//W3C//DTD SVG 1.1//EN" "http://www.w3.org/Graphics/SVG/1.1/DTD/svg11.dtd">
<svg width="512pt" height="512pt" viewBox="43.2 43.2 425.6 425.6" version="1.1" xmlns="http://www.w3.org/2000/svg">
<g id="#ffffffff">
<path fill="#ffffff" opacity="1.00" d=" M 161.66 145.99 C 162.18 138.81 173.07 131.78 178.47 138.46 C 183.04 147.30 185.46 157.13 189.84 166.07 C 192.23 170.83 198.42 170.98 202.85 169.41 C 217.55 164.65 231.57 158.02 246.09 152.79 C 253.57 149.94 262.83 160.95 255.61 166.60 C 239.56 174.16 222.55 179.76 206.64 187.67 C 198.68 192.09 199.87 202.49 201.31 210.07 C 206.95 237.88 210.41 268.04 198.85 294.87 C 195.04 303.02 190.66 312.36 181.91 316.12 C 175.16 318.85 169.40 310.38 172.35 304.48 C 176.40 296.26 182.94 289.35 185.76 280.50 C 182.34 279.70 179.76 282.52 176.93 283.89 C 163.99 291.41 147.02 289.41 134.99 281.04 C 127.27 275.34 124.47 265.14 125.32 255.92 C 126.39 233.83 146.02 214.61 168.01 213.63 C 172.47 213.15 177.30 215.79 181.46 213.46 C 185.13 210.87 182.61 205.45 179.42 203.64 C 175.00 202.26 170.34 203.75 166.20 205.36 C 149.66 211.74 133.77 219.70 117.27 226.19 C 106.99 230.73 97.01 214.18 107.04 208.08 C 125.31 200.16 144.27 193.74 162.36 185.34 C 166.70 183.41 170.21 178.95 169.33 173.99 C 167.58 164.46 163.41 155.51 161.66 145.99 M 163.40 229.67 C 152.67 232.20 142.85 240.23 140.51 251.34 C 137.90 260.50 143.01 271.90 152.64 274.27 C 162.92 276.33 173.92 271.41 180.37 263.39 C 185.52 255.50 188.75 244.97 185.02 235.88 C 181.18 228.01 170.82 227.51 163.40 229.67 Z" />
<path fill="#ffffff" opacity="1.00" d=" M 320.94 187.07 C 322.61 180.87 330.51 181.95 335.20 183.59 C 341.50 185.30 340.87 193.98 346.65 196.32 C 349.87 197.31 353.21 196.19 356.24 195.08 C 366.05 191.35 376.41 188.33 387.00 188.61 C 392.13 188.56 397.96 192.30 397.36 198.00 C 396.03 208.19 387.69 215.17 380.08 221.10 C 374.78 225.12 370.40 232.01 362.93 231.47 C 360.11 231.90 354.54 231.01 354.21 234.84 C 358.69 238.91 363.27 242.91 366.89 247.82 C 373.22 243.12 376.99 236.00 382.54 230.57 C 386.55 226.57 395.65 229.86 394.17 235.99 C 391.15 245.46 380.74 249.65 376.49 258.34 C 375.02 260.96 375.79 264.13 377.69 266.30 C 383.89 273.83 389.76 281.64 395.47 289.56 C 397.64 292.61 399.83 296.11 399.43 300.04 C 399.04 307.23 388.05 311.61 383.50 305.51 C 378.46 298.68 374.82 290.94 370.53 283.64 C 368.88 291.43 367.72 300.68 360.44 305.43 C 355.18 310.14 346.94 306.93 343.56 301.51 C 342.19 299.61 340.05 295.67 337.44 298.34 C 325.97 309.24 315.17 320.85 303.69 331.73 C 299.85 335.45 292.36 329.62 296.37 325.39 C 308.08 313.77 319.93 302.25 331.63 290.62 C 334.25 288.15 334.53 283.73 332.15 281.01 C 326.81 284.64 324.11 291.08 318.59 294.48 C 313.42 296.24 304.65 289.03 310.44 284.43 C 320.26 274.92 329.83 265.15 339.67 255.67 C 342.77 252.52 346.78 249.94 348.34 245.60 C 335.61 251.51 327.02 263.91 315.22 271.41 C 311.82 272.84 307.23 271.45 305.64 268.02 C 305.21 265.51 306.88 263.38 307.89 261.23 C 301.04 248.54 294.07 235.28 291.77 220.95 C 292.45 213.70 301.31 216.45 304.97 219.62 C 312.00 215.88 321.41 215.22 326.41 208.53 C 327.10 201.01 320.74 194.53 320.94 187.07 M 328.42 224.59 C 323.04 227.36 315.34 229.26 313.81 235.99 C 314.22 240.79 317.10 245.46 321.02 248.19 C 326.84 248.56 331.45 243.95 336.21 241.21 C 331.48 242.31 326.25 245.06 321.52 242.52 C 317.96 240.28 317.52 233.46 321.89 231.81 C 326.28 229.73 331.01 228.48 335.42 226.45 C 346.24 222.69 356.90 214.66 368.86 217.29 C 372.09 212.75 376.72 208.81 378.02 203.19 C 360.75 208.30 345.23 218.12 328.42 224.59 M 347.43 263.43 C 344.18 267.37 338.07 270.14 338.05 275.83 C 342.51 276.77 345.25 272.75 348.12 270.13 C 351.28 266.37 356.15 263.37 357.00 258.21 C 352.79 257.23 350.13 260.93 347.43 263.43 M 348.61 286.61 C 347.71 288.81 350.76 289.72 352.07 290.80 C 355.61 287.55 356.32 282.62 356.85 278.10 C 354.10 280.92 350.86 283.34 348.61 286.61 Z" />
<path fill="#ffffff" opacity="1.00" d=" M 236.40 203.49 C 244.36 201.22 248.31 214.52 256.33 210.23 C 261.62 207.48 270.18 207.90 272.34 214.43 C 274.28 219.28 270.94 223.58 268.19 227.24 C 273.51 230.99 278.40 222.36 283.88 224.96 C 288.04 227.87 286.03 234.04 281.84 235.82 C 278.25 238.27 271.12 239.92 272.50 245.60 C 277.17 253.48 284.62 261.61 282.30 271.55 C 277.99 281.59 266.22 285.53 256.00 285.27 C 249.12 286.01 240.83 283.12 235.05 287.88 C 241.92 298.99 256.80 292.13 266.67 297.32 C 273.14 301.53 269.12 313.63 261.02 312.25 C 248.34 310.69 234.75 306.85 225.80 297.17 C 218.95 290.57 219.44 274.82 230.50 273.21 C 242.36 271.57 254.81 274.26 266.35 270.25 C 269.23 269.44 271.73 266.22 269.61 263.39 C 267.01 259.20 264.62 253.06 259.01 252.60 C 246.94 254.84 237.80 264.64 226.00 267.54 C 217.47 269.62 213.34 256.48 220.41 252.38 C 228.80 248.36 238.15 246.19 245.98 240.96 C 251.96 237.04 245.07 225.36 238.72 228.83 C 233.94 231.09 229.54 234.98 223.96 234.81 C 219.56 235.01 216.81 229.85 217.58 225.96 C 220.35 219.25 231.31 222.91 233.51 215.81 C 232.34 211.59 231.96 205.94 236.40 203.49 M 258.14 220.96 C 259.08 222.55 260.05 224.12 261.05 225.68 C 262.39 223.99 263.54 222.14 264.11 220.04 C 262.11 220.24 260.12 220.56 258.14 220.96 Z" />
<path fill="#ffffff" opacity="1.00" d=" M 194.91 348.85 C 198.69 344.29 205.88 345.44 209.90 349.11 C 208.90 350.40 207.89 351.68 206.88 352.96 C 205.18 352.14 203.48 351.29 201.79 350.44 C 200.90 351.29 200.01 352.16 199.14 353.04 C 203.54 355.32 211.58 356.31 210.42 363.06 C 208.59 371.19 196.58 370.85 192.73 364.45 C 193.86 363.39 194.99 362.34 196.13 361.29 C 198.53 362.68 201.88 365.92 204.35 362.92 C 205.06 359.96 200.91 359.96 199.16 358.72 C 195.10 357.61 192.01 352.56 194.91 348.85 Z" />
<path fill="#ffffff" opacity="1.00" d=" M 215.99 346.37 C 217.91 346.37 219.84 346.38 221.77 346.40 C 222.05 351.52 221.28 356.74 222.20 361.81 C 223.14 365.42 228.79 364.58 229.19 361.05 C 229.62 356.19 229.20 351.30 229.38 346.43 C 231.28 346.42 233.18 346.41 235.09 346.41 C 235.14 351.90 235.67 357.46 234.83 362.90 C 233.07 371.60 218.10 371.56 216.30 362.90 C 215.40 357.44 215.89 351.87 215.99 346.37 Z" />
<path fill="#ffffff" opacity="1.00" d=" M 254.31 346.40 C 256.53 346.41 258.76 346.43 261.00 346.48 C 258.43 349.68 255.89 352.88 253.33 356.08 C 256.03 360.36 258.93 364.53 261.63 368.82 C 255.17 370.91 252.20 365.48 249.57 360.76 C 246.69 362.45 247.40 365.94 247.21 368.76 C 245.32 368.78 243.44 368.79 241.56 368.82 C 241.31 361.35 241.47 353.87 241.47 346.39 C 243.41 346.41 245.35 346.45 247.29 346.50 C 247.31 349.37 247.33 352.23 247.39 355.10 C 249.71 352.21 251.93 349.25 254.31 346.40 Z" />
<path fill="#ffffff" opacity="1.00" d=" M 266.50 346.47 C 268.37 346.42 270.24 346.39 272.11 346.35 C 272.55 353.83 272.27 361.33 272.28 368.83 C 270.34 368.80 268.40 368.77 266.46 368.74 C 266.44 361.32 266.42 353.89 266.50 346.47 Z" />
<path fill="#ffffff" opacity="1.00" d=" M 276.87 346.46 C 279.02 346.43 281.19 346.42 283.35 346.43 C 284.60 349.11 285.89 351.77 287.30 354.38 C 288.59 351.76 289.86 349.13 291.07 346.47 C 293.29 346.43 295.51 346.43 297.73 346.46 C 293.84 353.48 288.36 360.21 290.22 368.81 C 288.26 368.81 286.30 368.81 284.34 368.80 C 286.24 360.23 280.57 353.53 276.87 346.46 Z" />
<path fill="#ffffff" opacity="1.00" d=" M 296.82 368.78 C 299.60 361.25 302.41 353.73 305.60 346.37 C 307.17 346.38 308.75 346.40 310.33 346.41 C 313.47 353.77 316.32 361.26 319.10 368.76 C 317.22 368.76 315.35 368.76 313.48 368.75 C 312.95 367.62 312.43 366.50 311.91 365.37 C 309.31 365.37 306.72 365.36 304.14 365.32 C 303.58 366.46 303.02 367.60 302.48 368.75 C 300.59 368.76 298.70 368.77 296.82 368.78 M 307.80 353.88 C 306.98 356.02 306.33 358.22 305.82 360.45 C 307.26 360.45 308.69 360.44 310.13 360.43 C 309.62 358.16 308.86 355.95 307.80 353.88 Z" />
</g>
<g id="#ffdb3fff">
<path fill="#ffdb3f" opacity="1.00" d=" M 66.46 98.58 C 70.62 98.04 74.82 98.21 79.00 98.24 C 197.00 98.24 315.00 98.24 433.01 98.24 C 437.18 98.21 441.38 98.04 445.54 98.58 C 445.19 106.84 445.87 115.18 445.17 123.40 C 318.96 123.65 192.75 123.27 66.54 123.59 C 66.51 115.25 66.62 106.92 66.46 98.58 Z" />
<path fill="#ffdb3f" opacity="1.00" d=" M 66.50 157.00 C 66.19 146.08 65.70 135.07 66.59 124.19 C 67.35 163.10 66.03 202.07 66.91 241.00 C 70.17 287.99 92.78 335.67 133.77 360.97 C 128.08 378.59 122.30 396.17 116.57 413.77 C 99.88 413.66 83.19 413.94 66.50 413.63 C 66.64 328.07 66.47 242.52 66.50 157.00 Z" />
<path fill="#ffdb3f" opacity="1.00" d=" M 445.37 124.20 L 445.38 124.13 C 446.20 152.05 444.88 180.04 445.36 208.00 C 445.83 276.52 445.18 345.08 445.50 413.63 C 428.79 413.95 412.08 413.65 395.37 413.78 C 389.68 396.16 383.91 378.58 378.22 360.97 C 418.71 336.06 441.06 289.31 445.01 243.02 C 445.73 203.43 444.96 163.78 445.37 124.20 Z" />
</g>
<g id="#de0615ff">
<path fill="#de0615" opacity="1.00" d=" M 66.54 123.59 C 192.75 123.27 318.96 123.65 445.17 123.40 L 445.37 124.20 C 444.96 163.78 445.73 203.43 445.01 243.02 C 441.06 289.31 418.71 336.06 378.22 360.97 C 383.91 378.58 389.68 396.16 395.37 413.78 C 302.44 413.82 209.50 413.84 116.57 413.77 C 122.30 396.17 128.08 378.59 133.77 360.97 C 92.78 335.67 70.17 287.99 66.91 241.00 C 66.03 202.07 67.35 163.10 66.59 124.19 L 66.54 123.59 M 161.66 145.99 C 163.41 155.51 167.58 164.46 169.33 173.99 C 170.21 178.95 166.70 183.41 162.36 185.34 C 144.27 193.74 125.31 200.16 107.04 208.08 C 97.01 214.18 106.99 230.73 117.27 226.19 C 133.77 219.70 149.66 211.74 166.20 205.36 C 170.34 203.75 175.00 202.26 179.42 203.64 C 182.61 205.45 185.13 210.87 181.46 213.46 C 177.30 215.79 172.47 213.15 168.01 213.63 C 146.02 214.61 126.39 233.83 125.32 255.92 C 124.47 265.14 127.27 275.34 134.99 281.04 C 147.02 289.41 163.99 291.41 176.93 283.89 C 179.76 282.52 182.34 279.70 185.76 280.50 C 182.94 289.35 176.40 296.26 172.35 304.48 C 169.40 310.38 175.16 318.85 181.91 316.12 C 190.66 312.36 195.04 303.02 198.85 294.87 C 210.41 268.04 206.95 237.88 201.31 210.07 C 199.87 202.49 198.68 192.09 206.64 187.67 C 222.55 179.76 239.56 174.16 255.61 166.60 C 262.83 160.95 253.57 149.94 246.09 152.79 C 231.57 158.02 217.55 164.65 202.85 169.41 C 198.42 170.98 192.23 170.83 189.84 166.07 C 185.46 157.13 183.04 147.30 178.47 138.46 C 173.07 131.78 162.18 138.81 161.66 145.99 M 320.94 187.07 C 320.74 194.53 327.10 201.01 326.41 208.53 C 321.41 215.22 312.00 215.88 304.97 219.62 C 301.31 216.45 292.45 213.70 291.77 220.95 C 294.07 235.28 301.04 248.54 307.89 261.23 C 306.88 263.38 305.21 265.51 305.64 268.02 C 307.23 271.45 311.82 272.84 315.22 271.41 C 327.02 263.91 335.61 251.51 348.34 245.60 C 346.78 249.94 342.77 252.52 339.67 255.67 C 329.83 265.15 320.26 274.92 310.44 284.43 C 304.65 289.03 313.42 296.24 318.59 294.48 C 324.11 291.08 326.81 284.64 332.15 281.01 C 334.53 283.73 334.25 288.15 331.63 290.62 C 319.93 302.25 308.08 313.77 296.37 325.39 C 292.36 329.62 299.85 335.45 303.69 331.73 C 315.17 320.85 325.97 309.24 337.44 298.34 C 340.05 295.67 342.19 299.61 343.56 301.51 C 346.94 306.93 355.18 310.14 360.44 305.43 C 367.72 300.68 368.88 291.43 370.53 283.64 C 374.82 290.94 378.46 298.68 383.50 305.51 C 388.05 311.61 399.04 307.23 399.43 300.04 C 399.83 296.11 397.64 292.61 395.47 289.56 C 389.76 281.64 383.89 273.83 377.69 266.30 C 375.79 264.13 375.02 260.96 376.49 258.34 C 380.74 249.65 391.15 245.46 394.17 235.99 C 395.65 229.86 386.55 226.57 382.54 230.57 C 376.99 236.00 373.22 243.12 366.89 247.82 C 363.27 242.91 358.69 238.91 354.21 234.84 C 354.54 231.01 360.11 231.90 362.93 231.47 C 370.40 232.01 374.78 225.12 380.08 221.10 C 387.69 215.17 396.03 208.19 397.36 198.00 C 397.96 192.30 392.13 188.56 387.00 188.61 C 376.41 188.33 366.05 191.35 356.24 195.08 C 353.21 196.19 349.87 197.31 346.65 196.32 C 340.87 193.98 341.50 185.30 335.20 183.59 C 330.51 181.95 322.61 180.87 320.94 187.07 M 236.40 203.49 C 231.96 205.94 232.34 211.59 233.51 215.81 C 231.31 222.91 220.35 219.25 217.58 225.96 C 216.81 229.85 219.56 235.01 223.96 234.81 C 229.54 234.98 233.94 231.09 238.72 228.83 C 245.07 225.36 251.96 237.04 245.98 240.96 C 238.15 246.19 228.80 248.36 220.41 252.38 C 213.34 256.48 217.47 269.62 226.00 267.54 C 237.80 264.64 246.94 254.84 259.01 252.60 C 264.62 253.06 267.01 259.20 269.61 263.39 C 271.73 266.22 269.23 269.44 266.35 270.25 C 254.81 274.26 242.36 271.57 230.50 273.21 C 219.44 274.82 218.95 290.57 225.80 297.17 C 234.75 306.85 248.34 310.69 261.02 312.25 C 269.12 313.63 273.14 301.53 266.67 297.32 C 256.80 292.13 241.92 298.99 235.05 287.88 C 240.83 283.12 249.12 286.01 256.00 285.27 C 266.22 285.53 277.99 281.59 282.30 271.55 C 284.62 261.61 277.17 253.48 272.50 245.60 C 271.12 239.92 278.25 238.27 281.84 235.82 C 286.03 234.04 288.04 227.87 283.88 224.96 C 278.40 222.36 273.51 230.99 268.19 227.24 C 270.94 223.58 274.28 219.28 272.34 214.43 C 270.18 207.90 261.62 207.48 256.33 210.23 C 248.31 214.52 244.36 201.22 236.40 203.49 M 194.91 348.85 C 192.01 352.56 195.10 357.61 199.16 358.72 C 200.91 359.96 205.06 359.96 204.35 362.92 C 201.88 365.92 198.53 362.68 196.13 361.29 C 194.99 362.34 193.86 363.39 192.73 364.45 C 196.58 370.85 208.59 371.19 210.42 363.06 C 211.58 356.31 203.54 355.32 199.14 353.04 C 200.01 352.16 200.90 351.29 201.79 350.44 C 203.48 351.29 205.18 352.14 206.88 352.96 C 207.89 351.68 208.90 350.40 209.90 349.11 C 205.88 345.44 198.69 344.29 194.91 348.85 M 215.99 346.37 C 215.89 351.87 215.40 357.44 216.30 362.90 C 218.10 371.56 233.07 371.60 234.83 362.90 C 235.67 357.46 235.14 351.90 235.09 346.41 C 233.18 346.41 231.28 346.42 229.38 346.43 C 229.20 351.30 229.62 356.19 229.19 361.05 C 228.79 364.58 223.14 365.42 222.20 361.81 C 221.28 356.74 222.05 351.52 221.77 346.40 C 219.84 346.38 217.91 346.37 215.99 346.37 M 254.31 346.40 C 251.93 349.25 249.71 352.21 247.39 355.10 C 247.33 352.23 247.31 349.37 247.29 346.50 C 245.35 346.45 243.41 346.41 241.47 346.39 C 241.47 353.87 241.31 361.35 241.56 368.82 C 243.44 368.79 245.32 368.78 247.21 368.76 C 247.40 365.94 246.69 362.45 249.57 360.76 C 252.20 365.48 255.17 370.91 261.63 368.82 C 258.93 364.53 256.03 360.36 253.33 356.08 C 255.89 352.88 258.43 349.68 261.00 346.48 C 258.76 346.43 256.53 346.41 254.31 346.40 M 266.50 346.47 C 266.42 353.89 266.44 361.32 266.46 368.74 C 268.40 368.77 270.34 368.80 272.28 368.83 C 272.27 361.33 272.55 353.83 272.11 346.35 C 270.24 346.39 268.37 346.42 266.50 346.47 M 276.87 346.46 C 280.57 353.53 286.24 360.23 284.34 368.80 C 286.30 368.81 288.26 368.81 290.22 368.81 C 288.36 360.21 293.84 353.48 297.73 346.46 C 295.51 346.43 293.29 346.43 291.07 346.47 C 289.86 349.13 288.59 351.76 287.30 354.38 C 285.89 351.77 284.60 349.11 283.35 346.43 C 281.19 346.42 279.02 346.43 276.87 346.46 M 296.82 368.78 C 298.70 368.77 300.59 368.76 302.48 368.75 C 303.02 367.60 303.58 366.46 304.14 365.32 C 306.72 365.36 309.31 365.37 311.91 365.37 C 312.43 366.50 312.95 367.62 313.48 368.75 C 315.35 368.76 317.22 368.76 319.10 368.76 C 316.32 361.26 313.47 353.77 310.33 346.41 C 308.75 346.40 307.17 346.38 305.60 346.37 C 302.41 353.73 299.60 361.25 296.82 368.78 Z" />
<path fill="#de0615" opacity="1.00" d=" M 328.42 224.59 C 345.23 218.12 360.75 208.30 378.02 203.19 C 376.72 208.81 372.09 212.75 368.86 217.29 C 356.90 214.66 346.24 222.69 335.42 226.45 C 331.01 228.48 326.28 229.73 321.89 231.81 C 317.52 233.46 317.96 240.28 321.52 242.52 C 326.25 245.06 331.48 242.31 336.21 241.21 C 331.45 243.95 326.84 248.56 321.02 248.19 C 317.10 245.46 314.22 240.79 313.81 235.99 C 315.34 229.26 323.04 227.36 328.42 224.59 Z" />
<path fill="#de0615" opacity="1.00" d=" M 258.14 220.96 C 260.12 220.56 262.11 220.24 264.11 220.04 C 263.54 222.14 262.39 223.99 261.05 225.68 C 260.05 224.12 259.08 222.55 258.14 220.96 Z" />
<path fill="#de0615" opacity="1.00" d=" M 163.40 229.67 C 170.82 227.51 181.18 228.01 185.02 235.88 C 188.75 244.97 185.52 255.50 180.37 263.39 C 173.92 271.41 162.92 276.33 152.64 274.27 C 143.01 271.90 137.90 260.50 140.51 251.34 C 142.85 240.23 152.67 232.20 163.40 229.67 Z" />
<path fill="#de0615" opacity="1.00" d=" M 347.43 263.43 C 350.13 260.93 352.79 257.23 357.00 258.21 C 356.15 263.37 351.28 266.37 348.12 270.13 C 345.25 272.75 342.51 276.77 338.05 275.83 C 338.07 270.14 344.18 267.37 347.43 263.43 Z" />
<path fill="#de0615" opacity="1.00" d=" M 348.61 286.61 C 350.86 283.34 354.10 280.92 356.85 278.10 C 356.32 282.62 355.61 287.55 352.07 290.80 C 350.76 289.72 347.71 288.81 348.61 286.61 Z" />
<path fill="#de0615" opacity="1.00" d=" M 307.80 353.88 C 308.86 355.95 309.62 358.16 310.13 360.43 C 308.69 360.44 307.26 360.45 305.82 360.45 C 306.33 358.22 306.98 356.02 307.80 353.88 Z" />
</g>
</svg>
