<svg xmlns="http://www.w3.org/2000/svg" viewBox="0 0 1024 1024">
  <path d="M196.4,525C196.4,347.3 338,203.4 512.7,203.4c91.6,0 178.4,40 236.9,109.4 114.8,133.8 101.3,336.7 -29.7,453.6a80.5,80.5 0,0 0,-34.5 -19.4c-22.5,-6.1 -36.2,-7.2 -59.9,-12.2 1.1,38.9 2,72.3 2.3,89.1 -10.3,4.1 -20.8,7.3 -31.4,10.5 8.9,-75.5 11.1,-173.8 11.7,-213.3l0.3,-17.1v-10.5a12.8,12.8 0,0 0,-5.7 8.7l-6.6,125.7c-25.1,-7.5 -32.5,-21.2 -34.5,-33.9a266.3,266.3 0,0 1,-2.6 -30.5l-0.3,-17.4a145.4,145.4 0,0 0,28.8 -39.8c12.9,-27.9 12.8,-70.3 12.8,-82.3v-0.7a8.4,8.4 0,0 0,-5.7 -8.1c-10.8,-0.6 -31.1,-1.2 -41.4,3.2 -12,5.2 -22.9,16.3 -27.1,34.8 0,0.6 -0.6,0.9 -0.8,0.9 -0.6,0 -1.2,-0.3 -1.2,-0.9 1.1,-13.6 5.4,-30.2 24,-39.8 9.1,-4.3 19.7,-6.4 29.7,-6.4 -3.1,-4.3 -4,-11.9 -4,-17.1 0,0 0.3,-0.6 -0.3,-0.9 -0.3,-0.3 -0.6,0 -0.9,0.3 -7.7,8.4 -18,12.2 -25.7,8.4 -8.6,-4.3 -11.4,-16.2 -8.6,-28.4 0,0 0.3,-0.6 -0.3,-0.9 -0.3,0 -0.6,0 -0.9,0.3 -2.3,3.8 -5.7,6.7 -9.1,9.3 -13.7,9 -32.3,4.9 -41.4,-9.3 -0.3,-0.3 -0.6,-0.3 -0.9,-0.3 -0.3,0 -0.3,0.9 -0.3,0.9 2.3,12.2 -0.3,24.4 -8.6,28.4 -8,3.8 -18,0 -25.7,-8.4 0,-0.3 -0.6,-0.3 -0.8,-0.3 -0.3,0.3 -0.3,0.9 -0.3,0.9 0,5.2 -0.9,12.8 -4,17.1a65.8,65.8 0,0 1,29.7 6.4c18.8,9.9 23.1,26.1 24,39.8 0,0.6 -0.6,0.9 -0.9,0.9 -0.6,0 -1.1,-0.3 -1.1,-0.9 -4.6,-18.9 -15.1,-29.9 -27.1,-34.8 -10.3,-4.3 -30.5,-3.8 -41.4,-3.2a9.4,9.4 0,0 0,-6.3 8.1c-0.3,7 -0.3,54.3 12.6,82.1a144.7,144.7 0,0 0,52.5 59.8,50.4 50.4,0 0,0 24,6.4c8.3,0 16.6,-2.3 23.7,-6.4 2,-0.9 4,-2 6.6,-4.1h0.3v0.3c-3.1,4.3 -7.4,7.8 -12,10.4a43.1,43.1 0,0 1,-18.8 5.5c-5.7,0 -11.7,-0.9 -17.4,-2.3a32.8,32.8 0,0 0,-7.7 -0.9c-12,0 -22.3,8.7 -24.8,20.6 -2.3,11.6 -8.6,25 -33.7,33.1l-6.6,-125.4a11.7,11.7 0,0 0,-5.7 -8.7v10.7l0.3,17.1c0.6,39.5 2.6,137.9 11.7,213 -10.6,-2.6 -21.1,-6.4 -31.4,-10.5 0.6,-16.8 1.4,-50.2 2.3,-88.8 -23.4,4.9 -39.4,5.8 -61.9,12.2 -12.6,3.5 -24.3,9.6 -33.7,18.3C235.2,704.9 196.4,617.3 196.4,525zM697.9,560.1c3.1,1.4 6.8,2 10.3,2 17.4,0.3 31.1,-13.3 31.1,-30.7 0,-17.4 -14,-31.9 -31.1,-31.9 -5.4,0 -10.8,1.5 -15.7,4.3l-9.7,-20.9a48.7,48.7 0,0 0,38.8 -48.5c-0.3,-26.7 -21.7,-48.8 -48.5,-48.5h-2.6c-1.2,-0.3 -1.7,-1.2 -1.4,-2.3a61.1,61.1 0,0 0,-6.6 -67.6,57.6 57.6,0 0,0 -82.5,-7c-0.3,0 -0.6,0.3 -0.8,0.3 -1.2,0 -2.3,-0.6 -2.3,-1.7 -3.7,-29.3 -26.5,-52.5 -55.4,-56.3 -35.1,-4.9 -67.9,20.3 -72.5,56.3 -0.3,0.3 -0.3,0.6 -0.6,0.9 -0.6,0.9 -1.7,0.9 -2.6,0.3 -18.6,-15.9 -44.8,-18.3 -66.2,-6.4 -28,16 -38.3,52.2 -22.6,81 0.3,1.2 -0.3,2 -1.4,2.3h-2.6c-23.1,-0.3 -43.1,16.6 -47.7,39.5 -5.1,26.7 11.7,52.5 38,57.8l-9.7,20.9a29.9,29.9 0,0 0,-26.3 -2.6c-16,5.8 -24.8,24.1 -19.1,40.6 5.7,16.2 23.7,25.2 40,19.4 -8.6,-20 0,-43.2 19.7,-52.2v-25c2,0.3 3.4,0.3 5.4,0.3 5.4,0 10.8,-0.9 16,-2.9 24.8,-9 38,-36.9 29.1,-62.4 -4.3,4.1 -10.3,5.5 -15.7,3.2 -7.4,-2.9 -11.4,-11.3 -8.3,-18.9 2.9,-7.5 11.1,-11.6 18.6,-8.4 7.4,2.9 11.4,11.3 8.3,18.9 2.3,0.3 4.3,0.6 6.6,0.6 27.4,0 51.1,-19.5 57.1,-46.7a13.9,13.9 0,0 1,-6.9 -0.9,19 19,0 0,1 -9.4,-9c-3.7,-8.4 -0.3,-18.6 8,-22.4 8.3,-3.8 18.3,-0.3 22,8.1s0.3,18.6 -8,22.3a63.2,63.2 0,0 0,84.8 0c-5.7,-2.6 -9.1,-8.4 -9.4,-14.5 -0.3,-9 6.6,-16.8 15.7,-17.1 8.8,-0.3 16.6,6.7 16.8,15.9 0,5.8 -3.4,11.3 -8.3,14.5a15.3,15.3 0,0 1,-10 2.6c6,27.6 30,47 57.7,46.7 2.3,-0.3 4.3,-0.3 6.6,-0.6a14.4,14.4 0,0 1,3.1 -15.7c5.7,-5.5 14.9,-5.5 20.3,0.3 5.4,5.8 5.4,15.1 -0.3,20.6 -5.7,5.5 -14.9,5.5 -20.3,-0.3a45.5,45.5 0,0 0,-2.8 16.3c0.3,26.7 21.7,48.7 48.2,48.7 2,0 3.4,0 5.4,-0.3v25a39.7,39.7 0,0 1,22.8 36c0,5.5 -0.8,11 -3.1,15.9zM689.3,567.9a85.1,85.1 0,0 0,4.3 -20.6v-0c0.3,-1.2 0.3,-2 0.3,-3.8 0,-17.4 -14.3,-31.6 -31.4,-31.6 -2.3,0 -4,0 -6.3,0.6a42.6,42.6 0,0 0,-5.7 2c-3.4,1.7 -6.8,4.1 -9.7,7 -0.6,0.6 -1.4,1.5 -2,2.3 -0.9,1.5 -2,3.2 -3.2,4.9a33.1,33.1 0,0 0,0 30.2c0.6,1.7 1.7,3.2 3.1,4.9 0.6,0.9 1.2,1.5 2,2.3 2.6,3.2 6,5.2 9.7,7 1.7,0.9 3.7,1.5 5.7,2 2.3,0.3 4,0.6 6.3,0.6h2c0.9,-0.3 2.3,-0.3 3.4,-0.6 0.6,0 1.1,0 1.7,-0.3 3.1,-0.3 5.7,-1.8 8.3,-3.2 1.2,-1.2 2.6,-2 4,-3.2a0.9,0.9 0,0 1,1.2 0c0.6,0.3 0.9,1.2 0.6,1.7 -0.8,2.3 -2.3,4.3 -3.7,6.4a34.3,34.3 0,0 1,-6.3 6.7c-2.6,1.7 -4.9,3.5 -7.7,4.6a40,40 0,0 1,-6.3 2,27.4 27.4,0 0,1 -10.9,0.6 28,28 0,0 1,-14 -5.5l-1.7,-1.5a7.2,7.2 0,0 1,-1.7 -1.5,31.4 31.4,0 0,1 -6.6,-8.7 33.2,33.2 0,0 1,-2.8 -8.4,22 22,0 0,1 -0.6,-4.3v-9.9l0.3,-20v-9.9c0,-3.2 0,-6.7 -0.3,-10.1 -0.3,-14.2 -4,-27.9 -9.7,-40.6a128.8,128.8 0,0 0,-7.7 -13.6,92.2 92.2,0 0,0 -12.8,-16.5c-1.1,-0.9 -2.3,-2.3 -3.7,-3.5a136.7,136.7 0,0 0,-12 -9.9,53.6 53.6,0 0,0 -4.3,-2.9c-3.1,-2 -6,-3.5 -9.1,-5.2a110.3,110.3 0,0 0,-50 -11.9c-17.4,0 -34.2,3.8 -49.9,11.9 -3.2,1.7 -6,3.2 -9.1,5.2a34.2,34.2 0,0 0,-4.3 2.9c-4.3,2.9 -8.3,6.4 -12,9.9l-3.4,3.5a90.7,90.7 0,0 0,-6.8 7.8c-2.3,2.9 -4,5.8 -6,8.7 -3.1,4.1 -5.4,9 -7.7,13.6a117.8,117.8 0,0 0,-9.7 40.6c-0.3,3.5 -0.3,6.9 -0.3,10.1v9.9l0.3,20v9.6c0,1.4 -0.3,2.9 -0.6,4.3 -0.6,2.9 -1.4,5.5 -2.9,8.4a31.9,31.9 0,0 1,-6.6 8.7c-0.6,0.6 -1.1,0.9 -1.7,1.5 -0.6,0.6 -1.1,0.9 -1.7,1.5 -4.3,2.9 -9.1,4.9 -14,5.5 -3.4,0.3 -7.4,0.3 -10.9,-0.6 -2.3,-0.3 -4.3,-1.2 -6.3,-2a25.8,25.8 0,0 1,-7.7 -4.6,27.5 27.5,0 0,1 -6.3,-6.7c-1.1,-2 -2.6,-4.1 -3.7,-6.4 -0.3,-0.3 -0.3,-0.9 0,-1.2 0.3,-0.6 1.1,-0.6 1.7,-0.3 0.9,1.2 2.6,2.3 4,3.2 2.6,1.2 5.1,2.3 8.3,3.2 0.6,0 1.1,0.3 1.7,0.3a11.8,11.8 0,0 0,3.4 0.6h2c2.3,0 4,0 6.3,-0.6a45.9,45.9 0,0 0,5.7 -2c3.4,-1.7 6.8,-4.1 9.7,-7 0.6,-0.6 1.4,-1.5 2,-2.3 0.9,-1.5 2,-3.2 3.1,-4.9a33.1,33.1 0,0 0,0 -30.2c-0.6,-1.7 -1.7,-3.2 -3.1,-4.9a14.7,14.7 0,0 0,-2 -2.3c-2.6,-2.9 -6,-4.9 -9.7,-6.7 -1.7,-0.9 -3.7,-1.4 -5.7,-2 -2.3,-0.3 -4,-0.6 -6.3,-0.6 -17.1,0 -31.1,14.5 -31.1,31.9 0,0.9 0.3,2 0.3,3.2 0.6,7 1.7,13.9 4.3,20.6 1.4,4.1 2.8,7.8 5.1,11.3 0.3,0.9 0.8,1.5 1.4,2.3 2.8,4.3 6.8,8.1 11.1,11a11.2,11.2 0,0 0,2.6 1.5c1.7,0.9 3.1,1.7 4.9,2.3 2.8,1.2 5.1,1.8 8,2 2,0.3 3.4,0.3 5.4,0.3a33.7,33.7 0,0 0,10.5 -1.7,25.7 25.7,0 0,0 7.7,-3.2c1.4,-0.9 3.1,-2 4.6,-3.2 5.7,-4.3 10.3,-10.7 12.8,-17.7 1.4,-3.2 2.3,-7.3 2.6,-10.7l0.3,-2.9v-7.5l0.3,-18.9c0,-6.7 0,-15.7 0.6,-21.8a102.1,102.1 0,0 1,31.7 -66.2,98.8 98.8,0 0,1 31.1,-20 100,100 0,0 1,72.2 0,99.2 99.2,0 0,1 31.1,20 104.5,104.5 0,0 1,32 66.2c0.6,6.4 0.6,15.1 0.6,21.8l0.3,18.9v7.5l0.3,2.9c0.3,3.5 1.1,7.3 2.6,10.7 2.6,7 7.1,13.3 12.8,17.7 1.4,1.2 2.8,2.3 4.6,3.2 2.6,1.2 4.9,2.3 7.7,3.2a33.7,33.7 0,0 0,10.5 1.7c2,0 3.4,0 5.4,-0.3 2.9,-0.3 5.4,-1.2 8,-2 1.7,-0.6 3.1,-1.4 4.9,-2.3 0.9,-0.6 1.7,-0.9 2.6,-1.5 4.3,-2.6 8,-6.7 11.1,-11 0.6,-0.9 0.9,-1.5 1.4,-2.3 2,-3.5 3.7,-7.5 5.1,-11.3zM498.4,447.2a14.3,14.3 0,0 0,14.3 14.8c8,0 14.6,-6.4 14.8,-14.5 -0.3,-8.1 -6.6,-14.8 -14.5,-14.8 -8,-0.3 -14.6,6.4 -14.6,14.5zM459.9,475.6c2.3,4.9 7.4,7.5 11.1,5.5 3.7,-1.8 4.6,-7 2.9,-12.2 -1.7,-4.9 -6.9,-7.5 -10.8,-5.5 -4.3,2 -5.7,7.3 -3.1,12.2zM554.3,481.1c3.7,2 8.8,-0.6 11.1,-5.5 2.3,-4.9 1.1,-10.5 -3.1,-12.2 -4,-1.7 -9.1,0.6 -11.1,5.5 -1.7,4.9 -0.6,10.2 3.1,12.2zM581.4,548.2a47.3,47.3 0,0 1,-19.1 8.4l0,0a43.1,43.1 0,0 1,-16.3 -1.5c-4,-1.7 -8.6,-2.3 -12.8,-1.7 -0.2,0.2 -0.3,0.1 -0.4,0.1a0.4,0.4 0,0 0,-0.2 -0.1,0.9 0.9,0 0,1 0,-1.2c2,-2 4.3,-3.8 7.4,-4.3 2.5,-0.5 4.5,-0.3 7.2,-0.1 1.9,0.2 4.1,0.4 7.1,0.4 6.6,-0.3 13.1,-1.4 19.1,-4.3a22.1,22.1 0,0 1,20.8 -0.9c0.3,0.3 0.6,0.6 0.6,0.9 -0.3,0.3 -0.6,0.6 -0.8,0.6a15.3,15.3 0,0 0,-12.6 3.8zM493.5,552.8c0,0.6 -0.6,0.6 -0.8,0.6v-0c-4.3,-0.6 -8.6,0 -13.1,1.7a38.4,38.4 0,0 1,-16.3 1.5,51.7 51.7,0 0,1 -19.1,-8.4 16.3,16.3 0,0 0,-12.6 -3.8c-0.3,0 -0.6,-0.3 -0.6,-0.6 0,-0.3 0.3,-0.9 0.6,-0.9a23.9,23.9 0,0 1,20.8 0.9c6,2.9 12.6,4.3 19.1,4.3 3,0 5.2,-0.2 7.2,-0.4 2.8,-0.3 4.9,-0.4 7.4,0.1a12.3,12.3 0,0 1,7.4 4.3v0.6zM525.8,601.6c0,0.3 -0.3,0.9 -1.4,1.5 -10,5.8 -13.4,5.8 -23.4,0.3 -0.9,-0.6 -1.1,-0.6 -1.1,-1.4 0,-0.9 1.1,-1.2 2.8,-0.6 6.6,2.9 13.7,2.9 20.3,0 1.7,-0.6 2.8,0 2.8,0.3zM500.7,639a24,24 0,0 1,-8.3 -7.9,9.6 9.6,0 0,0 -3.7,-3.2l-0,-0c-0.5,-0.6 -0.8,-0.9 -0.3,-1.4 0.6,-0.6 1.4,-0.3 1.4,-0.3 2.9,0.9 5.1,1.2 8,0.6 4,-1.2 9.1,-1.5 11.7,0.9 0.3,0.6 0.9,0.9 1.1,1.2 1.7,1.2 3.7,0.6 4.9,-1.2 2.3,-2.6 7.4,-2.3 11.7,-0.9 2.8,0.6 5.4,0.3 8,-0.6 0,0 1.2,0 1.4,0.3 0.3,0.3 0.3,0.9 -0.3,1.5a8.3,8.3 0,0 0,-3.1 3.2,21.6 21.6,0 0,1 -8.3,7.8 29.5,29.5 0,0 1,-24.3 0zM473,755.1c5.7,0 11.4,2 16,5.2 0.3,0.3 0.3,0.6 0.6,0.9 0,0.6 -0.3,0.9 -0.8,0.9h-53.4v-7h37.7zM536.4,761.8c-0.3,-0.6 -0.3,-1.2 0.3,-1.5a25.8,25.8 0,0 1,16 -5.2h37.7v7h-53.1c-0.3,0 -0.6,0 -0.9,-0.3z" fill="#4A3E33"/>
</svg>
