<svg xmlns="http://www.w3.org/2000/svg" viewBox="0 0 1024 1024">
  <path d="M511.5,976.4c-256,0 -464.4,-208.4 -464.4,-464.4S255.5,47.6 511.5,47.6 975.9,256 975.9,512s-208.4,464.4 -464.4,464.4z" fill="#FFFFFF"/>
  <path d="M511.5,78.3c239.6,0 433.7,194 433.7,433.7s-194,433.7 -433.7,433.7 -433.2,-194 -433.2,-433.7 194,-433.7 433.2,-433.7m0,-61.4C238.6,16.9 16.9,239.1 16.9,512s222.2,495.1 495.1,495.1 495.1,-222.2 495.1,-495.1S784.9,16.9 511.5,16.9z" fill="#CE0823"/>
  <path d="M817.7,406.5c-52.7,-1 -95.2,13.8 -124.9,36.4 -30.7,23 -47.6,53.8 -47.6,85 0,46.1 37.4,90.1 123.4,89.6 21.5,0 39.9,-2 57.3,-5.1 5.1,-1 9.7,-1.5 14.8,-2.6l10.2,-43c-16.9,5.6 -37.4,10.2 -54.8,10.2 -45.6,0.5 -76.3,-27.1 -76.3,-62.5 0,-18.9 7.7,-35.8 22,-47.6 14.8,-13.3 37.4,-21 65.5,-21 22,0 34.8,6.1 43.5,14.8l4.6,5.1h7.2l14.3,-50.2c-15.4,-5.1 -36.9,-9.2 -59.4,-9.2zM661,408.6L475.1,408.6l-2.6,10.8 -0.5,2.6s20.5,2 14.3,22.5l-46.6,168.4L532.5,612.9l3.6,-14.3s-17.4,-4.6 -12.8,-20.5c0.5,-1 6.7,-25.1 10.8,-39.4 1.5,-6.1 3.1,-10.8 3.1,-10.8h42.5c7.2,0 12.3,1 16.4,3.1 8.2,3.1 11.8,8.2 11.8,8.2l12.3,-50.2h-71.7l7.7,-28.7 3.1,-10.8h62c6.1,0 11.3,2 14.8,5.1l4.6,8.2h7.2l13.3,-54.3zM454.1,421.9l3.6,-13.3L349.2,408.6l-2.6,10.8 -0.5,2.6c7.2,0.5 17.9,7.2 9.2,14.8l-87,66.6 0.5,-2L286.7,436.2c4.1,-12.8 17.9,-14.3 17.9,-14.3l3.6,-13.3L204.8,408.6l-2.6,10.8 -0.5,2.6c5.1,1 18.9,4.1 14.3,22.5 -34.3,124.9 -30.7,112.6 -32.8,119.3 -7.7,29.7 -19.5,33.8 -26.1,34.3L153.6,598l-1.5,5.6 -2,8.7L256,612.4l3.6,-14.3s-16.9,-3.6 -13.8,-15.9c1.5,-6.1 6.1,-22 9.7,-36.4 3.6,-13.3 7.2,-25.6 7.2,-25.6 18.9,30.2 23,33.8 45.6,65 21,28.7 43,27.1 97.3,27.1h13.8l3.6,-14.3c-13.8,0 -22.5,-9.7 -28.2,-15.9C389.1,576 341.5,501.8 341.5,501.8l84.5,-66.6 2.6,-2c3.6,-3.1 7.2,-5.6 10.2,-7.2 9.7,-5.1 15.4,-4.1 15.4,-4.1z" fill="#CE0823"/>
</svg>
