<svg xmlns="http://www.w3.org/2000/svg" viewBox="0 0 1129 1024">
  <path d="M202.6,780.5c4.7,0 8.4,-3.8 8.4,-8.4v-5a4.9,4.9 0,0 1,4.9 -4.9h126.5a4.9,4.9 0,0 1,4.9 4.9v5c0,4.7 3.8,8.4 8.4,8.4s8.4,-3.8 8.4,-8.4v-5c0,-12 -9.8,-21.8 -21.8,-21.8H291.5v-3a12.3,12.3 0,1 0,-24.7 0v3h-50.9c-12,0 -21.8,9.8 -21.8,21.8v5a8.4,8.4 0,0 0,8.4 8.4zM543,759.4c5.5,0 9.9,-4.5 9.7,-10.1 -0.2,-5.3 -4.8,-9.4 -10.1,-9.4h-143.7c-5.3,0 -10,4.1 -10.1,9.4a9.8,9.8 0,0 0,9.7 10.1h56.4c3.3,0 6,2.7 6,6 0,3.3 -2.7,6 -6,6H414.6c-14.2,0 -25.7,11.5 -25.7,25.7v29.9c0,5.3 4.1,10 9.4,10.1 5.5,0.2 10.1,-4.3 10.1,-9.7v-33.3c0,-3.5 2.8,-6.2 6.2,-6.2h46.2v37.4c0,5.3 4.3,9.5 9.5,9.5 5.3,0 9.5,-4.3 9.5,-9.5v-37.4h46.2c3.5,0 6.2,2.8 6.2,6.2v32.9c0,5.3 4.1,10 9.4,10.1 5.5,0.2 10.1,-4.3 10.1,-9.7v-30.4c0,-14.2 -11.5,-25.7 -25.7,-25.7h-40.2c-3.3,0 -6,-2.7 -6,-6 0,-3.3 2.7,-6 6,-6h57.1z" fill="#231815"/>
  <path d="M342.8,785c-1.5,-4.4 -6.3,-6.8 -10.7,-5.3l-52.9,17.8 -52.9,-17.8c-4.4,-1.5 -9.2,0.9 -10.7,5.3 -1.5,4.4 0.9,9.2 5.3,10.7l31.8,10.7 -31.8,10.7a8.5,8.5 0,0 0,-5.3 10.7,8.4 8.4,0 0,0 10.7,5.3l52.9,-17.8 52.9,17.8c0.9,0.3 1.8,0.4 2.7,0.4 3.5,0 6.8,-2.2 8,-5.7 1.5,-4.4 -0.9,-9.2 -5.3,-10.7l-31.8,-10.7 31.8,-10.7c4.4,-1.5 6.8,-6.3 5.3,-10.7z" fill="#231815"/>
  <path d="M355.2,889.1l-4.3,4.6c-1.2,1.2 -2.8,1.9 -4.4,1.9h-58.1v-11.2h46.9c11.6,0 21.1,-9.4 21.1,-21.1v-6.3c0,-11.6 -9.4,-21.1 -21.1,-21.1h-42.5c-2.4,0 -4.4,-2 -4.4,-4.4 0,-4.7 -3.4,-8.9 -8,-9.5a9.2,9.2 0,0 0,-10.3 9.1v0.4c0,2.4 -2,4.4 -4.4,4.4h-42.5c-11.6,0 -21.1,9.4 -21.1,21.1v6.3c0,11.6 9.4,21.1 21.1,21.1h46.9v11.2h-69.9c-4.6,0 -8.6,3.6 -8.8,8.2a8.4,8.4 0,0 0,8.4 8.7h146.6c6.3,0 12.4,-2.6 16.7,-7.2l4.2,-4.4c2.9,-3.1 3.3,-8 0.6,-11.3 -3.4,-4 -9.3,-4.1 -12.7,-0.5zM333.6,852.8c2.3,0 4.2,1.9 4.2,4.2v6.3c0,2.3 -1.9,4.2 -4.2,4.2h-45.2v-14.6h45.2zM223.9,867.5a4.2,4.2 0,0 1,-4.2 -4.2v-6.3c0,-2.3 1.9,-4.2 4.2,-4.2h46.1v14.6h-46.1zM288.7,780.6c0,-7.1 -11.1,-16.5 -11.1,-16.5s-10.8,8.4 -10.8,16.8c0,8.4 6,11.2 11.1,11.2 5.1,-0 10.8,-2.8 10.8,-11.5zM201.9,813.6c5.1,0 10.8,-2.8 10.8,-11.4 0,-7.1 -11.1,-16.5 -11.1,-16.5s-10.8,8.4 -10.8,16.8c-0,8.4 6,11.2 11.1,11.2zM356.3,785.7s-10.8,8.4 -10.8,16.8c0,8.4 6,11.2 11.1,11.2s10.8,-2.8 10.8,-11.4c0,-7.1 -11.1,-16.5 -11.1,-16.5zM589.5,739.6s-11.9,9.3 -11.9,18.5 6.6,12.3 12.3,12.3 11.9,-3.1 11.9,-12.6c0,-7.9 -12.3,-18.2 -12.3,-18.2zM919.9,757.5c5.3,0 11.2,-2.9 11.2,-11.9 0,-7.4 -11.5,-17.1 -11.5,-17.1s-11.2,8.7 -11.2,17.4c0,8.7 6.3,11.6 11.5,11.6zM531.8,845.6h-132.1a8.4,8.4 0,0 0,0 16.7h125.2c2.3,0 4.2,1.9 4.2,4.2v5h-129.4a8.4,8.4 0,0 0,-8.4 8.4v0.3a8.4,8.4 0,0 0,8.4 8.4h129.4v4.3c0,2.3 -1.9,4.2 -4.2,4.2h-125.2a8.4,8.4 0,0 0,-8.4 8.4v0.3a8.4,8.4 0,0 0,8.4 8.4h132.1c9.9,0 18,-8 18,-18v-32.6c-0,-9.9 -8.1,-17.9 -18,-17.9zM516.1,798.6c-3.1,-3 -8,-3.1 -11,0l-12.1,12.1a8.4,8.4 0,0 0,0 11.8l11.7,11.7c1.5,1.5 3.5,2.3 5.5,2.3s4,-0.8 5.5,-2.3a7.8,7.8 0,0 0,0 -11l-6.6,-6.6 7,-7a7.8,7.8 0,0 0,-0 -11zM423.6,834.3c1.5,1.5 3.5,2.3 5.5,2.3 2,0 4,-0.8 5.5,-2.3l11.7,-11.7a8.4,8.4 0,0 0,0 -11.8l-12.1,-12.1c-3.1,-3 -8,-3.1 -11,0a7.8,7.8 0,0 0,0 11l7,7 -6.6,6.6a7.8,7.8 0,0 0,-0 11zM590.4,784.4h-1.5c-5,0 -9,4 -9,9v110.5c0,5 4,9 9,9h1.5c5,0 9,-4 9,-9L599.4,793.4c0,-5 -4,-9 -9,-9zM676.9,732.6c-5.4,0 -9.7,4.4 -9.7,9.7v142.7a10.6,10.6 0,0 1,-10.6 10.6h-4.2c-5.4,0 -9.7,4.4 -9.7,9.7s4.4,9.7 9.7,9.7h4.2c16.6,0 30.1,-13.5 30.1,-30.1v-142.7c0,-5.4 -4.4,-9.7 -9.7,-9.7zM658.7,778.6c0.1,-3.2 -1.1,-6.4 -3.3,-8.7a11.9,11.9 0,0 0,-8.5 -3.6h-30c-5.4,0 -9.7,4.4 -9.7,9.7s4.4,9.7 9.7,9.7h21.9c-0.7,9.7 -2.4,26.1 -6.3,45.2 -5,24.2 -10.7,42.9 -25.3,66.7a9.8,9.8 0,0 0,3.2 13.4,9.7 9.7,0 0,0 13.4,-3.2c16.1,-26.2 22.4,-46.6 27.7,-73 5.5,-26.9 6.9,-48.3 7.2,-56.3zM746.5,776.1c0,-5.4 -4.4,-9.7 -9.7,-9.7h-30.3c-3.2,0 -6.3,1.3 -8.5,3.6a11.9,11.9 0,0 0,-3.3 8.7c0.3,8 1.7,29.4 7.2,56.3 5.4,26.4 11.7,46.8 27.7,73a9.7,9.7 0,0 0,8.3 4.6c1.7,0 3.5,-0.5 5.1,-1.4a9.7,9.7 0,0 0,3.2 -13.4c-14.6,-23.8 -20.3,-42.5 -25.3,-66.7a367.9,367.9 0,0 1,-6.3 -45.2h22.2a9.7,9.7 0,0 0,9.7 -9.7z" fill="#231815"/>
  <path d="M939.4,898.3c-6.3,-8.3 -12.4,-19.7 -17.9,-33.2 15.3,-22.7 15.6,-46 15.6,-47.3 0,-5.7 -4.6,-10.4 -10.4,-10.4 -5.7,0 -10.4,4.6 -10.4,10.4 0,0.2 -0.1,9 -4.2,20.3 -2.8,-9.5 -5.2,-19.4 -7.2,-29.5 -1.8,-9.1 -3.2,-18 -4.2,-26.2h28.9c5.7,0 10.4,-4.6 10.4,-10.4s-4.6,-10.4 -10.4,-10.4h-31c-1.1,-15.2 -1,-25 -1,-25.2a10.4,10.4 0,0 0,-10.2 -10.5c-5.7,-0.1 -10.5,4.5 -10.5,10.2 -0,0.8 -0.1,10.5 0.9,25.5h-27.8c-20.5,0 -30.5,15 -31.4,29.8 -0.3,5.4 -2.1,47.2 -3.4,78.4a10.3,10.3 0,0 0,-7.5 0.2l-5.2,2.1v-86.7h5.2c5.7,0 10.3,-4.6 10.3,-10.3s-4.6,-10.3 -10.3,-10.3h-5.2v-20.7a10.7,10.7 0,0 0,-10.7 -10.7,10.7 10.7,0 0,0 -10.7,10.7v20.7h-6.5c-5.7,0 -10.3,4.6 -10.3,10.3s4.6,10.3 10.3,10.3h6.5v95.4l-7.5,3.1a10.4,10.4 0,0 0,-5.7 13.6,10.4 10.4,0 0,0 9.6,6.5c1.3,0 2.6,-0.2 3.9,-0.8l32.8,-13.4c-0.3,8.1 -0.6,13.5 -0.6,14.4 -0.2,5.7 2.9,10.6 8.7,10.8h0.4a10.3,10.3 0,0 0,10.3 -9.9c0,-0.7 2.2,-52.1 3.6,-85.3l16.4,-0c1.8,0 3.3,1.5 3.3,3.3v61.5c0,2.8 -2.2,5 -5,5h-1.6a9.1,9.1 0,0 0,0 18.2h1.6c12.8,0 23.2,-10.4 23.2,-23.2V823c0,-11.9 -9.7,-21.5 -21.5,-21.5l-15.6,0c0.2,-4.5 0.3,-7.6 0.4,-8.9 0.4,-6.8 5.3,-10.2 12,-10.2h29.8c1.1,9.3 2.6,19.5 4.8,30.2 3.4,17.3 8,33.9 13.4,49 -4.1,4.4 -9,8.6 -15,12.3a10.4,10.4 0,0 0,-3.5 14.3,10.4 10.4,0 0,0 8.9,5c1.8,0 3.7,-0.5 5.4,-1.5 4.7,-2.9 8.9,-6 12.7,-9.3 5.1,11.2 10.7,20.9 16.5,28.5a10.4,10.4 0,0 0,8.3 4.1c2.2,0 4.4,-0.7 6.3,-2.1 4.6,-3.4 5.5,-10 2,-14.5z" fill="#231815"/>
  <path d="M794.7,563.3c4.3,-7.6 6.5,-17.6 6.5,-30 0,-40 -34.4,-77.2 -46.4,-86.3 -2.1,-12.8 -11.5,-21.7 -17.8,-27.7l-1.3,-1.3c0.2,-17.3 -11.1,-28.5 -20.4,-34 16.8,-18.9 27.4,-43.6 27.4,-73.6 0,-69.9 -74.3,-96.7 -89.7,-101.5 -1,-6.2 -2,-22.8 12.1,-35.3 5.1,-3.6 8.2,-9.5 8.2,-15.8 0,-10.7 -8.7,-19.4 -19.4,-19.4 -10.7,0 -19.4,8.7 -19.4,19.4 0,1.2 0.1,2.5 0.4,3.7 -1.9,2.8 -4.6,6.1 -8.3,8.9 -2.2,-2.7 -4.7,-7 -7,-12.4 2,-3.1 3.1,-6.8 3.1,-10.6 0,-10.7 -8.7,-19.4 -19.4,-19.4s-19.4,8.7 -19.4,19.4c0,4.2 1.3,8.2 3.8,11.5 -2,5.6 -4.2,9.8 -6.2,11.9 -2.2,-1.6 -6.4,-5.5 -10.3,-9.1 0.8,-2.2 1.3,-4.5 1.3,-6.8 0,-10.7 -8.7,-19.4 -19.4,-19.4s-19.4,8.7 -19.4,19.4c0,8.5 5.5,15.9 13.4,18.4 5.2,15.2 8.5,28 9.4,36 -40.1,13.3 -85.3,49.4 -85.3,109.4 0,24.3 10.6,46.2 27.3,64.1 -6.4,4.2 -17.2,12.5 -21.8,24.5 -9.5,3.5 -18.2,14.2 -21,21.9 -8.1,-0.1 -13.9,-1.3 -34.4,-10.1l-2.9,-26.7c2.4,-1.9 4.4,-4.2 5.8,-6.9 4.2,-8.2 0.6,-15.2 -3.5,-19.4 0.2,-0.3 0.4,-0.5 0.6,-0.8 3,-4.5 3.9,-9.2 3,-13.7 -0.9,-4.2 -3.3,-7.4 -5.3,-9.4 0.3,-0.9 0.5,-1.8 0.7,-2.9 1.8,-10.7 12.9,-98.6 14.2,-110.1 0.9,-8.1 -1.1,-15.6 -5.4,-20.3a14.3,14.3 0,0 0,-4.9 -3.5c1.6,-9.8 -0.1,-23.6 -12.7,-30.7 2.8,-16.3 -2.7,-27.6 -16.3,-33.5 -16.4,-7.1 -16,-12.1 -15.6,-17.4l0.5,-6.6 -6.4,2c-1.1,0.4 -28,9 -28,35.1 0,4.2 1,9.3 1.8,12.4 -4.6,3.8 -13.6,12.9 -13.6,25.4 0,6.8 1.2,11.5 2.6,14.7 -6.1,3 -12.3,8.7 -11.4,18 0.9,9.5 4.8,17.4 8.5,25.1 1.4,2.9 2.9,6 4.2,9 2,4.7 7.7,19.9 13.8,35.9 10.1,26.8 17.4,46.1 19.4,50 0.3,0.6 0.6,1.2 1,1.8 -0.9,5 -2,17.3 5.8,24.6 -1.5,8 -0.9,19.9 8.8,24.7 0.3,0.1 0.6,0.2 0.8,0.3l2.2,17.3c-2.6,0.6 -5,1.7 -7.2,3.1 -5.1,3.3 -11.1,10.4 -11.1,25.3 0,18.5 12.6,33 27.6,43.7l11.3,87.8c-7,23.6 -12.8,46.5 -12.8,57.8 0,15 10.9,23.6 23.8,28.6l3.5,27c0.8,6.2 6.2,10.8 12.3,10.8 0.5,0 0.9,-0 1.3,-0.1l0.9,-0.1c6.8,-0.8 11.7,-6.9 10.9,-13.6l-1.9,-17.6c2.5,0.3 4.9,0.6 6.9,0.9 1.6,0.2 3,0.4 4.1,0.5 11.3,1.6 37.5,3 43.1,3.3 27.9,18 62.4,28.7 99.8,28.7 37.8,0 72.7,-10.9 100.8,-29.3 5.6,-0.1 28.9,-1 58.6,-8.5 31.1,-7.9 46.8,-21 46.8,-39 0,-12.4 -10.6,-50.2 -13.1,-59.2zM437.5,671.3l-7.3,-8.8 -33.9,-264.1 7.8,5.1 5.8,-6.7 28.6,267.6 -1,7z" fill="#000000" fill-opacity="1.000"/>
  <path d="M726.6,419.6l-0.2,2 1.5,1.5c0.9,0.9 1.9,1.8 2.9,2.8 3.8,3.6 8.4,7.9 11.6,13.3 -1.9,0.2 -4,0.4 -6.2,0.7 -9.2,1.1 -21.8,2.6 -44.5,2.6 -20.8,0 -37.3,-10.9 -45.8,-17.9 23.6,-5.9 45.8,-17.2 63,-33.6 5.7,3 18.9,11.7 17.8,28.7z" fill="#E40055"/>
  <path d="M554.9,168l-0.9,-2.5 -2.6,-0.5a10.3,10.3 0,0 1,-8.6 -10.1c0,-5.7 4.6,-10.3 10.3,-10.3 5.7,0 10.3,4.6 10.3,10.3 0,1.9 -0.6,3.8 -1.6,5.5l-2,3.1 2.7,2.5c12.7,12 16,14.8 20,14.5 2.4,-0.2 4,-1.7 4.7,-2.6 3.6,-3.3 6.9,-9.6 9.9,-18.6l0.9,-2.7 -2,-2a10.2,10.2 0,0 1,-3.1 -7.3c0,-5.7 4.6,-10.3 10.3,-10.3 5.7,0 10.3,4.6 10.3,10.3 0,2.5 -0.9,5 -2.7,6.9l-1.9,2.1 1,2.6c4.2,10.5 8.6,17.5 13.3,20.8l2.4,1.7 2.5,-1.5c6,-3.5 11.3,-8.9 15.3,-15.4l1.1,-1.7 -0.6,-2a10.3,10.3 0,0 1,9.8 -13.4,10.3 10.3,0 1,1 5.8,18.8l-0.4,0.3c-16.8,14.7 -16.6,33.9 -15.4,42.5 -6.6,1.6 -21.2,4.5 -39.5,4.5 -11,0 -30.1,-1.7 -38.7,-4.4 -1.2,-12.2 -7.1,-30.7 -10.8,-41.3zM480.4,318.6c0,-56 41.4,-88.9 80.8,-101.3 11,4.2 35.2,5.5 43.2,5.5 22.9,0 40,-4.2 44.8,-5.6 10.2,3 84.5,27.3 84.5,93.2 0,71.3 -65,109.8 -126.2,109.8 -60,0 -127.1,-43.5 -127.1,-101.6z" fill="#FFFFFF"/>
  <path d="M481.3,415.2l2.5,-0.6 0.8,-2.5c3.6,-11.6 15.4,-19.7 20.6,-22.9 18.6,17.2 43,29.7 68.4,35.8 -14.7,14 -51.1,15.9 -67.6,10.8 -17.4,-5.3 -29.4,-6.5 -40.3,-6.8 2.9,-5 9.2,-12.5 15.6,-13.9z" fill="#E40055"/>
  <path d="M333.5,223.6c-0.8,-7.9 10.1,-10.4 10.6,-10.5l17.8,-3.3 -16.5,-5.1c-0.6,-0.6 -3,-3.7 -3,-12.9 0,-11.5 12,-19.8 12.2,-19.9l2.8,-1.8 -0.9,-3.2c-0.6,-2.1 -2.2,-8.6 -2.2,-12.9 0,-13.2 9.6,-20.5 16.1,-24 1.4,7.1 6.7,13.1 20.7,19.3 13.3,5.8 12.6,17.3 10.4,26.7l-0.9,3.8 3.6,1.5c15.2,6.2 10.4,24.1 9.8,26.2l-1.8,6 6.3,-0.2c1.3,-0.1 2.5,0.5 3.5,1.6 2.4,2.6 3.6,7.8 3.1,13.1 -0.1,0.6 -0.2,1.5 -0.3,2.5 -32,21.2 -76.8,11.4 -86.4,8.9 -2.3,-5.1 -4.2,-10.1 -4.7,-15.7z" fill="#FFFFFF"/>
  <path d="M359.5,291.3c-6.1,-16.1 -11.9,-31.4 -13.9,-36.2 -0.8,-1.8 -1.6,-3.5 -2.4,-5.2 7.4,1.5 18.4,3.2 30.9,3.2 15.4,0 33.1,-2.6 49.1,-11.1 -3.5,28.1 -11,87.2 -12.5,95.7 -0.9,5.7 -6.2,8 -18,8 -9.7,0 -12.1,-0.9 -14.3,-5.2 -2,-3.9 -11.5,-29 -19.1,-49.2z" fill="#F29600"/>
  <path d="M379.9,353.2c4,1.4 8.5,1.4 12.9,1.4 4.6,0 14.4,0 20.9,-5.1 0.8,1 1.5,2.2 1.8,3.6 0.5,2.1 -0.1,4.4 -1.7,6.9 -6.1,9.4 -20.4,10.5 -29.2,5.1 -4,-2.4 -4.8,-7.6 -4.8,-12z" fill="#F29600"/>
  <path d="M385.8,375.7c3.5,1.2 7.2,1.8 11,1.8 6.2,0 12.4,-1.7 17.6,-5.3 1.8,1.9 3.8,5.1 1.8,9 -3.8,7.5 -17.2,10.7 -26.1,6.3 -4.1,-2.1 -4.6,-7.5 -4.3,-11.8z" fill="#F29600"/>
  <path d="M379.8,441.6c0,-6 1.2,-13.9 7,-17.7 1,-0.7 2.2,-1.1 3.4,-1.5l6.4,50.1c-9.7,-8.4 -16.8,-18.7 -16.8,-30.9z" fill="#F29600"/>
  <path d="M405.9,630.8c0,-7.2 2.7,-20 6.6,-34.9l6.8,52.9c-7.7,-3.9 -13.4,-9.6 -13.4,-18.1z" fill="#E40055"/>
  <path d="M440.7,684.4L409.9,396.7c-3.4,1.1 -7.1,1.8 -10.7,1.8 -0.9,0 -1.9,-0.1 -2.8,-0.2l33.9,264.1 2.9,22.8c0.2,1.8 1.9,3.1 3.7,2.9l0.9,-0.1c1.8,-0.2 3.1,-1.9 2.9,-3.7z" fill="#F29600"/>
  <path d="M460.1,658.2c-1.2,-0.2 -2.6,-0.3 -4.3,-0.6 -2.5,-0.3 -5.6,-0.7 -8.9,-1.2l-6.9,-64.3c8.6,26.6 25.5,50.2 48.3,68.4 -9.7,-0.6 -21.7,-1.5 -28.1,-2.4z" fill="#E40055"/>
  <path d="M442.7,552.7c0,-23.7 7.1,-47 20.5,-67.5a4.6,4.6 0,0 0,-1.3 -6.3c-2.1,-1.4 -4.9,-0.8 -6.3,1.3a138.7,138.7 0,0 0,-10 18.1c-3.6,-1.2 -9.6,-3.3 -16.4,-6.4l-6.7,-62.8c20,8.4 25.5,8.9 37,8.9 11.9,0 24.3,0.5 43.9,6.4 20.5,6.2 65,4 80.4,-17.4 7.9,1.4 15.9,2.1 23.7,2.1 9.1,0 18.3,-0.8 27.4,-2.4 6.2,6.1 27.4,24.6 56.8,24.6 23.3,0 36.7,-1.6 45.5,-2.6 3.4,-0.4 6.1,-0.7 8.6,-0.9 0.1,0.7 0.2,1.3 0.3,2l0.2,2.2 1.9,1.2c7.8,4.9 44,41.4 44,79.9 0,15.1 -3.5,25.9 -10.3,31.9 -4.8,4.2 -10.2,5.2 -13.4,5.3 0.8,-5.8 1.3,-11.8 1.3,-17.8 0,-12.5 -1.8,-25 -5.4,-37a4.5,4.5 0,0 0,-5.6 -3.1,4.5 4.5,0 0,0 -3,5.6 120,120 0,0 1,5 34.4c0,75.8 -71.3,137.4 -159,137.4s-159,-61.5 -159,-137.3z" fill="#FFFFFF"/>
  <path d="M758.8,652.6c-17.2,4.3 -32.3,6.4 -42.8,7.3 25.9,-20.9 44.1,-48.9 50.9,-80.3 0.2,0 0.3,0 0.5,0 4.3,0 12.8,-0.9 20.3,-7.5l0.1,-0.1c4.4,15.8 11,41.7 11,50.3 0,13.3 -13.5,23.5 -40,30.2z" fill="#E40055"/>
  <path d="M591,281.3c-1.1,0.5 -2.4,0.1 -3,-1 -1.6,-3 -4.6,-8.3 -5.9,-7.5 -1.3,0.8 -1.3,1.9 0,4.3s1.8,2.8 1.8,7 -4.6,6.9 -4.6,6.9v2.4s6.2,0.2 6.2,6 -3.3,20.8 -13.7,20.8 -17.3,-15.1 -17.3,-27.5c0,-12.4 7.1,-27.3 20.2,-27.3 10,0 15.5,8.7 17.5,12.8 0.6,1.1 0.1,2.5 -1.1,3z" fill="#0B2F8D"/>
  <path d="M671.1,283.7c-1.1,0.5 -2.4,0.1 -3,-1 -1.6,-3 -4.6,-8.3 -5.9,-7.5 -1.3,0.8 -1.3,1.9 0,4.3s1.8,2.8 1.8,7 -4.6,6.9 -4.6,6.9v2.4s6.2,0.2 6.2,6c0,5.8 -3.3,20.8 -13.7,20.8s-17.3,-15.1 -17.3,-27.5c0,-12.4 7.1,-27.3 20.2,-27.3 10,0 15.5,8.7 17.5,12.8 0.6,1.1 0.1,2.5 -1.1,3z" fill="#0B2F8D"/>
  <path d="M616.7,379c-43.8,0 -74.4,-31 -75.6,-32.3 -1.6,-1.6 -1.5,-4.2 0.1,-5.7 1.6,-1.6 4.2,-1.5 5.7,0.1 0.3,0.3 29.6,29.9 69.9,29.9 39.2,0 51.5,-23.9 52,-24.9 1,-2 3.4,-2.8 5.4,-1.9 2,1 2.8,3.4 1.9,5.4 -0.6,1.2 -14.7,29.5 -59.3,29.5z" fill="#0B2F8D"/>
  <path d="M601.1,319.5c0,13.5 6.4,24.4 21.5,24.4 14.5,0 41.4,-3.3 57,-26.5 0.8,-1.3 0.1,-2.9 -1.4,-3.1 -12.4,-1.5 -33.8,-4.4 -45.4,-10.1 -12.6,-6.2 -31.7,-2.4 -31.7,15.3z" fill="#F29600"/>
  <path d="M566.1,362.3s-6.4,-19.5 -9.3,-29.9 -10.8,-16.8 -17.1,-16.8c-6.2,0 -17.9,4.9 -17.9,16.8 0,12 13.1,29.9 44.3,29.9z" fill="#E40055"/>
</svg>
