<svg xmlns="http://www.w3.org/2000/svg" viewBox="0 0 1536 1024" width="512pt" height="512pt">
  <path d="M0,0m226.8,0l907.3,0q226.8,0 226.8,226.8l0,453.7q0,226.8 -226.8,226.8l-907.3,0q-226.8,0 -226.8,-226.8l0,-453.7q0,-226.8 226.8,-226.8Z" fill="#333333"/>
  <path d="M905.4,276.1c10.8,5.5 19.6,13.8 21.1,21 0.3,1.3 0.4,2.6 0.4,4 11.9,-2.2 20.8,-4.4 25.3,-6.3 14.2,-6 16.6,-20.3 39.3,-2.9 7.9,6 29.3,25.3 33.4,30.4 11.5,14.2 9.9,23.7 -5.8,24.4 -19.5,0.9 -77.3,2.1 -84,2.1 -1.8,0 -12.2,0.9 -27.3,2.3 -4.3,9 -8.3,16.9 -10.6,21.9 -4.8,10.3 -10.5,17.5 -20.8,23.1 -7,3.8 -16.2,4.7 -24.4,6.2 -9,1.6 -17.1,-0.3 -11.1,-12.5 4.3,-8.7 8.2,-20.8 11.8,-33.6 -23.8,2.2 -48.5,4.6 -67.7,6.4 -0.7,6.5 -1.8,15.2 -3.3,22.4a16.6,16.6 0,0 1,-2.3 5.4c12.4,4.3 27.2,10 30.1,13.7 2.8,3.5 7.2,8.5 9.5,16.2 0.6,1.8 1,3.4 1.4,4.9 19.4,-1.8 45.6,-4.5 60.5,-7.9 25.9,-6 38.7,-24.5 57.8,-7.3 9.5,8.5 24.8,29 37.3,41.5 5.7,5.7 3.8,13.2 1.4,17 -9,14.3 -20.3,9.6 -56.5,37.1a107,107 0,0 0,-2.2 1.7l-3.4,2.8c-13.5,10.9 -46.8,37.6 -87.8,59.7l-4.3,2.2c36.2,-2.5 77.2,-7.1 97,-14.1 1.7,-0.6 8.1,-4.7 16.2,0.6 9.3,6.2 22.8,15 39.3,28.6a10.6,10.6 0,0 1,2.3 14.2c-6.5,9.7 -6.7,14.3 -8.4,25.5 -2.3,14.9 -5,36.8 -4.6,48.4 0.7,17.5 -5,22.4 -27.2,18.7 -29.3,-5 -42.5,-5.6 -50,-5.6 -6.2,0 -76.6,4.2 -97,5.3 -4.5,0.3 -10.6,1 -14.7,2.8 -2,0.9 -4.5,2 -7.7,3.5l-5.3,2.5c-15.9,7.3 -31.8,12.4 -32.5,-7.9 0.2,-14.8 -4.6,-56.1 -9.5,-81.9 -38.8,11.6 -59.2,11.5 -80.5,11 -2.3,0.2 -11.5,0.3 -12.7,-3.1 -1.3,-3.7 9.5,-10 9.5,-10l40.5,-18.9s55.7,-25.5 106.6,-53.8a39.1,39.1 0,0 1,-2.8 -0.6c-14.2,-3.6 -19.9,-24.7 -22,-34.1l-2.9,-9.2c-27.7,15.4 -59.9,26.9 -88.4,27.8 -38.4,1.1 -19.1,-11.6 -10.5,-16.4 11.3,-6.4 23.4,-11.5 34.4,-18.1 28.9,-17.4 68.3,-50.7 67.3,-75.7l-0.3,-8.8a13.8,13.8 0,0 1,-14.3 -8.4,206.6 206.6,0 0,1 -10.4,-27.6c-14.5,1 -35.3,2 -50.7,2 -12.9,0 -19.2,-0.7 -29.4,-7.7a136,136 0,0 1,-20.4 -16.8c-9.2,-9.8 -11.4,-18.7 14.2,-16.2 5,0.5 25.7,3.8 51.5,1.5 4.8,-0.4 12.5,-1.2 22.5,-2.2 -2.2,-5.5 -4.5,-9.9 -6.6,-12.1 -8.3,-8.2 -39,-40.3 8.2,-29.3 0,0 40.5,6.2 51.8,19.1 3.3,3.8 5.6,9.6 7.2,15.8 26.1,-2.9 54.8,-6.4 81.1,-9.9l-0.5,2c1.6,-7.1 2.4,-10.2 -0.9,-17.1 -4.7,-10 -13.8,-22.5 -9,-28 3.3,-3.7 40.8,2.8 51.9,8.5zM357.1,249.8c10.8,2.2 44.5,12.4 55.3,15.8 6,1.8 11.2,4.8 16.2,14.3 6,11.3 6.9,12 3.6,19.6 -7.7,17.7 -8.8,47.9 -9.4,72.1l75.1,-8.4c27.1,-1.3 36.4,-18.3 52.6,-8.7 9.8,5.8 41.1,24.8 50.1,30.8 10.9,7.4 14.5,26.5 -1.3,31.7 -18.5,6 -84.1,2.7 -89,2.8 -2.2,0 -42.3,1.5 -89.3,3.7l-2.7,67.3a17.9,17.9 0,0 1,-3.7 10.1l16.8,-1.5c6.3,-0.6 38.6,-7.1 42.8,-9 23.4,-10.4 35.2,12.8 35.2,12.8s26.7,34.3 29.5,40.5c1.2,2.5 0.6,5.4 -1.4,7.4 -4.5,4.4 -12.2,13.8 -13.8,27.6 -2.3,19.7 -13,77.1 -14,81.2 -0.9,4 2,22.4 -13.7,24.6 -15.7,2.2 -43.8,-9 -55.7,-10.3 -15.9,-1.8 -28.4,-1.4 -44,0.2 -5.8,0.6 -12.3,1.3 -18.9,2.1l-9.9,1.2c-19.7,2.4 -37.9,4.8 -39.4,5.4 -17.1,5.8 -17.9,8.2 -25.5,8.6 -7.6,0.5 -10.1,-0.5 -13,-1.4 -2.7,-0.9 -29.9,-12.1 -26.7,-41.2 3,-27.5 -8.3,-70.9 -14.1,-98.7 -2.6,-11.9 -6,-24.9 -8,-31.1 -3.2,-9.8 9.8,-11.6 16,-11.6 6.2,0 26.9,2.4 44.5,2.1 5.8,-0.1 32.1,-2.1 61.1,-4.5a18.9,18.9 0,0 1,-0.1 -1.8l1.1,-77.2 -11.1,0.6c-34.4,1.9 -64.6,3.9 -78.2,5.6 -48.9,6.4 -59,5.8 -71.2,-4.1 -2.7,-2.2 -16.2,-12.8 -23.7,-19.6 -11.7,-10.7 -16.8,-22.3 10.8,-19.4 1.5,0.2 20.6,1.3 27.2,1.4 34.3,0.4 142.4,-12.2 147.1,-12.7l-0.3,9c0.4,-26.5 2.2,-53.8 1.3,-80.3 -0.3,-9.1 -2,-21.1 -8.2,-27.3 -8.3,-8.4 -14,-20.4 -10,-26.5 2.2,-3.4 6.2,-3.9 9.7,-3.2zM898.3,603.8c-28.1,-2.2 -58.2,1.3 -82.6,3.8 -12.6,1.3 -18,0.9 -32,1.9a4.8,4.8 0,0 0,-4.7 4.9c0.4,8.1 2.7,31.4 3.7,39.6 0.4,2.8 4.5,4.6 7.4,4.4a10999.1,10999.1 0,0 1,59.5 -4l10.3,-0.5c15.5,-0.7 30.2,-1 35,-0.6 9.4,0.8 11.6,-0.5 11.4,-5.5 0.6,-13.5 3.7,-25 3.5,-33 -0.2,-9.1 -3.7,-10.3 -11.6,-11zM444.5,543.8c-39.4,-5.2 -82.3,7.1 -120.8,7.6 -4.6,-0.2 -8.2,3.4 -7.7,7.7 1.8,15.7 7.7,64.5 9.5,74.4 1.1,6 6.1,7 16.6,5.9 12.1,-1.3 27.9,-4.5 41.3,-6.8 18.1,-3.2 46.4,-1.3 58,0.5 4.1,0.7 7.9,-2 8.6,-5.8 2.4,-14.4 5.9,-56.5 5.6,-72 -0.2,-7.2 -2.9,-10.3 -11.1,-11.5zM877.7,451.6c-10.8,0 -48.9,5 -74.6,8.5a99.1,99.1 0,0 1,-9.4 8.6,214.6 214.6,0 0,1 -11.7,9c16.5,6.2 34.5,16.1 38.1,29.8 0.7,2.7 1.1,5.2 1.2,7.6a444.6,444.6 0,0 0,60.7 -50.6c10.4,-10.4 6.2,-13 -4.3,-13zM1138.1,198.5C1167.2,198.5 1190.9,221.4 1190.9,249.5c0,28.1 -23.7,51 -52.8,51 -29.1,0 -52.8,-22.9 -52.8,-51 0,-28.2 23.7,-51 52.8,-51zM1138.1,207.9c-23.8,0 -43.1,18.7 -43.1,41.7 0,23 19.3,41.7 43.1,41.7 23.7,0 43.1,-18.7 43.1,-41.7 0,-22.9 -19.4,-41.6 -43.1,-41.6zM1146.4,215.5c14.8,0 22.7,7.3 22.7,16.8 0,7.4 -4.6,13.3 -13.3,15.5l17.2,18.7L1156.8,266.5l-15.3,-16.5h-7.3L1134.2,266.5h-13.8L1120.4,215.5zM1146,226.3h-11.7v13.4h12c5,0 8.8,-2 8.8,-6.8 0,-4.8 -4.2,-6.6 -9.1,-6.6z" fill="#F6F6F6"/>
</svg>
