<?xml version="1.0" encoding="UTF-8" ?>
<!DOCTYPE svg PUBLIC "-//W3C//DTD SVG 1.1//EN" "http://www.w3.org/Graphics/SVG/1.1/DTD/svg11.dtd">
<svg width="512pt" height="512pt" viewBox="9.618 0 185.443 99.251" version="1.1" xmlns="http://www.w3.org/2000/svg">
<g id="#f2c084ff">
</g>
<g id="#ea3323ff">
<path fill="#ea3323" opacity="1.00" d=" M 58.42 23.37 C 64.78 23.34 71.13 23.26 77.48 23.42 C 77.24 28.80 79.45 36.41 73.44 39.42 C 68.60 40.91 63.37 40.01 58.37 40.03 C 58.30 34.48 58.26 28.92 58.42 23.37 Z" />
<path fill="#ea3323" opacity="1.00" d=" M 81.82 23.35 C 93.24 23.38 104.66 23.24 116.08 23.41 C 127.55 23.77 138.00 30.34 144.82 39.33 C 145.00 34.01 145.09 28.70 145.19 23.38 C 151.47 23.31 157.75 23.34 164.03 23.38 C 164.43 42.76 164.04 62.15 164.32 81.53 C 174.61 81.63 184.91 81.35 195.20 81.63 C 195.26 87.27 195.39 92.91 195.10 98.55 C 178.37 98.67 161.65 98.66 144.93 98.56 C 144.58 93.25 144.86 87.94 144.81 82.63 C 137.93 91.53 127.54 98.27 116.05 98.54 C 104.54 98.67 93.03 98.65 81.53 98.56 C 81.67 81.95 81.19 65.28 81.86 48.70 C 84.71 41.04 94.45 44.37 100.66 43.85 C 100.76 56.42 100.63 68.99 100.76 81.56 C 105.18 81.64 109.61 81.86 114.02 81.52 C 123.91 80.30 132.12 71.01 131.91 61.00 C 132.22 51.20 124.49 41.98 114.88 40.34 C 105.36 39.64 95.73 40.90 86.26 39.71 C 79.63 37.19 81.80 28.84 81.82 23.35 Z" />
<path fill="#ea3323" opacity="1.00" d=" M 58.35 43.86 C 64.60 44.35 74.27 41.08 77.22 48.69 C 77.97 57.73 77.54 66.89 77.49 75.97 C 76.98 83.93 73.24 91.96 66.41 96.38 C 52.15 105.67 31.03 101.70 20.78 88.28 C 25.61 84.48 30.43 80.64 35.52 77.18 C 39.03 80.95 43.53 84.69 49.04 84.14 C 54.91 83.62 58.24 77.41 58.23 72.03 C 58.45 62.64 58.21 53.25 58.35 43.86 Z" />
</g>
</svg>
