<?xml version="1.0" encoding="UTF-8" ?>
<!DOCTYPE svg PUBLIC "-//W3C//DTD SVG 1.1//EN" "http://www.w3.org/Graphics/SVG/1.1/DTD/svg11.dtd">
<svg width="512pt" height="512pt" viewBox="58.88 58.88 394.24 394.24" version="1.1" xmlns="http://www.w3.org/2000/svg">
<g id="#ffffffff">
</g>
<g id="#000000ff">
<path fill="#000000" opacity="1.00" d=" M 234.93 81.45 C 286.78 75.48 339.42 90.07 383.59 117.10 C 372.63 125.91 361.58 134.63 350.61 143.44 C 327.96 130.26 302.81 121.02 276.68 118.16 C 237.18 113.66 196.23 122.55 162.10 142.94 C 151.21 134.30 140.28 125.69 129.42 117.01 C 161.91 98.68 197.66 85.32 234.93 81.45 Z" />
<path fill="#000000" opacity="1.00" d=" M 117.22 130.51 C 125.94 141.32 134.50 152.26 143.12 163.15 C 117.07 206.46 109.77 260.94 124.77 309.33 C 129.22 324.01 135.62 338.06 143.34 351.30 C 134.62 362.35 125.79 373.32 116.96 384.28 C 97.97 352.90 84.75 317.64 81.25 280.99 C 75.77 228.51 91.22 175.79 117.22 130.51 Z" />
<path fill="#000000" opacity="1.00" d=" M 368.81 163.14 C 377.42 152.26 385.98 141.33 394.62 130.48 C 417.14 170.10 432.14 215.05 431.44 261.00 C 431.64 304.55 417.26 347.21 394.93 384.27 C 386.08 373.33 377.27 362.35 368.60 351.27 C 377.15 336.56 384.06 320.85 388.54 304.42 C 401.61 257.26 393.91 205.02 368.81 163.14 Z" />
<path fill="#000000" opacity="1.00" d=" M 156.59 199.60 C 164.94 186.29 180.70 179.01 196.02 177.83 C 211.78 176.71 227.52 180.92 241.67 187.68 C 241.85 198.14 241.72 208.60 241.73 219.05 C 228.20 206.99 208.45 200.23 190.84 206.80 C 183.37 209.21 177.45 218.06 181.33 225.67 C 187.02 236.05 199.62 238.26 209.01 244.00 C 224.45 252.64 241.24 263.89 245.87 282.08 C 248.14 296.04 247.36 311.83 238.49 323.52 C 230.14 334.35 216.22 339.16 203.00 340.24 C 184.88 341.29 166.83 335.67 151.26 326.64 C 151.23 314.51 151.22 302.37 151.26 290.23 C 161.59 303.00 176.76 311.87 193.15 313.70 C 199.40 314.29 206.31 313.50 211.21 309.22 C 219.78 301.68 220.22 286.31 210.80 279.21 C 195.27 267.20 174.51 262.89 161.05 247.98 C 149.19 235.10 147.02 214.39 156.59 199.60 Z" />
<path fill="#000000" opacity="1.00" d=" M 264.30 187.98 C 294.96 175.78 331.72 172.34 361.49 188.80 C 361.47 198.83 361.48 208.86 361.49 218.88 C 343.11 203.24 316.48 203.20 294.38 209.73 C 294.34 253.28 294.38 296.83 294.36 340.38 C 284.34 340.40 274.32 340.41 264.30 340.38 C 264.32 289.58 264.31 238.78 264.30 187.98 Z" />
<path fill="#000000" opacity="1.00" d=" M 129.41 394.99 C 140.28 386.31 151.21 377.71 162.10 369.06 C 205.43 394.98 259.81 402.25 308.17 387.30 C 323.02 382.83 337.17 376.28 350.60 368.57 C 361.58 377.37 372.63 386.07 383.58 394.91 C 352.65 413.54 318.08 426.75 282.02 430.53 C 228.89 436.62 175.35 421.21 129.41 394.99 Z" />
</g>
<g id="#e50114ff">
<path fill="#e50114" opacity="1.00" d=" M 322.43 240.72 C 336.09 235.82 350.80 250.97 345.44 264.48 C 341.62 277.26 323.46 281.43 314.52 271.48 C 304.79 262.26 309.48 244.12 322.43 240.72 Z" />
</g>
</svg>
