<?xml version="1.0" encoding="UTF-8" ?>
<!DOCTYPE svg PUBLIC "-//W3C//DTD SVG 1.1//EN" "http://www.w3.org/Graphics/SVG/1.1/DTD/svg11.dtd">
<svg width="512pt" height="512pt" viewBox="10.78 0 489.44 148.17" version="1.1" xmlns="http://www.w3.org/2000/svg">
<g id="#ffffffff">
</g>
<g id="#0c7c41ff">
<path fill="#0c7c41" opacity="1.00" d=" M 77.88 10.35 C 84.76 9.51 91.74 9.55 98.65 10.14 C 99.49 13.74 97.61 19.31 101.44 21.36 C 109.96 22.32 118.61 21.11 127.14 21.89 C 129.29 24.61 128.29 30.51 133.18 30.74 C 139.76 30.19 141.34 21.12 147.05 19.12 C 152.09 21.08 156.61 24.78 160.55 28.48 C 160.06 36.45 149.46 40.12 148.24 47.92 C 149.72 55.72 159.34 51.38 164.62 53.19 C 165.66 58.64 165.19 64.26 164.74 69.75 C 150.60 70.89 136.34 69.55 122.20 70.45 C 116.59 73.50 111.79 77.96 106.54 81.60 C 102.59 83.75 105.90 90.12 109.93 88.55 C 121.96 85.95 133.91 82.92 145.82 79.80 C 147.47 79.36 150.24 78.89 150.62 81.23 C 152.23 86.03 153.54 91.00 153.88 96.07 C 150.04 97.42 144.30 98.79 144.62 104.01 C 145.05 109.29 151.08 109.98 154.98 111.57 C 153.95 118.69 153.53 126.76 148.10 132.13 C 145.05 135.47 140.37 136.53 136.01 136.39 C 118.32 136.30 100.62 136.43 82.93 136.32 C 75.71 136.20 68.93 130.76 67.52 123.64 C 66.48 117.61 68.02 111.38 66.55 105.40 C 59.25 104.15 52.36 112.16 44.72 110.51 C 42.39 105.96 41.13 100.91 39.95 95.96 C 39.37 93.87 41.70 92.87 43.27 92.29 C 53.52 88.64 63.81 84.74 73.20 79.18 C 76.98 76.98 75.21 70.47 70.95 70.30 C 60.07 69.79 49.14 70.72 38.27 69.78 C 37.70 64.13 37.75 58.45 38.29 52.81 C 50.69 52.35 63.19 53.31 75.53 52.34 C 79.23 49.54 78.20 43.04 76.72 39.30 C 69.23 36.25 60.58 38.82 52.65 37.70 C 52.98 32.67 51.56 26.84 53.32 22.30 C 60.12 20.58 67.55 22.59 74.53 21.32 C 78.97 19.64 77.50 14.01 77.88 10.35 M 103.92 52.65 C 111.89 54.26 119.38 48.78 122.83 41.94 C 119.11 35.85 111.02 37.97 105.10 38.23 C 97.92 38.68 96.34 51.69 103.92 52.65 M 124.34 103.15 C 113.66 105.67 102.82 107.51 92.15 110.00 C 87.54 110.81 87.17 118.35 91.99 119.05 C 103.00 119.60 114.07 119.23 125.09 119.25 C 131.89 119.48 134.91 111.18 133.37 105.63 C 131.85 101.99 127.51 102.22 124.34 103.15 Z" />
<path fill="#0c7c41" opacity="1.00" d=" M 216.56 36.56 C 227.33 28.96 237.23 20.13 248.14 12.76 C 254.47 14.17 260.30 17.59 266.00 20.67 C 261.20 26.04 255.30 30.23 249.93 34.98 C 247.09 37.11 248.59 41.94 252.00 42.36 C 258.82 42.74 266.39 43.42 272.29 39.27 C 279.01 34.51 285.25 29.10 291.96 24.33 C 297.67 27.12 303.52 29.73 308.81 33.29 C 295.47 45.43 280.39 55.49 265.42 65.48 C 261.57 68.04 264.88 73.67 268.93 73.30 C 276.59 73.48 285.83 74.84 291.68 68.67 C 296.40 64.44 296.62 57.79 297.58 51.98 C 303.66 52.57 309.72 53.42 315.71 54.66 C 314.38 73.05 305.08 90.25 291.55 102.56 C 268.77 123.73 237.26 131.91 207.06 134.94 C 204.52 134.88 200.98 136.41 199.38 133.66 C 196.04 128.56 193.23 123.10 190.49 117.65 C 215.89 115.03 241.85 111.30 264.99 99.92 C 270.02 97.85 268.39 89.85 263.06 89.70 C 243.87 91.10 224.69 92.97 205.51 94.56 C 203.48 88.72 200.69 82.88 200.30 76.65 C 210.56 73.24 221.71 71.15 230.57 64.56 C 233.91 62.39 233.52 55.99 229.03 55.67 C 221.44 56.06 213.91 57.41 206.31 57.84 C 204.53 52.41 202.81 46.95 201.27 41.45 C 206.43 40.06 212.02 39.64 216.56 36.56 Z" />
<path fill="#0c7c41" opacity="1.00" d=" M 415.69 20.57 C 418.96 19.76 420.03 16.17 422.12 13.94 C 428.75 13.32 435.45 13.82 442.11 13.73 C 443.55 16.37 444.20 20.80 447.97 20.88 C 455.49 21.49 463.06 20.71 470.59 21.35 C 471.01 32.25 470.78 43.17 470.76 54.08 C 470.87 59.29 466.73 63.65 461.84 64.86 C 458.32 65.18 455.69 68.78 458.02 71.95 C 462.02 76.04 468.54 73.59 473.64 74.48 C 474.62 88.64 473.94 102.86 474.09 117.04 C 474.56 126.65 466.71 135.70 457.05 136.26 C 446.93 136.51 436.80 136.34 426.68 136.29 C 424.72 131.24 422.60 126.13 422.13 120.69 C 429.77 119.98 437.45 120.66 445.10 120.28 C 448.93 120.11 452.51 116.93 452.66 113.02 C 452.89 106.67 452.81 100.31 452.70 93.97 C 452.82 90.38 449.52 87.34 446.02 87.38 C 432.00 87.12 417.96 87.55 403.95 87.21 C 401.17 87.30 400.19 84.36 400.44 82.07 C 400.56 61.84 400.27 41.60 400.59 21.36 C 405.61 20.90 410.71 21.47 415.69 20.57 M 422.32 34.52 C 418.07 35.31 418.14 40.30 418.44 43.66 C 423.93 44.64 428.24 40.71 433.10 39.06 C 437.47 42.12 438.90 47.88 443.14 51.05 C 452.61 52.15 452.13 33.93 443.01 34.35 C 436.12 34.35 429.19 34.05 422.32 34.52 M 418.49 68.85 C 420.30 76.67 430.27 73.86 436.10 74.26 C 442.17 75.32 446.54 66.99 441.86 62.92 C 437.77 61.61 433.86 63.67 430.34 65.49 C 427.98 62.49 426.43 58.86 423.65 56.20 C 416.19 54.77 418.45 64.43 418.49 68.85 Z" />
<path fill="#0c7c41" opacity="1.00" d=" M 344.32 21.30 C 360.06 20.98 375.83 20.91 391.58 21.33 C 392.79 41.63 391.60 62.36 384.49 81.60 C 383.46 85.70 379.93 90.19 382.67 94.31 C 384.66 97.56 386.76 101.84 391.07 102.19 C 394.92 102.18 396.37 98.36 397.88 95.52 C 412.59 95.37 427.31 95.39 442.02 95.48 C 446.28 95.53 444.32 101.29 444.83 104.01 C 444.33 106.74 446.22 112.00 442.09 112.24 C 427.55 112.73 412.97 111.97 398.45 112.57 C 394.67 113.45 398.12 117.51 398.52 119.78 C 394.05 122.54 389.90 127.26 384.50 127.62 C 381.08 124.16 379.50 119.32 376.12 115.83 C 373.60 113.37 369.02 114.25 367.29 117.23 C 362.86 122.69 359.84 130.22 353.95 133.92 C 348.77 131.27 344.73 125.78 341.36 120.99 C 347.16 111.60 354.85 103.20 359.02 92.83 C 360.02 90.32 358.59 87.80 357.37 85.67 C 352.38 77.56 346.92 69.74 342.16 61.49 C 345.73 58.30 349.72 55.48 354.10 53.52 C 359.10 54.42 359.27 62.96 365.07 62.83 C 369.78 63.27 371.52 58.07 371.68 54.28 C 372.24 49.72 373.91 42.53 367.97 40.89 C 360.13 40.20 352.22 41.00 344.36 40.46 C 343.69 34.09 343.67 27.66 344.32 21.30 Z" />
</g>
</svg>
