<?xml version="1.0" encoding="UTF-8" ?>
<!DOCTYPE svg PUBLIC "-//W3C//DTD SVG 1.1//EN" "http://www.w3.org/Graphics/SVG/1.1/DTD/svg11.dtd">
<svg width="512pt" height="512pt" viewBox="0 0 512 512" version="1.1" xmlns="http://www.w3.org/2000/svg">
<g id="#ef7f19ff">
<path fill="#ef7f19" opacity="1.00" d=" M 0.00 0.00 L 512.00 0.00 L 512.00 512.00 L 0.00 512.00 L 0.00 0.00 M 253.41 71.41 C 215.09 87.99 177.89 113.08 157.73 150.70 C 134.32 194.38 140.83 252.78 174.68 289.31 C 196.81 312.99 229.46 327.13 262.01 324.79 C 281.13 324.18 300.26 319.38 316.93 309.86 C 348.38 292.21 370.03 257.35 369.69 221.00 C 370.13 207.34 367.69 193.25 371.97 179.98 C 374.72 170.51 378.06 160.96 377.71 150.96 C 377.69 138.80 370.71 126.44 359.17 121.78 C 338.50 112.53 315.58 118.50 293.94 117.38 C 299.00 105.26 307.77 93.74 306.73 79.95 C 306.59 71.70 299.58 64.77 291.60 63.65 C 278.38 61.18 265.37 66.30 253.41 71.41 M 140.45 347.67 C 124.88 349.96 111.30 361.63 106.55 376.59 C 100.87 393.09 106.90 412.69 120.74 423.26 C 134.98 434.81 156.76 435.39 171.59 424.59 C 177.01 421.24 182.32 415.09 179.69 408.29 C 177.40 399.81 165.47 397.20 159.67 403.68 C 150.55 412.65 133.51 408.55 129.45 396.45 C 124.16 384.55 135.02 369.51 148.04 371.17 C 156.85 370.01 161.27 381.02 170.03 379.48 C 178.50 378.62 183.47 367.62 178.12 360.86 C 169.01 350.26 154.13 345.56 140.45 347.67 M 295.42 347.63 C 274.74 350.35 257.96 370.11 259.30 391.05 C 259.18 412.66 278.47 432.06 300.03 432.24 C 311.98 432.98 324.20 428.08 332.34 419.33 C 338.37 412.58 333.24 400.14 324.03 400.06 C 319.57 399.29 316.05 402.27 312.85 404.87 C 305.11 411.07 292.56 409.18 286.79 401.18 C 280.55 393.03 282.35 379.81 291.16 374.21 C 295.56 370.89 301.38 370.68 306.62 371.58 C 313.15 372.71 316.87 380.53 324.03 379.53 C 332.69 379.23 338.38 368.03 333.02 361.04 C 323.96 350.41 309.10 345.62 295.42 347.63 M 211.35 365.33 C 196.19 368.55 184.26 383.40 185.19 399.02 C 184.68 416.87 201.19 433.00 219.00 432.25 C 237.56 432.99 254.29 415.46 252.74 396.94 C 252.84 376.53 231.01 360.04 211.35 365.33 M 365.38 365.48 C 348.73 369.34 336.88 387.10 340.12 403.96 C 342.65 420.25 358.34 433.55 374.99 432.24 C 395.33 432.37 411.91 410.86 406.88 391.18 C 403.38 373.00 383.27 360.36 365.38 365.48 Z" />
<path fill="#ef7f19" opacity="1.00" d=" M 215.30 385.24 C 225.65 381.81 236.19 393.72 231.58 403.64 C 227.93 413.59 212.54 414.92 207.40 405.62 C 202.52 398.31 206.79 387.36 215.30 385.24 Z" />
<path fill="#ef7f19" opacity="1.00" d=" M 369.33 385.47 C 375.93 383.01 384.18 386.85 386.37 393.59 C 390.19 401.76 382.94 412.28 374.01 411.89 C 366.48 412.64 359.60 405.46 360.14 398.02 C 360.00 392.43 364.09 387.17 369.33 385.47 Z" />
</g>
<g id="#353535ff">
<path fill="#353535" opacity="1.00" d=" M 253.41 71.41 C 265.37 66.30 278.38 61.18 291.60 63.65 C 299.58 64.77 306.59 71.70 306.73 79.95 C 307.77 93.74 299.00 105.26 293.94 117.38 C 315.58 118.50 338.50 112.53 359.17 121.78 C 370.71 126.44 377.69 138.80 377.71 150.96 C 378.06 160.96 374.72 170.51 371.97 179.98 C 367.69 193.25 370.13 207.34 369.69 221.00 C 370.03 257.35 348.38 292.21 316.93 309.86 C 300.26 319.38 281.13 324.18 262.01 324.79 C 229.46 327.13 196.81 312.99 174.68 289.31 C 140.83 252.78 134.32 194.38 157.73 150.70 C 177.89 113.08 215.09 87.99 253.41 71.41 M 257.27 96.23 C 227.54 109.83 199.20 129.68 182.14 158.17 C 165.09 186.30 164.72 222.87 178.73 252.28 C 186.22 267.55 198.37 280.51 213.28 288.74 C 243.30 305.74 282.75 303.41 311.17 284.15 C 327.65 272.80 339.43 254.80 343.12 235.13 C 346.76 217.95 343.23 200.24 346.15 183.00 C 347.66 172.79 352.64 163.31 353.30 152.97 C 353.35 146.38 346.57 143.00 340.93 142.11 C 321.52 138.83 301.79 144.88 282.38 141.37 C 276.37 140.21 270.58 136.38 268.29 130.53 C 263.22 115.76 274.49 102.93 278.55 89.63 C 270.98 89.68 264.15 93.49 257.27 96.23 Z" />
<path fill="#353535" opacity="1.00" d=" M 207.39 172.58 C 217.78 170.78 228.64 175.84 234.52 184.46 C 243.82 197.30 242.30 216.80 230.71 227.73 C 223.07 235.40 210.70 237.78 200.84 233.22 C 187.25 227.24 180.28 210.73 183.65 196.59 C 185.98 184.91 195.39 174.48 207.39 172.58 M 196.08 190.91 C 203.83 188.95 212.75 194.60 212.44 203.01 C 212.77 211.92 202.54 217.94 194.64 214.30 C 198.99 223.28 210.46 229.11 219.72 223.74 C 234.65 215.97 234.42 191.22 219.27 183.82 C 211.04 179.39 201.04 183.62 196.08 190.91 Z" />
<path fill="#353535" opacity="1.00" d=" M 298.39 172.56 C 308.52 170.87 319.08 175.71 324.97 184.01 C 334.42 196.60 333.31 215.94 322.12 227.12 C 314.54 235.21 301.84 237.92 291.71 233.26 C 277.77 227.15 270.74 210.01 274.66 195.60 C 277.29 184.25 286.64 174.31 298.39 172.56 M 286.89 190.87 C 294.65 188.98 303.49 194.63 303.23 203.00 C 303.53 211.86 293.34 217.96 285.46 214.29 C 289.70 223.07 300.79 228.98 310.00 223.99 C 325.11 216.66 325.48 192.14 310.76 184.19 C 302.52 179.24 291.97 183.34 286.89 190.87 Z" />
</g>
<g id="#ffffffff">
<path fill="#ffffff" opacity="1.00" d=" M 257.27 96.23 C 264.15 93.49 270.98 89.68 278.55 89.63 C 274.49 102.93 263.22 115.76 268.29 130.53 C 270.58 136.38 276.37 140.21 282.38 141.37 C 301.79 144.88 321.52 138.83 340.93 142.11 C 346.57 143.00 353.35 146.38 353.30 152.97 C 352.64 163.31 347.66 172.79 346.15 183.00 C 343.23 200.24 346.76 217.95 343.12 235.13 C 339.43 254.80 327.65 272.80 311.17 284.15 C 282.75 303.41 243.30 305.74 213.28 288.74 C 198.37 280.51 186.22 267.55 178.73 252.28 C 164.72 222.87 165.09 186.30 182.14 158.17 C 199.20 129.68 227.54 109.83 257.27 96.23 M 207.39 172.58 C 195.39 174.48 185.98 184.91 183.65 196.59 C 180.28 210.73 187.25 227.24 200.84 233.22 C 210.70 237.78 223.07 235.40 230.71 227.73 C 242.30 216.80 243.82 197.30 234.52 184.46 C 228.64 175.84 217.78 170.78 207.39 172.58 M 298.39 172.56 C 286.64 174.31 277.29 184.25 274.66 195.60 C 270.74 210.01 277.77 227.15 291.71 233.26 C 301.84 237.92 314.54 235.21 322.12 227.12 C 333.31 215.94 334.42 196.60 324.97 184.01 C 319.08 175.71 308.52 170.87 298.39 172.56 Z" />
<path fill="#ffffff" opacity="1.00" d=" M 196.08 190.91 C 201.04 183.62 211.04 179.39 219.27 183.82 C 234.42 191.22 234.65 215.97 219.72 223.74 C 210.46 229.11 198.99 223.28 194.64 214.30 C 202.54 217.94 212.77 211.92 212.44 203.01 C 212.75 194.60 203.83 188.95 196.08 190.91 Z" />
<path fill="#ffffff" opacity="1.00" d=" M 286.89 190.87 C 291.97 183.34 302.52 179.24 310.76 184.19 C 325.48 192.14 325.11 216.66 310.00 223.99 C 300.79 228.98 289.70 223.07 285.46 214.29 C 293.34 217.96 303.53 211.86 303.23 203.00 C 303.49 194.63 294.65 188.98 286.89 190.87 Z" />
<path fill="#ffffff" opacity="1.00" d=" M 140.45 347.67 C 154.13 345.56 169.01 350.26 178.12 360.86 C 183.47 367.62 178.50 378.62 170.03 379.48 C 161.27 381.02 156.85 370.01 148.04 371.17 C 135.02 369.51 124.16 384.55 129.45 396.45 C 133.51 408.55 150.55 412.65 159.67 403.68 C 165.47 397.20 177.40 399.81 179.69 408.29 C 182.32 415.09 177.01 421.24 171.59 424.59 C 156.76 435.39 134.98 434.81 120.74 423.26 C 106.90 412.69 100.87 393.09 106.55 376.59 C 111.30 361.63 124.88 349.96 140.45 347.67 Z" />
<path fill="#ffffff" opacity="1.00" d=" M 295.42 347.63 C 309.10 345.62 323.96 350.41 333.02 361.04 C 338.38 368.03 332.69 379.23 324.03 379.53 C 316.87 380.53 313.15 372.71 306.62 371.58 C 301.38 370.68 295.56 370.89 291.16 374.21 C 282.35 379.81 280.55 393.03 286.79 401.18 C 292.56 409.18 305.11 411.07 312.85 404.87 C 316.05 402.27 319.57 399.29 324.03 400.06 C 333.24 400.14 338.37 412.58 332.34 419.33 C 324.20 428.08 311.98 432.98 300.03 432.24 C 278.47 432.06 259.18 412.66 259.30 391.05 C 257.96 370.11 274.74 350.35 295.42 347.63 Z" />
<path fill="#ffffff" opacity="1.00" d=" M 211.35 365.33 C 231.01 360.04 252.84 376.53 252.74 396.94 C 254.29 415.46 237.56 432.99 219.00 432.25 C 201.19 433.00 184.68 416.87 185.19 399.02 C 184.26 383.40 196.19 368.55 211.35 365.33 M 215.30 385.24 C 206.79 387.36 202.52 398.31 207.40 405.62 C 212.54 414.92 227.93 413.59 231.58 403.64 C 236.19 393.72 225.65 381.81 215.30 385.24 Z" />
<path fill="#ffffff" opacity="1.00" d=" M 365.38 365.48 C 383.27 360.36 403.38 373.00 406.88 391.18 C 411.91 410.86 395.33 432.37 374.99 432.24 C 358.34 433.55 342.65 420.25 340.12 403.96 C 336.88 387.10 348.73 369.34 365.38 365.48 M 369.33 385.47 C 364.09 387.17 360.00 392.43 360.14 398.02 C 359.60 405.46 366.48 412.64 374.01 411.89 C 382.94 412.28 390.19 401.76 386.37 393.59 C 384.18 386.85 375.93 383.01 369.33 385.47 Z" />
</g>
</svg>
