<?xml version="1.0" encoding="UTF-8" ?>
<!DOCTYPE svg PUBLIC "-//W3C//DTD SVG 1.1//EN" "http://www.w3.org/Graphics/SVG/1.1/DTD/svg11.dtd">
<svg width="512pt" height="512pt" viewBox="0 0 512 512" version="1.1" xmlns="http://www.w3.org/2000/svg">
<g id="#f08300ff">
<path fill="#f08300" opacity="1.00" d=" M 0.00 0.00 L 512.00 0.00 L 512.00 512.00 L 0.00 512.00 L 0.00 0.00 M 236.84 91.84 C 225.07 102.88 208.78 108.71 192.67 106.37 C 190.21 119.54 197.51 133.73 209.73 139.27 C 215.84 141.91 213.23 149.47 213.79 154.64 C 200.33 156.32 186.83 157.83 173.32 159.13 C 164.46 159.78 154.72 157.53 149.03 150.18 C 128.47 158.70 121.57 184.39 126.51 204.47 C 131.50 220.58 153.05 228.92 167.16 219.15 C 180.73 208.14 199.31 212.04 215.32 208.51 C 216.41 214.73 216.41 221.07 216.52 227.37 C 194.25 229.83 171.97 232.25 149.72 234.84 C 138.59 236.73 126.15 232.75 119.66 223.17 C 105.71 229.46 96.68 244.72 97.61 259.98 C 97.11 275.67 109.88 291.30 125.95 291.81 C 133.98 292.56 141.11 288.35 148.14 285.16 C 159.35 280.01 171.62 277.95 183.68 275.83 C 239.83 266.92 297.59 267.56 353.39 278.62 C 366.40 281.12 379.61 286.05 392.99 283.27 C 403.39 281.75 412.18 273.34 413.73 262.88 C 416.40 246.63 411.25 226.31 395.25 218.75 C 391.24 231.09 376.26 234.35 364.92 231.83 C 344.00 227.32 322.64 225.60 301.31 224.42 C 301.62 218.43 301.19 212.36 302.54 206.47 C 316.81 208.59 331.80 207.58 345.54 212.52 C 353.91 218.03 363.56 223.54 374.00 221.74 C 385.65 220.25 395.20 208.88 393.55 197.01 C 391.46 180.04 382.62 164.31 371.09 151.91 C 366.56 147.36 361.05 141.52 354.02 142.62 C 347.73 144.92 343.50 150.45 338.65 154.79 C 328.18 154.51 317.79 153.04 307.35 152.22 C 307.65 148.02 308.24 143.86 308.74 139.68 C 314.74 137.92 322.42 135.86 324.32 129.03 C 325.21 119.14 316.76 111.80 309.59 106.39 C 292.32 94.24 271.68 87.80 251.03 84.32 C 245.06 83.31 240.77 88.22 236.84 91.84 M 305.96 289.65 C 268.33 286.87 230.51 289.05 193.01 292.59 C 185.19 289.53 179.15 279.57 169.56 282.57 C 156.01 288.14 144.77 298.26 135.10 309.09 C 127.17 318.45 120.39 330.36 121.84 343.06 C 122.56 349.14 129.15 351.86 134.51 352.54 C 143.77 371.95 146.86 393.58 154.44 413.61 C 157.13 419.40 162.78 423.17 168.61 425.33 C 185.45 431.42 205.83 426.14 217.42 412.44 C 218.74 411.17 219.81 409.28 221.69 408.85 C 238.73 406.99 255.92 407.26 273.04 407.63 C 283.70 408.06 295.33 408.87 303.77 416.23 C 312.75 425.00 326.13 425.93 338.00 426.40 C 352.11 426.70 368.08 416.39 367.52 400.97 C 368.24 393.93 360.95 387.62 364.78 380.85 C 368.06 372.77 370.35 364.34 373.27 356.13 C 373.87 353.41 377.03 353.18 379.14 352.21 C 387.82 349.24 396.14 341.69 396.39 331.98 C 395.82 325.06 390.90 319.48 386.72 314.27 C 372.87 299.03 356.13 285.29 336.36 278.72 C 324.03 274.74 317.87 292.27 305.96 289.65 Z" />
<path fill="#f08300" opacity="1.00" d=" M 210.32 334.87 C 239.22 330.90 269.01 328.52 297.82 334.33 C 296.60 343.19 295.11 352.02 293.57 360.83 C 266.94 360.07 240.18 359.94 213.66 362.50 C 212.97 353.25 212.90 343.84 210.32 334.87 Z" />
</g>
<g id="#ffffffff">
<path fill="#ffffff" opacity="1.00" d=" M 236.84 91.84 C 240.77 88.22 245.06 83.31 251.03 84.32 C 271.68 87.80 292.32 94.24 309.59 106.39 C 316.76 111.80 325.21 119.14 324.32 129.03 C 322.42 135.86 314.74 137.92 308.74 139.68 C 308.24 143.86 307.65 148.02 307.35 152.22 C 317.79 153.04 328.18 154.51 338.65 154.79 C 343.50 150.45 347.73 144.92 354.02 142.62 C 361.05 141.52 366.56 147.36 371.09 151.91 C 382.62 164.31 391.46 180.04 393.55 197.01 C 395.20 208.88 385.65 220.25 374.00 221.74 C 363.56 223.54 353.91 218.03 345.54 212.52 C 331.80 207.58 316.81 208.59 302.54 206.47 C 301.19 212.36 301.62 218.43 301.31 224.42 C 322.64 225.60 344.00 227.32 364.92 231.83 C 376.26 234.35 391.24 231.09 395.25 218.75 C 411.25 226.31 416.40 246.63 413.73 262.88 C 412.18 273.34 403.39 281.75 392.99 283.27 C 379.61 286.05 366.40 281.12 353.39 278.62 C 297.59 267.56 239.83 266.92 183.68 275.83 C 171.62 277.95 159.35 280.01 148.14 285.16 C 141.11 288.35 133.98 292.56 125.95 291.81 C 109.88 291.30 97.11 275.67 97.61 259.98 C 96.68 244.72 105.71 229.46 119.66 223.17 C 126.15 232.75 138.59 236.73 149.72 234.84 C 171.97 232.25 194.25 229.83 216.52 227.37 C 216.41 221.07 216.41 214.73 215.32 208.51 C 199.31 212.04 180.73 208.14 167.16 219.15 C 153.05 228.92 131.50 220.58 126.51 204.47 C 121.57 184.39 128.47 158.70 149.03 150.18 C 154.72 157.53 164.46 159.78 173.32 159.13 C 186.83 157.83 200.33 156.32 213.79 154.64 C 213.23 149.47 215.84 141.91 209.73 139.27 C 197.51 133.73 190.21 119.54 192.67 106.37 C 208.78 108.71 225.07 102.88 236.84 91.84 Z" />
<path fill="#ffffff" opacity="1.00" d=" M 305.96 289.65 C 317.87 292.27 324.03 274.74 336.36 278.72 C 356.13 285.29 372.87 299.03 386.72 314.27 C 390.90 319.48 395.82 325.06 396.39 331.98 C 396.14 341.69 387.82 349.24 379.14 352.21 C 377.03 353.18 373.87 353.41 373.27 356.13 C 370.35 364.34 368.06 372.77 364.78 380.85 C 360.95 387.62 368.24 393.93 367.52 400.97 C 368.08 416.39 352.11 426.70 338.00 426.40 C 326.13 425.93 312.75 425.00 303.77 416.23 C 295.33 408.87 283.70 408.06 273.04 407.63 C 255.92 407.26 238.73 406.99 221.69 408.85 C 219.81 409.28 218.74 411.17 217.42 412.44 C 205.83 426.14 185.45 431.42 168.61 425.33 C 162.78 423.17 157.13 419.40 154.44 413.61 C 146.86 393.58 143.77 371.95 134.51 352.54 C 129.15 351.86 122.56 349.14 121.84 343.06 C 120.39 330.36 127.17 318.45 135.10 309.09 C 144.77 298.26 156.01 288.14 169.56 282.57 C 179.15 279.57 185.19 289.53 193.01 292.59 C 230.51 289.05 268.33 286.87 305.96 289.65 M 210.32 334.87 C 212.90 343.84 212.97 353.25 213.66 362.50 C 240.18 359.94 266.94 360.07 293.57 360.83 C 295.11 352.02 296.60 343.19 297.82 334.33 C 269.01 328.52 239.22 330.90 210.32 334.87 Z" />
</g>
</svg>
