<?xml version="1.0" encoding="UTF-8" ?>
<!DOCTYPE svg PUBLIC "-//W3C//DTD SVG 1.1//EN" "http://www.w3.org/Graphics/SVG/1.1/DTD/svg11.dtd">
<svg width="512pt" height="512pt" viewBox="70.64 68.14 370.72 370.72" version="1.1" xmlns="http://www.w3.org/2000/svg">
<g id="#f4ebdcff">
</g>
<g id="#ff8731ff">
<path fill="#ff8731" opacity="1.00" d=" M 236.29 89.08 C 267.83 86.92 300.08 89.57 330.15 99.76 C 356.01 108.58 380.83 123.65 396.42 146.59 C 401.81 155.28 406.58 165.36 405.47 175.85 C 404.95 179.84 400.69 181.76 397.04 181.50 C 302.67 181.45 208.30 181.57 113.93 181.44 C 107.66 181.94 105.17 175.09 106.45 169.94 C 109.33 149.77 123.82 133.46 139.49 121.50 C 167.25 100.66 202.11 91.60 236.29 89.08 Z" />
<path fill="#ff8731" opacity="1.00" d=" M 110.35 365.50 C 115.43 364.02 120.79 364.80 126.00 364.65 C 216.01 364.68 306.02 364.70 396.03 364.65 C 399.34 364.75 403.64 365.14 405.14 368.64 C 406.80 373.83 404.43 379.24 401.66 383.59 C 394.76 394.34 383.33 401.18 371.63 405.65 C 350.75 413.43 328.37 415.71 306.28 417.04 C 273.32 418.97 240.23 418.90 207.26 417.18 C 182.22 415.52 156.44 413.30 133.36 402.63 C 122.23 397.26 111.41 388.94 107.10 376.95 C 105.77 373.06 105.54 367.00 110.35 365.50 Z" />
</g>
<g id="#d72301ff">
<path fill="#d72301" opacity="1.00" d=" M 264.48 202.47 C 272.92 191.70 288.98 189.62 301.04 194.94 C 304.80 196.51 308.66 199.55 308.74 203.99 C 309.59 209.55 303.57 215.17 298.13 213.01 C 293.88 211.47 289.31 209.12 284.73 210.87 C 274.94 214.62 274.03 229.33 280.69 236.31 C 283.98 239.61 292.33 241.39 293.19 235.12 C 289.71 234.24 285.32 234.24 283.11 230.92 C 279.87 226.41 282.56 219.16 288.14 218.21 C 295.46 216.72 305.09 217.59 309.17 224.78 C 313.09 232.84 310.77 243.29 304.62 249.62 C 292.40 261.44 269.50 257.26 261.76 242.23 C 255.51 229.92 255.99 213.62 264.48 202.47 Z" />
<path fill="#d72301" opacity="1.00" d=" M 106.41 201.99 C 106.35 196.45 111.75 192.64 116.94 192.76 C 125.46 192.83 135.04 191.34 142.47 196.52 C 150.51 202.36 150.57 214.83 144.53 222.15 C 152.77 228.44 154.17 241.44 147.16 249.14 C 142.52 254.70 134.92 256.28 128.00 255.88 C 122.29 255.50 116.05 256.97 110.77 254.23 C 107.15 252.27 106.12 247.86 106.28 244.05 C 106.39 230.03 106.13 216.01 106.41 201.99 M 123.42 207.28 C 123.29 210.80 123.30 214.34 123.46 217.87 C 127.45 218.49 132.92 217.11 132.29 211.98 C 132.22 207.19 126.98 206.97 123.42 207.28 M 123.43 241.36 C 127.84 242.18 133.93 240.61 133.37 234.98 C 133.42 229.75 127.49 229.21 123.56 229.46 C 123.30 233.42 123.29 237.39 123.43 241.36 Z" />
<path fill="#d72301" opacity="1.00" d=" M 161.43 193.49 C 167.09 190.37 174.71 194.57 175.13 201.01 C 175.97 212.53 174.91 224.13 175.61 235.66 C 175.97 240.51 183.88 240.38 184.42 235.68 C 185.17 224.14 184.12 212.53 184.86 201.00 C 185.31 194.98 192.12 190.66 197.71 193.16 C 202.13 194.66 203.97 199.60 203.68 203.94 C 203.43 215.82 204.09 227.74 203.34 239.59 C 199.52 261.72 161.41 262.21 156.71 240.38 C 155.69 228.63 156.56 216.77 156.24 204.98 C 155.94 200.64 156.99 195.38 161.43 193.49 Z" />
<path fill="#d72301" opacity="1.00" d=" M 209.98 201.92 C 210.03 196.67 214.91 192.84 219.93 192.81 C 230.18 192.45 242.55 191.47 250.03 199.99 C 257.21 208.26 254.71 221.07 247.43 228.43 C 247.71 235.71 257.36 240.10 256.53 248.03 C 256.47 254.89 247.50 258.57 242.16 254.79 C 235.42 250.17 233.60 241.64 231.67 234.23 C 231.04 234.23 229.76 234.23 229.12 234.23 C 228.50 239.56 229.37 245.04 228.17 250.30 C 226.24 257.02 216.08 258.41 212.06 252.94 C 209.46 249.55 209.87 245.01 209.79 240.99 C 209.98 227.97 209.54 214.93 209.98 201.92 M 228.33 219.72 C 231.71 219.85 236.71 219.40 236.75 214.93 C 237.79 210.37 232.92 207.52 228.93 208.66 C 226.96 212.03 228.00 216.08 228.33 219.72 Z" />
<path fill="#d72301" opacity="1.00" d=" M 315.67 201.95 C 315.71 196.07 321.51 192.38 326.95 192.72 C 334.17 192.94 341.54 191.95 348.66 193.38 C 355.72 195.05 356.63 206.04 350.30 209.24 C 345.28 211.51 339.58 210.13 334.26 210.67 C 334.18 212.55 334.21 214.44 334.34 216.33 C 339.24 216.85 345.16 215.15 349.16 218.86 C 352.98 222.46 351.42 229.75 346.33 231.25 C 342.36 232.05 338.25 231.63 334.23 232.16 C 334.20 234.01 334.19 235.87 334.23 237.73 C 339.38 238.37 344.80 237.42 349.76 239.12 C 356.75 242.01 355.81 253.68 348.40 255.34 C 340.98 256.39 333.41 255.73 325.93 255.78 C 320.55 256.03 315.38 251.61 315.63 246.05 C 315.55 231.35 315.42 216.64 315.67 201.95 Z" />
<path fill="#d72301" opacity="1.00" d=" M 359.01 201.96 C 359.01 196.66 363.88 192.82 368.93 192.80 C 378.79 192.53 390.36 191.46 398.06 198.95 C 406.35 207.07 404.30 221.63 395.69 228.75 C 397.98 234.82 403.47 239.08 405.46 245.23 C 407.53 252.46 398.89 258.78 392.42 255.50 C 384.74 251.33 382.67 242.04 380.69 234.24 C 380.07 234.22 378.85 234.16 378.23 234.13 C 377.55 239.50 378.41 245.02 377.16 250.30 C 375.24 257.06 365.12 258.34 361.07 252.92 C 358.53 249.52 358.89 245.01 358.78 241.00 C 358.99 227.99 358.50 214.95 359.01 201.96 M 377.34 219.72 C 381.17 220.16 386.34 218.87 385.87 213.99 C 386.25 209.32 381.07 208.37 377.50 208.34 C 376.83 212.10 376.68 215.95 377.34 219.72 Z" />
<path fill="#d72301" opacity="1.00" d=" M 106.84 274.98 C 107.82 262.69 124.64 257.48 132.99 266.01 C 140.06 272.67 136.59 282.99 138.64 291.40 C 148.35 284.85 151.22 272.35 159.82 264.80 C 169.34 257.02 185.67 265.77 184.29 278.03 C 182.71 289.66 172.61 297.05 165.18 305.12 C 170.14 315.54 180.03 322.47 185.70 332.37 C 191.66 344.07 178.69 358.37 166.41 354.37 C 155.13 350.51 149.49 338.73 143.94 329.05 C 142.28 326.90 141.80 321.96 138.43 322.45 C 136.36 330.87 140.00 340.39 135.13 348.16 C 130.89 355.48 120.26 356.78 113.41 352.58 C 107.93 349.08 106.18 342.13 106.49 336.00 C 106.77 315.66 106.06 295.28 106.84 274.98 Z" />
<path fill="#d72301" opacity="1.00" d=" M 205.36 262.55 C 211.45 260.72 218.58 262.34 222.81 267.21 C 226.64 271.49 227.17 277.51 227.21 283.00 C 227.17 300.34 227.19 317.68 227.19 335.02 C 227.12 340.39 226.26 346.29 222.26 350.25 C 217.55 355.33 209.58 356.05 203.39 353.61 C 196.67 350.65 193.52 343.02 193.75 336.02 C 193.82 317.00 193.64 297.98 193.83 278.96 C 193.84 271.80 198.27 264.57 205.36 262.55 Z" />
<path fill="#d72301" opacity="1.00" d=" M 245.30 264.26 C 252.56 259.50 263.13 261.96 267.52 269.46 C 273.84 279.82 278.68 291.02 284.56 301.63 C 285.21 301.62 286.52 301.59 287.17 301.57 C 287.89 292.39 286.79 283.14 287.82 273.98 C 288.92 265.66 297.92 260.20 305.90 262.16 C 313.25 263.33 318.06 270.78 317.80 277.92 C 317.90 298.30 317.97 318.69 317.76 339.07 C 317.91 346.75 312.15 354.63 304.06 354.82 C 297.07 356.02 290.61 351.59 287.39 345.63 C 281.85 335.68 276.91 325.40 271.55 315.35 C 270.89 315.36 269.57 315.38 268.90 315.40 C 267.92 325.18 269.79 335.19 267.77 344.85 C 265.17 355.11 251.04 358.03 243.47 351.50 C 239.69 348.18 238.20 342.96 238.31 338.06 C 238.33 318.35 238.31 298.65 238.31 278.94 C 238.19 273.34 240.37 267.32 245.30 264.26 Z" />
<path fill="#d72301" opacity="1.00" d=" M 360.41 262.70 C 372.45 260.78 385.77 262.01 396.11 268.93 C 402.05 272.62 404.28 281.26 400.13 287.08 C 396.43 293.00 388.08 294.26 382.30 290.72 C 373.87 285.74 361.57 287.67 356.71 296.68 C 350.96 307.35 353.12 325.02 366.14 329.11 C 370.35 330.41 378.13 330.93 378.53 324.92 C 374.70 321.90 368.79 323.48 365.25 319.73 C 358.40 313.95 361.69 301.25 370.59 299.67 C 381.47 297.53 395.86 298.21 402.46 308.57 C 409.73 322.18 403.97 340.93 391.00 349.00 C 372.28 360.30 344.64 355.11 332.76 336.25 C 323.49 321.39 323.26 301.86 329.86 285.93 C 335.16 273.54 347.25 264.87 360.41 262.70 Z" />
</g>
</svg>
