<?xml version="1.0" encoding="UTF-8" ?>
<!DOCTYPE svg PUBLIC "-//W3C//DTD SVG 1.1//EN" "http://www.w3.org/Graphics/SVG/1.1/DTD/svg11.dtd">
<svg width="512pt" height="512pt" viewBox="94.474 62.97 452.633 426.094" version="1.1" xmlns="http://www.w3.org/2000/svg">
<g id="#a42337ff">
<path fill="#a42337" opacity="1.00" d=" M 112.22 100.01 C 111.33 93.01 118.26 86.58 124.96 86.44 C 242.98 86.47 361.01 86.45 479.04 86.45 C 485.73 86.63 492.67 92.99 491.78 100.00 C 491.64 155.35 491.79 210.70 491.67 266.04 C 490.37 279.18 486.98 294.52 474.33 301.36 C 466.11 305.84 456.07 304.82 447.11 303.82 C 436.21 299.58 430.74 287.78 428.20 277.07 C 422.94 258.24 428.24 238.92 429.88 220.02 C 430.57 205.23 433.82 190.73 434.40 175.92 C 435.43 168.43 438.94 158.66 432.03 152.97 C 429.09 149.38 424.13 149.99 420.00 149.81 C 338.65 149.95 257.29 149.67 175.95 149.95 C 166.41 150.02 161.95 161.11 164.99 169.17 C 174.07 247.76 182.31 326.44 191.80 405.00 C 191.81 409.47 195.43 413.98 199.99 414.34 C 266.98 414.29 334.02 414.35 401.01 414.31 C 406.59 412.92 409.99 406.55 409.74 401.02 C 409.69 391.89 412.02 383.07 412.37 373.98 C 414.52 364.14 413.62 353.90 416.56 344.17 C 428.18 352.62 442.97 355.09 457.00 355.71 C 468.86 355.61 480.29 352.28 491.71 349.55 C 491.62 384.39 491.67 419.24 491.63 454.08 C 491.37 460.90 484.75 466.42 478.03 466.11 C 361.01 466.18 243.99 466.12 126.98 466.14 C 119.94 466.79 112.64 461.33 112.37 454.08 C 112.27 336.06 112.33 218.03 112.22 100.01 M 199.65 415.29 C 267.14 415.91 334.68 415.60 402.19 415.45 C 396.17 414.45 390.06 414.73 384.00 414.71 C 328.00 414.71 272.00 414.72 216.00 414.71 C 210.55 414.73 205.06 414.43 199.65 415.29 Z" />
<path fill="#a42337" opacity="1.00" d=" M 230.31 200.40 C 275.86 199.85 321.46 200.35 367.02 200.15 C 372.24 199.79 377.70 203.08 379.53 208.02 C 380.14 212.64 380.02 217.42 379.00 221.97 C 373.95 266.66 369.05 311.34 363.86 356.02 C 362.43 361.52 356.65 365.56 351.03 365.55 C 317.35 365.53 283.67 365.52 249.99 365.56 C 244.35 365.94 239.42 361.89 236.81 357.19 C 230.88 308.84 226.20 260.27 220.28 211.93 C 220.42 206.44 225.04 201.54 230.31 200.40 Z" />
</g>
<g id="#fffffeff">
<path fill="#fffffe" opacity="1.00" d=" M 71.34 36.66 C 75.54 36.18 79.78 36.36 84.00 36.36 C 229.00 36.36 374.00 36.36 519.00 36.36 C 524.11 36.39 529.24 36.14 534.33 36.71 C 528.60 37.65 522.77 37.28 517.00 37.33 C 373.33 37.33 229.66 37.32 86.00 37.33 C 81.11 37.29 76.16 37.69 71.34 36.66 Z" />
<path fill="#fffffe" opacity="1.00" d=" M 68.18 38.17 C 71.63 36.92 75.41 37.76 78.99 37.67 C 227.66 37.68 376.34 37.67 525.01 37.67 C 528.86 37.83 533.01 36.82 536.64 38.52 C 539.41 40.82 542.02 44.13 541.83 47.94 C 541.84 196.62 541.79 345.31 541.74 494.00 C 541.65 498.36 542.06 502.76 541.42 507.10 C 539.81 512.36 534.66 516.54 529.02 516.22 C 380.35 516.23 231.68 516.22 83.00 516.23 C 79.05 516.15 75.04 516.57 71.15 515.76 C 65.69 514.23 62.31 508.51 62.25 503.05 C 62.22 351.35 62.16 199.64 62.16 47.94 C 61.94 43.83 65.07 40.42 68.18 38.17 M 112.22 100.01 C 112.33 218.03 112.27 336.06 112.37 454.08 C 112.64 461.33 119.94 466.79 126.98 466.14 C 243.99 466.12 361.01 466.18 478.03 466.11 C 484.75 466.42 491.37 460.90 491.63 454.08 C 491.67 419.24 491.62 384.39 491.71 349.55 C 480.29 352.28 468.86 355.61 457.00 355.71 C 442.97 355.09 428.18 352.62 416.56 344.17 C 413.62 353.90 414.52 364.14 412.37 373.98 C 412.02 383.07 409.69 391.89 409.74 401.02 C 409.99 406.55 406.59 412.92 401.01 414.31 C 334.02 414.35 266.98 414.29 199.99 414.34 C 195.43 413.98 191.81 409.47 191.80 405.00 C 182.31 326.44 174.07 247.76 164.99 169.17 C 161.95 161.11 166.41 150.02 175.95 149.95 C 257.29 149.67 338.65 149.95 420.00 149.81 C 424.13 149.99 429.09 149.38 432.03 152.97 C 438.94 158.66 435.43 168.43 434.40 175.92 C 433.82 190.73 430.57 205.23 429.88 220.02 C 428.24 238.92 422.94 258.24 428.20 277.07 C 430.74 287.78 436.21 299.58 447.11 303.82 C 456.07 304.82 466.11 305.84 474.33 301.36 C 486.98 294.52 490.37 279.18 491.67 266.04 C 491.79 210.70 491.64 155.35 491.78 100.00 C 492.67 92.99 485.73 86.63 479.04 86.45 C 361.01 86.45 242.98 86.47 124.96 86.44 C 118.26 86.58 111.33 93.01 112.22 100.01 M 230.31 200.40 C 225.04 201.54 220.42 206.44 220.28 211.93 C 226.20 260.27 230.88 308.84 236.81 357.19 C 239.42 361.89 244.35 365.94 249.99 365.56 C 283.67 365.52 317.35 365.53 351.03 365.55 C 356.65 365.56 362.43 361.52 363.86 356.02 C 369.05 311.34 373.95 266.66 379.00 221.97 C 380.02 217.42 380.14 212.64 379.53 208.02 C 377.70 203.08 372.24 199.79 367.02 200.15 C 321.46 200.35 275.86 199.85 230.31 200.40 Z" />
<path fill="#fffffe" opacity="1.00" d=" M 199.65 415.29 C 205.06 414.43 210.55 414.73 216.00 414.71 C 272.00 414.72 328.00 414.71 384.00 414.71 C 390.06 414.73 396.17 414.45 402.19 415.45 C 334.68 415.60 267.14 415.91 199.65 415.29 Z" />
</g>
</svg>
