<?xml version="1.0" encoding="UTF-8" ?>
<!DOCTYPE svg PUBLIC "-//W3C//DTD SVG 1.1//EN" "http://www.w3.org/Graphics/SVG/1.1/DTD/svg11.dtd">
<svg width="512pt" height="512pt" viewBox="45 44.5 420 420" version="1.1" xmlns="http://www.w3.org/2000/svg">
<g id="#ffffffff">
<path fill="#ffffff" opacity="1.00" d=" M 0.00 0.00 L 512.00 0.00 L 512.00 512.00 L 0.00 512.00 L 0.00 0.00 M 129.96 116.98 C 99.22 145.38 78.40 184.51 72.59 225.98 C 62.40 286.96 85.35 352.32 131.36 393.67 C 168.64 427.73 220.59 446.12 270.92 440.56 C 270.27 433.70 266.47 427.77 263.15 421.92 C 255.16 408.43 243.53 397.33 230.20 389.18 C 230.54 385.66 231.54 382.26 232.71 378.94 C 240.37 382.02 247.40 386.70 255.57 388.47 C 272.89 393.49 294.23 391.00 306.06 376.08 C 305.50 375.09 304.87 374.14 304.11 373.32 C 299.74 375.82 296.03 379.41 291.30 381.31 C 284.27 384.42 276.40 383.59 268.93 383.39 C 252.47 381.18 238.27 371.51 225.92 360.97 C 228.75 357.27 231.83 353.74 234.19 349.70 C 228.88 345.59 222.00 344.39 216.59 340.42 C 198.11 327.72 187.79 305.31 186.36 283.38 C 189.77 283.45 193.19 283.56 196.60 283.42 C 195.30 281.58 193.81 279.91 192.23 278.32 C 194.34 275.35 196.96 272.79 200.01 270.81 C 202.92 275.86 205.99 283.16 213.01 282.70 C 218.33 283.54 222.23 279.26 224.97 275.31 C 226.26 275.94 227.56 276.58 228.85 277.24 C 231.57 267.33 220.56 258.73 211.24 260.49 C 211.29 259.96 211.40 258.89 211.46 258.36 C 237.64 244.03 267.14 235.77 297.00 235.47 C 304.50 235.74 312.57 235.59 319.32 239.33 C 327.47 266.20 321.54 298.05 301.04 318.00 C 305.80 327.77 316.89 332.19 326.92 334.29 C 330.25 335.24 334.94 332.98 337.35 335.89 C 337.60 346.69 334.25 357.23 334.18 368.03 C 331.85 380.29 331.43 392.75 328.79 404.95 C 328.80 412.44 324.23 419.46 326.09 426.98 C 384.17 402.92 427.42 347.06 436.74 284.97 C 446.64 230.08 428.92 171.50 392.20 129.80 C 355.04 87.35 297.35 63.46 241.07 68.21 C 199.90 71.10 159.99 88.71 129.96 116.98 M 281.10 243.74 C 273.84 245.81 268.14 250.99 263.40 256.65 C 263.42 258.28 263.42 259.91 263.41 261.54 C 269.74 256.84 276.22 251.95 283.88 249.66 C 290.88 247.78 298.18 248.97 305.32 248.64 C 306.34 246.20 307.36 243.76 308.38 241.33 C 299.24 241.27 290.00 241.49 281.10 243.74 M 300.17 263.47 C 301.99 263.53 303.82 263.59 305.65 263.64 C 305.59 261.82 305.53 260.00 305.47 258.18 C 301.96 257.74 299.93 260.04 300.17 263.47 M 235.18 310.43 C 241.09 316.39 249.61 319.75 258.01 318.46 C 256.76 311.92 247.65 312.94 243.51 308.39 C 242.84 298.54 244.79 288.43 242.01 278.81 C 240.27 289.47 237.24 299.84 235.18 310.43 M 277.87 323.07 C 269.85 323.68 263.99 330.45 256.00 331.13 C 252.23 331.21 249.07 333.22 246.41 335.71 C 246.44 338.39 246.47 341.06 246.52 343.74 C 249.58 343.53 252.93 344.09 255.75 342.57 C 265.26 337.23 273.86 329.54 284.83 327.32 C 282.29 340.59 267.02 344.37 255.37 343.50 C 254.41 344.57 253.40 345.59 252.36 346.59 C 252.43 348.17 252.43 349.77 252.38 351.36 C 257.16 355.85 263.97 354.60 269.94 354.50 C 277.67 353.69 283.61 347.48 287.24 341.02 C 290.54 334.40 291.16 326.84 293.98 320.03 C 288.81 322.10 283.34 322.58 277.87 323.07 Z" />
<path fill="#ffffff" opacity="1.00" d=" M 167.13 128.13 C 194.51 98.66 238.64 87.13 277.29 96.87 C 295.31 102.56 311.41 114.17 322.60 129.40 C 338.74 150.85 346.20 177.26 351.90 203.10 C 358.43 206.48 366.29 209.04 370.31 215.65 C 371.37 221.70 369.10 227.73 367.23 233.39 C 364.49 237.79 358.92 236.62 354.79 235.35 C 361.45 247.68 367.98 260.68 368.47 274.99 C 368.43 283.02 369.02 291.17 367.01 299.04 C 363.91 290.44 367.07 281.08 364.45 272.38 C 361.10 258.53 356.07 244.41 346.08 233.92 C 341.52 228.81 334.26 228.55 328.06 226.92 C 315.46 225.87 302.83 223.24 290.15 224.98 C 281.06 226.66 271.72 226.07 262.78 228.63 C 226.43 234.40 191.50 253.83 170.90 284.85 C 166.85 290.81 163.88 297.40 160.25 303.60 C 153.76 304.76 146.66 302.40 144.24 295.78 C 140.67 281.56 147.88 267.83 155.01 255.99 C 161.56 244.64 170.93 235.32 180.63 226.65 C 209.49 202.76 247.01 191.38 284.00 189.59 C 287.27 189.69 290.56 189.40 293.66 188.27 C 289.95 185.60 285.65 183.78 281.00 184.32 C 231.23 182.56 178.07 201.67 147.53 242.50 C 146.56 242.57 145.59 242.64 144.63 242.72 C 140.82 227.11 137.75 211.10 138.43 194.96 C 139.73 170.16 150.66 146.53 167.13 128.13 Z" />
</g>
<g id="#ec6900ff">
<path fill="#ec6900" opacity="1.00" d=" M 129.96 116.98 C 159.99 88.71 199.90 71.10 241.07 68.21 C 297.35 63.46 355.04 87.35 392.20 129.80 C 428.92 171.50 446.64 230.08 436.74 284.97 C 427.42 347.06 384.17 402.92 326.09 426.98 C 324.23 419.46 328.80 412.44 328.79 404.95 C 331.43 392.75 331.85 380.29 334.18 368.03 C 334.25 357.23 337.60 346.69 337.35 335.89 C 334.94 332.98 330.25 335.24 326.92 334.29 C 316.89 332.19 305.80 327.77 301.04 318.00 C 321.54 298.05 327.47 266.20 319.32 239.33 C 312.57 235.59 304.50 235.74 297.00 235.47 C 267.14 235.77 237.64 244.03 211.46 258.36 C 211.40 258.89 211.29 259.96 211.24 260.49 C 220.56 258.73 231.57 267.33 228.85 277.24 C 227.56 276.58 226.26 275.94 224.97 275.31 C 222.23 279.26 218.33 283.54 213.01 282.70 C 205.99 283.16 202.92 275.86 200.01 270.81 C 196.96 272.79 194.34 275.35 192.23 278.32 C 193.81 279.91 195.30 281.58 196.60 283.42 C 193.19 283.56 189.77 283.45 186.36 283.38 C 187.79 305.31 198.11 327.72 216.59 340.42 C 222.00 344.39 228.88 345.59 234.19 349.70 C 231.83 353.74 228.75 357.27 225.92 360.97 C 238.27 371.51 252.47 381.18 268.93 383.39 C 276.40 383.59 284.27 384.42 291.30 381.31 C 296.03 379.41 299.74 375.82 304.11 373.32 C 304.87 374.14 305.50 375.09 306.06 376.08 C 294.23 391.00 272.89 393.49 255.57 388.47 C 247.40 386.70 240.37 382.02 232.71 378.94 C 231.54 382.26 230.54 385.66 230.20 389.18 C 243.53 397.33 255.16 408.43 263.15 421.92 C 266.47 427.77 270.27 433.70 270.92 440.56 C 220.59 446.12 168.64 427.73 131.36 393.67 C 85.35 352.32 62.40 286.96 72.59 225.98 C 78.40 184.51 99.22 145.38 129.96 116.98 M 167.13 128.13 C 150.66 146.53 139.73 170.16 138.43 194.96 C 137.75 211.10 140.82 227.11 144.63 242.72 C 145.59 242.64 146.56 242.57 147.53 242.50 C 178.07 201.67 231.23 182.56 281.00 184.32 C 285.65 183.78 289.95 185.60 293.66 188.27 C 290.56 189.40 287.27 189.69 284.00 189.59 C 247.01 191.38 209.49 202.76 180.63 226.65 C 170.93 235.32 161.56 244.64 155.01 255.99 C 147.88 267.83 140.67 281.56 144.24 295.78 C 146.66 302.40 153.76 304.76 160.25 303.60 C 163.88 297.40 166.85 290.81 170.90 284.85 C 191.50 253.83 226.43 234.40 262.78 228.63 C 271.72 226.07 281.06 226.66 290.15 224.98 C 302.83 223.24 315.46 225.87 328.06 226.92 C 334.26 228.55 341.52 228.81 346.08 233.92 C 356.07 244.41 361.10 258.53 364.45 272.38 C 367.07 281.08 363.91 290.44 367.01 299.04 C 369.02 291.17 368.43 283.02 368.47 274.99 C 367.98 260.68 361.45 247.68 354.79 235.35 C 358.92 236.62 364.49 237.79 367.23 233.39 C 369.10 227.73 371.37 221.70 370.31 215.65 C 366.29 209.04 358.43 206.48 351.90 203.10 C 346.20 177.26 338.74 150.85 322.60 129.40 C 311.41 114.17 295.31 102.56 277.29 96.87 C 238.64 87.13 194.51 98.66 167.13 128.13 Z" />
<path fill="#ec6900" opacity="1.00" d=" M 281.10 243.74 C 290.00 241.49 299.24 241.27 308.38 241.33 C 307.36 243.76 306.34 246.20 305.32 248.64 C 298.18 248.97 290.88 247.78 283.88 249.66 C 276.22 251.95 269.74 256.84 263.41 261.54 C 263.42 259.91 263.42 258.28 263.40 256.65 C 268.14 250.99 273.84 245.81 281.10 243.74 Z" />
<path fill="#ec6900" opacity="1.00" d=" M 300.17 263.47 C 299.93 260.04 301.96 257.74 305.47 258.18 C 305.53 260.00 305.59 261.82 305.65 263.64 C 303.82 263.59 301.99 263.53 300.17 263.47 Z" />
<path fill="#ec6900" opacity="1.00" d=" M 235.18 310.43 C 237.24 299.84 240.27 289.47 242.01 278.81 C 244.79 288.43 242.84 298.54 243.51 308.39 C 247.65 312.94 256.76 311.92 258.01 318.46 C 249.61 319.75 241.09 316.39 235.18 310.43 Z" />
<path fill="#ec6900" opacity="1.00" d=" M 277.87 323.07 C 283.34 322.58 288.81 322.10 293.98 320.03 C 291.16 326.84 290.54 334.40 287.24 341.02 C 283.61 347.48 277.67 353.69 269.94 354.50 C 263.97 354.60 257.16 355.85 252.38 351.36 C 252.43 349.77 252.43 348.17 252.36 346.59 C 253.40 345.59 254.41 344.57 255.37 343.50 C 267.02 344.37 282.29 340.59 284.83 327.32 C 273.86 329.54 265.26 337.23 255.75 342.57 C 252.93 344.09 249.58 343.53 246.52 343.74 C 246.47 341.06 246.44 338.39 246.41 335.71 C 249.07 333.22 252.23 331.21 256.00 331.13 C 263.99 330.45 269.85 323.68 277.87 323.07 Z" />
</g>
</svg>
