<?xml version="1.0" encoding="UTF-8" ?>
<!DOCTYPE svg PUBLIC "-//W3C//DTD SVG 1.1//EN" "http://www.w3.org/Graphics/SVG/1.1/DTD/svg11.dtd">
<svg width="512pt" height="512pt" viewBox="0 0 512 512" version="1.1" xmlns="http://www.w3.org/2000/svg">
<g id="#43a536fe">
<path fill="#43a536" opacity="1.00" d=" M 77.41 150.39 C 92.77 133.70 118.18 127.69 139.54 135.09 C 162.43 141.49 179.27 161.99 185.18 184.51 C 190.08 201.93 187.16 220.19 187.68 238.00 C 187.33 262.49 188.31 287.06 187.02 311.50 C 177.89 312.29 168.99 309.96 159.90 309.66 C 132.24 305.69 104.37 293.56 87.02 270.90 C 69.70 248.93 63.76 220.37 63.00 192.99 C 53.77 181.02 41.01 172.12 31.40 160.45 C 43.86 159.71 56.31 162.71 68.72 161.44 C 72.06 158.14 73.96 153.63 77.41 150.39 M 100.96 168.49 C 93.22 172.76 90.86 183.77 95.94 190.95 C 100.06 195.25 106.65 197.41 112.42 195.44 C 119.64 192.20 124.47 182.36 119.88 175.21 C 116.74 167.90 107.91 166.12 100.96 168.49 Z" />
<path fill="#43a536" opacity="1.00" d=" M 276.22 142.03 C 275.36 134.46 285.47 129.17 291.47 133.53 C 295.99 135.86 297.19 141.92 295.24 146.33 C 293.34 149.65 289.21 150.12 285.98 151.43 C 281.53 150.13 276.35 147.29 276.22 142.03 Z" />
<path fill="#43a536" opacity="1.00" d=" M 250.45 138.15 C 256.94 137.81 263.43 137.91 269.92 138.13 C 269.96 161.97 270.24 185.83 269.77 209.66 C 263.64 209.69 257.50 209.66 251.37 209.72 C 251.36 208.36 251.35 207.01 251.34 205.66 C 245.64 207.69 240.38 211.62 234.06 211.35 C 229.31 210.45 224.38 209.37 220.36 206.54 C 206.40 195.84 205.98 171.86 219.61 160.76 C 228.69 153.77 241.77 154.52 250.46 161.76 C 250.58 153.89 250.51 146.02 250.45 138.15 M 235.46 172.51 C 229.20 175.08 226.67 183.24 229.94 189.04 C 232.35 194.79 240.13 195.24 245.16 193.18 C 250.92 190.77 251.20 183.51 249.66 178.34 C 247.31 172.99 240.87 170.71 235.46 172.51 Z" />
<path fill="#43a536" opacity="1.00" d=" M 277.14 156.49 C 283.29 156.55 289.45 156.62 295.61 156.51 C 296.18 174.17 296.36 191.93 295.53 209.58 C 289.28 209.59 283.03 209.76 276.79 209.45 C 276.57 191.82 275.88 174.07 277.14 156.49 Z" />
<path fill="#43a536" opacity="1.00" d=" M 316.17 159.17 C 332.45 150.52 357.75 158.27 360.03 178.45 C 353.78 178.44 347.53 178.46 341.29 178.68 C 338.72 172.42 329.80 170.26 324.69 174.71 C 320.64 178.34 320.72 184.59 322.29 189.37 C 325.65 195.49 334.28 195.12 339.56 191.85 C 339.94 190.57 340.35 189.29 340.75 188.02 C 347.17 188.04 353.58 187.93 360.00 188.15 C 358.56 203.03 343.41 212.71 329.28 211.05 C 322.87 209.90 315.68 209.06 310.98 204.02 C 297.27 192.50 299.64 166.95 316.17 159.17 Z" />
<path fill="#43a536" opacity="1.00" d=" M 384.81 156.87 C 396.12 154.23 409.59 156.24 417.44 165.51 C 426.80 176.63 425.32 194.79 414.41 204.31 C 406.35 209.92 395.74 212.93 386.12 210.07 C 373.02 208.15 363.12 195.02 364.30 181.94 C 364.29 170.08 373.57 159.75 384.81 156.87 M 387.27 174.36 C 383.40 178.08 382.88 183.76 384.38 188.70 C 387.55 196.01 399.56 196.20 403.37 189.37 C 405.16 184.35 404.68 178.34 400.83 174.38 C 396.43 171.81 391.69 171.91 387.27 174.36 Z" />
<path fill="#43a536" opacity="1.00" d=" M 432.46 161.44 C 440.89 155.21 451.84 155.66 461.79 156.13 C 470.37 156.92 479.05 162.88 478.54 172.40 C 472.02 171.84 464.65 174.34 458.92 170.22 C 455.30 168.86 451.30 169.77 447.53 169.77 C 447.28 171.76 447.19 173.77 447.22 175.78 C 453.85 176.37 460.54 176.44 467.07 177.94 C 474.45 178.58 481.54 185.14 480.08 193.01 C 481.18 203.03 471.08 210.00 462.00 210.35 C 451.85 210.63 440.13 212.26 431.69 205.27 C 429.13 202.40 426.65 198.25 428.12 194.31 C 433.18 192.95 438.54 194.32 443.72 194.10 C 448.66 198.69 456.07 198.60 461.73 195.44 C 461.31 194.08 460.90 192.73 460.49 191.38 C 452.58 188.86 443.85 190.69 436.16 187.06 C 425.79 183.60 425.26 168.24 432.46 161.44 Z" />
<path fill="#43a536" opacity="1.00" d=" M 429.63 236.10 C 435.05 235.97 440.47 235.95 445.89 236.23 C 446.04 242.92 445.95 249.62 446.01 256.32 C 457.38 256.60 468.76 256.40 480.14 256.45 C 480.17 259.50 480.13 262.55 480.03 265.60 C 468.83 266.29 457.61 265.20 446.40 265.56 C 445.79 277.54 445.57 289.63 446.52 301.59 C 455.58 302.12 464.67 301.79 473.74 301.84 C 473.87 304.52 473.97 307.19 474.05 309.87 C 449.49 310.11 424.93 309.95 400.37 309.96 C 400.36 307.32 400.35 304.67 400.34 302.03 C 409.64 301.95 418.94 301.85 428.24 301.80 C 429.15 289.75 428.43 277.62 428.56 265.54 C 417.02 264.89 405.26 266.67 393.87 264.53 C 394.03 261.84 394.17 259.16 394.38 256.48 C 405.79 256.45 417.20 256.53 428.61 256.43 C 428.85 249.65 427.98 242.76 429.63 236.10 Z" />
<path fill="#43a536" opacity="1.00" d=" M 264.70 236.44 C 269.29 236.44 273.87 236.47 278.46 236.45 C 278.87 238.47 279.30 240.50 279.70 242.54 C 286.55 242.57 293.39 242.57 300.24 242.51 C 300.76 242.92 301.81 243.75 302.34 244.17 C 302.30 245.43 302.27 246.69 302.23 247.96 C 294.79 248.12 287.35 248.13 279.91 248.14 C 279.70 249.57 279.52 251.00 279.35 252.45 C 286.11 252.53 292.87 252.29 299.63 252.50 C 299.88 258.91 302.40 268.46 294.70 271.46 C 277.66 272.06 260.55 271.46 243.48 271.72 C 243.02 265.31 243.48 258.89 243.45 252.47 C 250.33 252.31 257.23 252.74 264.11 252.21 C 263.40 250.70 263.20 248.08 260.95 248.21 C 254.60 247.91 248.23 248.42 241.88 248.08 C 241.73 247.14 241.44 245.25 241.29 244.31 C 247.92 240.66 255.80 243.69 262.93 242.29 C 264.70 240.91 264.24 238.38 264.70 236.44 M 253.28 261.77 C 254.03 263.15 254.79 264.53 255.53 265.92 C 256.89 265.93 258.25 265.96 259.61 265.99 C 259.59 263.21 259.53 260.43 259.50 257.65 C 256.59 257.60 254.50 259.22 253.28 261.77 M 269.25 257.96 C 269.29 260.61 269.31 263.27 269.38 265.92 C 270.91 265.97 272.44 266.02 273.98 266.07 C 273.98 263.39 273.95 260.70 273.88 258.02 C 272.33 258.00 270.79 257.98 269.25 257.96 M 283.60 257.96 C 283.69 260.61 283.78 263.27 283.94 265.93 C 285.28 265.98 286.63 266.02 287.98 266.06 C 288.00 263.38 288.02 260.70 288.05 258.02 C 286.56 257.99 285.08 257.97 283.60 257.96 Z" />
<path fill="#43a536" opacity="1.00" d=" M 340.27 242.60 C 338.94 232.89 350.95 237.51 356.69 236.45 C 357.15 238.47 357.56 240.51 357.89 242.56 C 368.10 243.34 378.60 241.27 388.59 243.80 C 388.63 246.00 388.64 248.19 388.61 250.39 C 378.29 251.60 367.76 249.37 357.57 251.64 C 357.58 253.24 357.60 254.83 357.61 256.43 C 366.91 256.58 376.21 256.45 385.51 256.51 C 385.71 263.52 386.01 270.59 385.38 277.57 C 383.63 283.65 376.25 281.67 371.52 282.06 C 371.33 287.90 371.43 293.75 371.59 299.59 C 372.20 300.20 372.81 300.82 373.43 301.44 C 379.47 301.98 385.54 301.92 391.61 301.89 C 391.66 304.58 391.68 307.27 391.69 309.95 C 379.59 309.11 364.84 313.34 355.40 303.43 C 352.58 296.77 354.83 289.08 353.67 282.03 C 350.45 281.99 347.24 282.00 344.03 282.07 C 338.51 291.16 333.62 300.62 328.45 309.90 C 322.45 310.04 316.44 309.98 310.44 309.93 C 315.35 300.68 321.49 292.02 325.25 282.19 C 320.96 281.97 316.67 281.99 312.38 281.81 C 312.32 273.39 312.18 264.97 312.43 256.55 C 321.77 256.39 331.11 256.58 340.45 256.43 C 340.47 254.77 340.49 253.10 340.51 251.44 C 330.26 251.30 320.02 251.42 309.77 251.45 C 309.58 248.90 309.49 246.35 309.46 243.80 C 319.56 241.47 330.01 243.16 340.27 242.60 M 327.98 264.00 C 328.01 267.35 327.93 270.70 327.59 274.03 C 341.74 274.49 355.91 274.19 370.07 274.21 C 369.99 270.76 369.99 267.30 369.58 263.87 C 355.71 264.16 341.84 263.91 327.98 264.00 Z" />
<path fill="#43a536" opacity="1.00" d=" M 210.20 255.57 C 215.85 250.42 221.13 244.80 227.31 240.27 C 231.08 238.66 234.94 241.38 238.39 242.73 C 232.19 248.53 226.29 254.69 219.46 259.78 C 216.46 258.18 213.21 257.14 210.20 255.57 Z" />
<path fill="#43a536" opacity="1.00" d=" M 209.57 275.25 C 216.14 269.45 222.57 263.49 229.18 257.73 C 232.81 258.69 236.33 260.07 239.97 261.01 C 237.11 263.63 234.33 266.35 231.57 269.08 C 233.05 270.09 234.52 271.10 235.99 272.12 C 235.84 284.74 236.33 297.37 235.65 309.98 C 230.98 309.98 226.32 309.98 221.66 309.93 C 220.77 299.94 221.50 289.91 221.28 279.90 C 217.04 279.43 213.02 277.73 209.57 275.25 Z" />
<path fill="#43a536" opacity="1.00" d=" M 240.44 276.32 C 260.99 275.72 281.59 276.03 302.16 276.17 C 302.15 278.06 302.13 279.95 302.14 281.84 C 281.56 281.96 260.95 282.25 240.37 281.70 C 240.39 279.90 240.41 278.11 240.44 276.32 Z" />
<path fill="#43a536" opacity="1.00" d=" M 240.44 286.28 C 243.99 285.97 247.56 286.03 251.11 286.25 C 251.74 294.00 252.49 302.06 250.66 309.69 C 247.27 309.66 243.89 309.69 240.51 309.52 C 239.69 301.80 239.80 294.00 240.44 286.28 Z" />
<path fill="#43a536" opacity="1.00" d=" M 256.10 286.09 C 259.97 285.99 263.85 285.98 267.73 286.06 C 268.04 291.23 267.89 296.41 268.33 301.57 C 274.27 301.99 280.24 301.94 286.19 302.30 C 286.08 304.73 285.87 307.17 285.61 309.60 C 275.81 308.91 264.43 312.51 256.34 305.22 C 255.92 298.85 255.96 292.46 256.10 286.09 Z" />
<path fill="#43a536" opacity="1.00" d=" M 272.32 286.00 C 275.68 286.01 279.05 286.03 282.42 286.11 C 282.39 289.97 282.44 293.84 282.42 297.71 C 279.03 297.66 275.63 297.67 272.24 297.77 C 272.35 293.85 272.33 289.92 272.32 286.00 Z" />
<path fill="#43a536" opacity="1.00" d=" M 289.32 285.78 C 293.68 285.85 299.47 285.51 301.46 290.37 C 302.95 296.65 302.16 303.24 302.09 309.65 C 298.74 309.66 295.39 309.70 292.04 309.73 C 292.51 301.56 291.99 293.52 289.32 285.78 Z" />
</g>
</svg>
