<svg xmlns="http://www.w3.org/2000/svg" viewBox="0 0 1024 1024" width="512pt" height="512pt">
  <path d="M0,512c0,282.6 229.4,512 512,512s512,-229.4 512,-512S794.6,0 512,0 0,229.4 0,512z" fill="#333333"/>
  <path d="M793.1,708.1c-2.6,-120.8 -22,-236.5 -54.8,-326.7 -33.3,-90.6 -74.2,-140.8 -116.2,-140.8s-50.7,18.9 -72.7,56.3c-13.8,23 -26.6,53.8 -37.9,89.6 -11.3,-35.8 -24.1,-66 -37.9,-89.6 -22,-37.4 -46.6,-56.3 -72.7,-56.3 -42,0 -82.9,50.2 -116.2,140.8 -32.8,90.1 -52.2,206.3 -54.8,326.7v14.3h84v-13.8C317.4,456.7 377.3,297 401.9,297s58.4,110.6 65,384.5v13.3h89.1v-13.3c6.7,-273.9 48.6,-384.5 65,-384.5 24.6,0 84.5,159.7 87.6,411.6v13.8h84v-14.3z" fill="#FFFFFF"/>
</svg>
