<?xml version="1.0" encoding="UTF-8" ?>
<!DOCTYPE svg PUBLIC "-//W3C//DTD SVG 1.1//EN" "http://www.w3.org/Graphics/SVG/1.1/DTD/svg11.dtd">
<svg width="512pt" height="512pt" viewBox="13.119 15.751 119.482 121.239" version="1.1" xmlns="http://www.w3.org/2000/svg">
<g id="#2c2d2fff">
</g>
<g id="#1d4cd8ff">
<path fill="#1d4cd8" opacity="1.00" d=" M 58.56 29.15 C 66.62 27.73 74.87 28.64 83.01 28.41 C 94.63 27.89 104.70 35.67 111.74 44.19 C 125.08 60.06 126.20 84.70 114.70 101.87 C 106.19 114.98 90.97 124.53 75.02 123.63 C 54.99 125.01 35.99 110.56 29.48 91.99 C 19.52 67.92 33.66 36.97 58.56 29.15 M 55.54 34.13 C 40.58 41.22 29.74 57.19 30.39 73.97 C 29.89 83.11 31.95 92.51 37.64 99.84 C 40.10 95.23 43.80 91.56 47.63 88.09 C 47.21 82.59 41.85 78.45 42.38 72.60 C 41.23 65.42 47.64 59.82 46.51 52.68 C 45.80 47.98 50.42 45.50 53.82 43.48 C 61.29 48.34 69.20 42.40 77.14 43.47 C 83.26 43.97 89.44 47.27 95.23 43.45 C 98.91 45.87 103.92 48.75 103.31 53.91 C 102.77 58.56 105.03 62.68 106.22 67.01 C 108.27 74.96 103.71 81.94 100.81 88.93 C 104.20 91.99 107.16 95.54 109.09 99.70 C 109.85 99.71 111.36 99.73 112.11 99.73 C 116.03 92.43 119.50 84.49 118.79 75.99 C 120.40 54.93 103.96 34.69 83.47 30.68 C 74.12 30.21 64.01 29.22 55.54 34.13 M 48.76 60.25 C 46.19 68.36 45.58 79.32 52.93 85.25 C 58.08 91.03 71.47 90.51 71.17 80.75 C 72.33 80.64 73.49 80.56 74.66 80.50 C 74.56 83.34 74.48 86.19 74.44 89.03 C 69.72 92.00 63.90 92.40 59.34 95.67 C 59.44 100.43 58.72 107.23 64.59 108.84 C 69.81 110.36 73.87 114.09 74.80 119.62 C 76.85 119.62 78.90 119.61 80.96 119.60 C 81.70 112.86 73.66 109.23 75.36 102.22 C 78.04 99.21 81.76 97.95 85.76 98.61 C 85.77 97.31 85.78 96.01 85.79 94.72 C 82.90 93.02 79.67 92.12 76.32 92.09 C 77.27 91.25 78.20 90.38 79.13 89.52 C 85.61 89.50 93.72 91.27 98.03 85.00 C 107.95 74.51 103.69 56.00 91.24 49.57 C 77.32 41.16 55.77 44.25 48.76 60.25 Z" />
<path fill="#1d4cd8" opacity="1.00" d=" M 52.32 72.84 C 51.04 66.96 54.42 61.38 60.22 59.83 C 64.74 58.27 67.50 62.87 69.71 65.93 C 67.30 70.66 63.86 75.78 58.12 76.47 C 55.81 76.17 54.16 74.12 52.32 72.84 Z" />
<path fill="#1d4cd8" opacity="1.00" d=" M 80.39 63.16 C 85.85 56.26 95.77 61.21 97.58 68.60 C 98.16 72.23 94.64 74.92 91.79 76.40 C 85.30 76.09 79.11 70.02 80.39 63.16 Z" />
<path fill="#1d4cd8" opacity="1.00" d=" M 72.44 69.56 C 73.50 69.56 75.60 69.55 76.66 69.55 C 76.64 70.87 76.61 72.19 76.58 73.50 C 75.19 73.53 73.81 73.55 72.42 73.58 C 72.43 72.24 72.43 70.90 72.44 69.56 Z" />
</g>
<g id="#f9fafaff">
<path fill="#f9fafa" opacity="1.00" d=" M 55.54 34.13 C 64.01 29.22 74.12 30.21 83.47 30.68 C 103.96 34.69 120.40 54.93 118.79 75.99 C 119.50 84.49 116.03 92.43 112.11 99.73 C 111.36 99.73 109.85 99.71 109.09 99.70 C 107.16 95.54 104.20 91.99 100.81 88.93 C 103.71 81.94 108.27 74.96 106.22 67.01 C 105.03 62.68 102.77 58.56 103.31 53.91 C 103.92 48.75 98.91 45.87 95.23 43.45 C 89.44 47.27 83.26 43.97 77.14 43.47 C 69.20 42.40 61.29 48.34 53.82 43.48 C 50.42 45.50 45.80 47.98 46.51 52.68 C 47.64 59.82 41.23 65.42 42.38 72.60 C 41.85 78.45 47.21 82.59 47.63 88.09 C 43.80 91.56 40.10 95.23 37.64 99.84 C 31.95 92.51 29.89 83.11 30.39 73.97 C 29.74 57.19 40.58 41.22 55.54 34.13 Z" />
<path fill="#f9fafa" opacity="1.00" d=" M 48.76 60.25 C 55.77 44.25 77.32 41.16 91.24 49.57 C 103.69 56.00 107.95 74.51 98.03 85.00 C 93.72 91.27 85.61 89.50 79.13 89.52 C 78.20 90.38 77.27 91.25 76.32 92.09 C 79.67 92.12 82.90 93.02 85.79 94.72 C 85.78 96.01 85.77 97.31 85.76 98.61 C 81.76 97.95 78.04 99.21 75.36 102.22 C 73.66 109.23 81.70 112.86 80.96 119.60 C 78.90 119.61 76.85 119.62 74.80 119.62 C 73.87 114.09 69.81 110.36 64.59 108.84 C 58.72 107.23 59.44 100.43 59.34 95.67 C 63.90 92.40 69.72 92.00 74.44 89.03 C 74.48 86.19 74.56 83.34 74.66 80.50 C 73.49 80.56 72.33 80.64 71.17 80.75 C 71.47 90.51 58.08 91.03 52.93 85.25 C 45.58 79.32 46.19 68.36 48.76 60.25 M 52.32 72.84 C 54.16 74.12 55.81 76.17 58.12 76.47 C 63.86 75.78 67.30 70.66 69.71 65.93 C 67.50 62.87 64.74 58.27 60.22 59.83 C 54.42 61.38 51.04 66.96 52.32 72.84 M 80.39 63.16 C 79.11 70.02 85.30 76.09 91.79 76.40 C 94.64 74.92 98.16 72.23 97.58 68.60 C 95.77 61.21 85.85 56.26 80.39 63.16 M 72.44 69.56 C 72.43 70.90 72.43 72.24 72.42 73.58 C 73.81 73.55 75.19 73.53 76.58 73.50 C 76.61 72.19 76.64 70.87 76.66 69.55 C 75.60 69.55 73.50 69.56 72.44 69.56 Z" />
</g>
</svg>
