<?xml version="1.0" encoding="UTF-8" ?>
<!DOCTYPE svg PUBLIC "-//W3C//DTD SVG 1.1//EN" "http://www.w3.org/Graphics/SVG/1.1/DTD/svg11.dtd">
<svg width="512pt" height="512pt" viewBox="10.645 10.645 229.688 229.688" version="1.1" xmlns="http://www.w3.org/2000/svg">
<g id="#a0ca23ff">
<path fill="#a0ca23" opacity="1.00" d=" M 0.00 0.00 L 250.00 0.00 L 250.00 250.00 L 0.00 250.00 L 0.00 0.00 M 66.01 30.11 C 63.97 34.81 61.60 39.37 58.93 43.75 C 48.77 43.77 38.61 43.72 28.44 43.77 C 28.90 46.22 29.35 48.67 29.80 51.12 C 37.69 51.16 45.57 51.04 53.45 51.21 C 45.08 60.91 34.31 68.17 22.88 73.78 C 23.72 75.51 24.58 77.23 25.44 78.96 C 39.76 73.92 53.26 65.79 63.07 54.05 C 66.20 49.44 72.68 51.03 77.34 51.57 C 86.48 63.66 99.34 72.19 113.22 77.97 C 115.55 75.62 118.10 73.51 120.81 71.62 C 120.82 70.57 120.83 69.52 120.85 68.47 C 108.34 65.13 95.45 60.76 86.21 51.24 C 95.66 50.89 105.13 51.48 114.57 50.80 C 114.94 46.08 110.77 43.98 107.25 42.05 C 95.60 45.65 83.05 42.91 71.03 43.74 C 73.00 40.54 74.91 37.31 76.74 34.03 C 73.17 32.70 69.60 31.38 66.01 30.11 M 208.53 33.39 C 203.04 36.03 196.87 35.18 191.00 35.25 C 175.17 35.25 159.35 35.23 143.52 35.26 C 143.97 37.58 144.42 39.91 144.85 42.24 C 154.41 42.27 163.97 42.23 173.53 42.26 C 173.53 44.38 173.52 46.49 173.52 48.61 C 164.21 48.64 154.89 48.57 145.57 48.66 C 144.95 47.85 144.34 47.04 143.72 46.24 C 142.17 46.27 140.63 46.31 139.08 46.35 C 138.04 52.51 134.92 57.92 131.92 63.29 C 129.80 66.73 134.47 70.88 137.87 69.08 C 143.47 67.18 144.10 60.61 144.87 55.63 C 154.41 55.60 163.96 55.62 173.50 55.62 C 173.55 63.43 173.48 71.23 173.56 79.04 C 176.76 78.49 181.08 79.35 183.28 76.39 C 184.15 69.52 183.36 62.54 183.63 55.63 C 193.67 55.61 203.71 55.61 213.75 55.63 C 213.11 58.76 212.48 61.90 211.88 65.04 C 213.58 65.59 215.28 66.14 216.97 66.70 C 220.40 61.33 223.53 55.79 226.42 50.12 C 223.44 48.96 220.46 47.80 217.46 46.71 C 206.74 50.73 194.82 47.69 183.61 48.59 C 183.61 46.47 183.63 44.36 183.64 42.25 C 194.22 42.24 204.81 42.27 215.39 42.24 C 215.43 40.71 215.47 39.19 215.50 37.66 C 213.19 36.22 210.86 34.79 208.53 33.39 M 147.60 60.30 C 147.96 62.14 148.32 63.97 148.67 65.82 C 155.67 65.86 162.66 65.85 169.66 65.83 C 169.65 63.98 169.65 62.13 169.65 60.29 C 162.30 60.27 154.95 60.26 147.60 60.30 M 187.19 60.30 C 187.51 62.13 187.82 63.96 188.15 65.79 C 195.18 65.88 202.22 65.85 209.26 65.82 C 209.25 63.98 209.25 62.14 209.25 60.30 C 201.90 60.26 194.54 60.27 187.19 60.30 M 49.60 67.37 C 50.06 69.75 50.49 72.13 50.93 74.52 C 64.88 74.56 78.83 74.53 92.79 74.53 C 92.80 73.00 92.81 71.47 92.82 69.94 C 90.56 68.49 88.29 67.06 86.01 65.64 C 74.28 69.23 61.69 66.50 49.60 67.37 M 147.55 70.48 C 147.96 72.37 148.38 74.25 148.79 76.13 C 155.73 76.13 162.68 76.18 169.62 76.07 C 169.63 74.20 169.65 72.33 169.66 70.46 C 162.29 70.45 154.92 70.42 147.55 70.48 M 187.17 70.47 C 187.50 72.28 187.84 74.09 188.18 75.90 C 195.20 76.30 202.23 76.15 209.25 76.05 C 209.25 74.19 209.25 72.33 209.25 70.46 C 201.89 70.44 194.53 70.43 187.17 70.47 M 195.00 81.89 C 177.10 81.79 159.20 81.85 141.30 81.85 C 141.71 84.13 142.14 86.40 142.56 88.68 C 162.98 88.71 183.41 88.67 203.83 88.70 C 203.83 91.21 203.82 93.73 203.82 96.25 C 184.24 96.28 164.66 96.22 145.08 96.28 C 145.48 98.50 145.89 100.71 146.31 102.93 C 165.47 103.16 184.63 103.09 203.79 102.92 C 203.82 105.51 203.83 108.10 203.85 110.69 C 183.00 110.71 162.14 110.66 141.28 110.71 C 141.71 112.97 142.15 115.23 142.59 117.49 C 162.94 117.49 183.29 117.51 203.64 117.48 C 203.86 118.99 204.08 120.50 204.31 122.01 C 207.72 121.30 214.02 122.00 214.11 117.09 C 214.40 105.43 214.12 93.75 214.20 82.09 C 207.95 78.52 201.54 82.45 195.00 81.89 M 85.00 83.63 C 67.44 83.64 49.88 83.61 32.33 83.65 C 32.75 86.02 33.19 88.40 33.62 90.78 C 44.35 90.81 55.09 90.77 65.83 90.80 C 65.92 101.13 65.79 111.45 65.90 121.78 C 69.37 121.37 73.56 122.06 76.30 119.43 C 77.10 109.93 76.40 100.34 76.70 90.80 C 87.97 90.72 99.25 90.91 110.52 90.70 C 110.89 86.00 106.71 83.87 103.16 82.00 C 97.38 84.37 91.07 83.54 85.00 83.63 M 27.19 113.08 C 27.92 114.74 28.89 116.27 29.79 117.84 C 40.22 113.80 49.98 107.92 57.91 99.97 C 55.06 97.79 52.20 95.64 49.31 93.51 C 43.62 101.79 35.12 107.24 27.19 113.08 M 86.98 94.13 C 86.25 95.56 85.53 96.99 84.80 98.42 C 90.85 102.09 96.56 106.47 100.74 112.25 C 102.73 115.06 105.91 118.52 109.73 116.84 C 114.38 115.11 113.15 108.61 110.06 105.95 C 103.58 100.05 95.17 96.87 86.98 94.13 M 40.55 147.71 C 37.17 147.72 33.80 147.73 30.42 147.75 C 30.42 171.16 30.36 194.58 30.45 217.99 C 33.18 217.48 36.74 218.06 38.64 215.60 C 39.68 213.27 39.29 210.61 39.51 208.13 C 45.17 208.15 50.82 208.13 56.48 208.14 C 56.50 210.60 56.52 213.06 56.55 215.52 C 59.67 214.87 65.15 215.56 65.32 211.09 C 65.65 189.97 65.34 168.82 65.46 147.69 C 59.91 144.62 54.30 148.02 48.54 147.94 C 50.87 143.00 53.10 138.01 54.94 132.86 C 51.52 132.06 48.10 131.27 44.68 130.46 C 43.55 136.26 42.23 142.03 40.55 147.71 M 66.16 166.19 C 67.80 167.37 69.44 168.56 71.08 169.75 C 75.56 164.98 79.65 159.85 83.35 154.45 C 90.47 154.44 97.60 154.44 104.73 154.45 C 104.57 168.99 105.05 183.59 103.60 198.08 C 103.19 202.11 102.00 207.24 97.52 208.47 C 92.22 209.72 86.72 209.04 81.33 209.19 C 81.32 210.32 81.32 211.44 81.32 212.57 C 86.33 213.38 91.27 215.29 94.35 219.55 C 102.65 219.88 110.88 214.64 111.98 206.00 C 115.15 186.56 113.86 166.70 114.27 147.07 C 105.60 143.39 96.77 149.08 87.72 147.15 C 89.90 142.60 92.00 138.00 93.84 133.30 C 90.46 132.31 87.06 131.34 83.68 130.36 C 79.81 143.14 74.39 155.58 66.16 166.19 M 156.64 131.11 C 156.63 134.16 156.62 137.21 156.61 140.26 C 148.72 140.30 140.82 140.25 132.93 140.30 C 133.28 142.68 133.63 145.06 133.97 147.44 C 141.52 147.51 149.07 147.46 156.62 147.48 C 156.62 151.01 156.63 154.53 156.66 158.06 C 159.87 157.54 164.06 158.35 166.39 155.54 C 166.91 152.89 166.74 150.17 166.82 147.48 C 174.74 147.47 182.67 147.48 190.59 147.48 C 190.59 151.00 190.60 154.52 190.63 158.04 C 193.81 157.69 197.40 158.16 200.17 156.20 C 200.97 153.39 200.66 150.41 200.77 147.53 C 208.93 147.42 217.09 147.52 225.26 147.45 C 225.26 145.92 225.27 144.39 225.27 142.87 C 222.91 141.35 220.55 139.85 218.17 138.37 C 212.68 140.88 206.58 140.32 200.73 140.25 C 200.70 137.40 200.69 134.56 200.66 131.71 C 197.31 131.50 193.96 131.30 190.62 131.11 C 190.60 134.16 190.59 137.21 190.58 140.26 C 182.64 140.29 174.70 140.29 166.75 140.26 C 166.72 137.41 166.71 134.56 166.68 131.71 C 163.34 131.50 159.99 131.30 156.64 131.11 M 130.11 181.57 C 131.00 183.21 131.88 184.84 132.77 186.48 C 149.91 181.44 166.75 173.70 179.31 160.64 C 190.08 172.97 205.19 180.06 220.50 185.02 C 222.60 182.57 224.98 180.41 227.58 178.51 C 227.59 177.91 227.60 176.71 227.61 176.11 C 212.16 172.31 196.76 166.84 184.30 156.61 C 184.36 155.59 184.43 154.57 184.49 153.55 C 181.67 151.98 178.86 150.39 176.04 148.82 C 164.86 164.54 147.62 174.39 130.11 181.57 M 76.21 171.62 C 79.57 175.52 82.40 179.88 84.29 184.69 C 85.51 187.20 86.52 191.08 90.02 190.93 C 94.54 191.10 95.84 185.04 94.28 181.69 C 91.10 175.80 85.22 172.09 79.91 168.31 C 78.67 169.41 77.44 170.51 76.21 171.62 M 173.53 169.48 C 173.52 173.74 173.52 178.00 173.51 182.25 C 164.80 182.31 156.09 182.21 147.37 182.32 C 147.83 184.67 148.29 187.01 148.74 189.36 C 157.00 189.37 165.26 189.36 173.52 189.37 C 173.54 199.78 173.49 210.18 173.55 220.59 C 176.80 220.13 180.69 220.70 183.32 218.34 C 184.29 208.75 183.44 199.03 183.77 189.38 C 192.70 189.34 201.63 189.39 210.56 189.35 C 210.58 187.82 210.60 186.28 210.61 184.75 C 208.42 183.28 206.23 181.82 204.03 180.38 C 197.65 183.24 190.55 182.11 183.79 182.24 C 183.78 178.13 183.78 174.01 183.74 169.90 C 180.34 169.76 176.93 169.62 173.53 169.48 M 136.24 211.80 C 137.12 213.20 138.00 214.61 138.87 216.02 C 149.48 211.97 159.40 205.88 167.22 197.58 C 164.61 195.54 161.97 193.54 159.33 191.55 C 153.30 199.99 145.04 206.47 136.24 211.80 M 192.20 192.49 C 191.48 193.84 190.77 195.19 190.06 196.55 C 196.46 200.45 202.17 205.43 206.49 211.58 C 208.35 214.59 212.98 216.85 215.81 213.78 C 218.06 210.24 216.11 205.41 213.03 202.99 C 206.96 198.00 199.59 194.94 192.20 192.49 Z" />
<path fill="#a0ca23" opacity="1.00" d=" M 39.40 154.89 C 45.09 154.85 50.78 154.85 56.47 154.88 C 56.53 161.30 56.52 167.73 56.47 174.16 C 50.78 174.18 45.08 174.18 39.39 174.16 C 39.34 167.74 39.34 161.31 39.40 154.89 Z" />
<path fill="#a0ca23" opacity="1.00" d=" M 39.36 181.25 C 45.07 181.24 50.79 181.24 56.51 181.25 C 56.51 187.76 56.51 194.26 56.51 200.77 C 50.79 200.78 45.07 200.78 39.36 200.77 C 39.36 194.26 39.36 187.76 39.36 181.25 Z" />
</g>
<g id="#ffffffff">
<path fill="#ffffff" opacity="1.00" d=" M 66.01 30.11 C 69.60 31.38 73.17 32.70 76.74 34.03 C 74.91 37.31 73.00 40.54 71.03 43.74 C 83.05 42.91 95.60 45.65 107.25 42.05 C 110.77 43.98 114.94 46.08 114.57 50.80 C 105.13 51.48 95.66 50.89 86.21 51.24 C 95.45 60.76 108.34 65.13 120.85 68.47 C 120.83 69.52 120.82 70.57 120.81 71.62 C 118.10 73.51 115.55 75.62 113.22 77.97 C 99.34 72.19 86.48 63.66 77.34 51.57 C 72.68 51.03 66.20 49.44 63.07 54.05 C 53.26 65.79 39.76 73.92 25.44 78.96 C 24.58 77.23 23.72 75.51 22.88 73.78 C 34.31 68.17 45.08 60.91 53.45 51.21 C 45.57 51.04 37.69 51.16 29.80 51.12 C 29.35 48.67 28.90 46.22 28.44 43.77 C 38.61 43.72 48.77 43.77 58.93 43.75 C 61.60 39.37 63.97 34.81 66.01 30.11 Z" />
<path fill="#ffffff" opacity="1.00" d=" M 208.53 33.39 C 210.86 34.79 213.19 36.22 215.50 37.66 C 215.47 39.19 215.43 40.71 215.39 42.24 C 204.81 42.27 194.22 42.24 183.64 42.25 C 183.63 44.36 183.61 46.47 183.61 48.59 C 194.82 47.69 206.74 50.73 217.46 46.71 C 220.46 47.80 223.44 48.96 226.42 50.12 C 223.53 55.79 220.40 61.33 216.97 66.70 C 215.28 66.14 213.58 65.59 211.88 65.04 C 212.48 61.90 213.11 58.76 213.75 55.63 C 203.71 55.61 193.67 55.61 183.63 55.63 C 183.36 62.54 184.15 69.52 183.28 76.39 C 181.08 79.35 176.76 78.49 173.56 79.04 C 173.48 71.23 173.55 63.43 173.50 55.62 C 163.96 55.62 154.41 55.60 144.87 55.63 C 144.10 60.61 143.47 67.18 137.87 69.08 C 134.47 70.88 129.80 66.73 131.92 63.29 C 134.92 57.92 138.04 52.51 139.08 46.35 C 140.63 46.31 142.17 46.27 143.72 46.24 C 144.34 47.04 144.95 47.85 145.57 48.66 C 154.89 48.57 164.21 48.64 173.52 48.61 C 173.52 46.49 173.53 44.38 173.53 42.26 C 163.97 42.23 154.41 42.27 144.85 42.24 C 144.42 39.91 143.97 37.58 143.52 35.26 C 159.35 35.23 175.17 35.25 191.00 35.25 C 196.87 35.18 203.04 36.03 208.53 33.39 Z" />
<path fill="#ffffff" opacity="1.00" d=" M 147.60 60.30 C 154.95 60.26 162.30 60.27 169.65 60.29 C 169.65 62.13 169.65 63.98 169.66 65.83 C 162.66 65.85 155.67 65.86 148.67 65.82 C 148.32 63.97 147.96 62.14 147.60 60.30 Z" />
<path fill="#ffffff" opacity="1.00" d=" M 187.19 60.30 C 194.54 60.27 201.90 60.26 209.25 60.30 C 209.25 62.14 209.25 63.98 209.26 65.82 C 202.22 65.85 195.18 65.88 188.15 65.79 C 187.82 63.96 187.51 62.13 187.19 60.30 Z" />
<path fill="#ffffff" opacity="1.00" d=" M 49.60 67.37 C 61.69 66.50 74.28 69.23 86.01 65.64 C 88.29 67.06 90.56 68.49 92.82 69.94 C 92.81 71.47 92.80 73.00 92.79 74.53 C 78.83 74.53 64.88 74.56 50.93 74.52 C 50.49 72.13 50.06 69.75 49.60 67.37 Z" />
<path fill="#ffffff" opacity="1.00" d=" M 147.55 70.48 C 154.92 70.42 162.29 70.45 169.66 70.46 C 169.65 72.33 169.63 74.20 169.62 76.07 C 162.68 76.18 155.73 76.13 148.79 76.13 C 148.38 74.25 147.96 72.37 147.55 70.48 Z" />
<path fill="#ffffff" opacity="1.00" d=" M 187.17 70.47 C 194.53 70.43 201.89 70.44 209.25 70.46 C 209.25 72.33 209.25 74.19 209.25 76.05 C 202.23 76.15 195.20 76.30 188.18 75.90 C 187.84 74.09 187.50 72.28 187.17 70.47 Z" />
<path fill="#ffffff" opacity="1.00" d=" M 195.00 81.89 C 201.54 82.45 207.95 78.52 214.20 82.09 C 214.12 93.75 214.40 105.43 214.11 117.09 C 214.02 122.00 207.72 121.30 204.31 122.01 C 204.08 120.50 203.86 118.99 203.64 117.48 C 183.29 117.51 162.94 117.49 142.59 117.49 C 142.15 115.23 141.71 112.97 141.28 110.71 C 162.14 110.66 183.00 110.71 203.85 110.69 C 203.83 108.10 203.82 105.51 203.79 102.92 C 184.63 103.09 165.47 103.16 146.31 102.93 C 145.89 100.71 145.48 98.50 145.08 96.28 C 164.66 96.22 184.24 96.28 203.82 96.25 C 203.82 93.73 203.83 91.21 203.83 88.70 C 183.41 88.67 162.98 88.71 142.56 88.68 C 142.14 86.40 141.71 84.13 141.30 81.85 C 159.20 81.85 177.10 81.79 195.00 81.89 Z" />
<path fill="#ffffff" opacity="1.00" d=" M 85.00 83.63 C 91.07 83.54 97.38 84.37 103.16 82.00 C 106.71 83.87 110.89 86.00 110.52 90.70 C 99.25 90.91 87.97 90.72 76.70 90.80 C 76.40 100.34 77.10 109.93 76.30 119.43 C 73.56 122.06 69.37 121.37 65.90 121.78 C 65.79 111.45 65.92 101.13 65.83 90.80 C 55.09 90.77 44.35 90.81 33.62 90.78 C 33.19 88.40 32.75 86.02 32.33 83.65 C 49.88 83.61 67.44 83.64 85.00 83.63 Z" />
<path fill="#ffffff" opacity="1.00" d=" M 27.19 113.08 C 35.12 107.24 43.62 101.79 49.31 93.51 C 52.20 95.64 55.06 97.79 57.91 99.97 C 49.98 107.92 40.22 113.80 29.79 117.84 C 28.89 116.27 27.92 114.74 27.19 113.08 Z" />
<path fill="#ffffff" opacity="1.00" d=" M 86.98 94.13 C 95.17 96.87 103.58 100.05 110.06 105.95 C 113.15 108.61 114.38 115.11 109.73 116.84 C 105.91 118.52 102.73 115.06 100.74 112.25 C 96.56 106.47 90.85 102.09 84.80 98.42 C 85.53 96.99 86.25 95.56 86.98 94.13 Z" />
<path fill="#ffffff" opacity="1.00" d=" M 40.55 147.71 C 42.23 142.03 43.55 136.26 44.68 130.46 C 48.10 131.27 51.52 132.06 54.94 132.86 C 53.10 138.01 50.87 143.00 48.54 147.94 C 54.30 148.02 59.91 144.62 65.46 147.69 C 65.34 168.82 65.65 189.97 65.32 211.09 C 65.15 215.56 59.67 214.87 56.55 215.52 C 56.52 213.06 56.50 210.60 56.48 208.14 C 50.82 208.13 45.17 208.15 39.51 208.13 C 39.29 210.61 39.68 213.27 38.64 215.60 C 36.74 218.06 33.18 217.48 30.45 217.99 C 30.36 194.58 30.42 171.16 30.42 147.75 C 33.80 147.73 37.17 147.72 40.55 147.71 M 39.40 154.89 C 39.34 161.31 39.34 167.74 39.39 174.16 C 45.08 174.18 50.78 174.18 56.47 174.16 C 56.52 167.73 56.53 161.30 56.47 154.88 C 50.78 154.85 45.09 154.85 39.40 154.89 M 39.36 181.25 C 39.36 187.76 39.36 194.26 39.36 200.77 C 45.07 200.78 50.79 200.78 56.51 200.77 C 56.51 194.26 56.51 187.76 56.51 181.25 C 50.79 181.24 45.07 181.24 39.36 181.25 Z" />
<path fill="#ffffff" opacity="1.00" d=" M 66.16 166.19 C 74.39 155.58 79.81 143.14 83.68 130.36 C 87.06 131.34 90.46 132.31 93.84 133.30 C 92.00 138.00 89.90 142.60 87.72 147.15 C 96.77 149.08 105.60 143.39 114.27 147.07 C 113.86 166.70 115.15 186.56 111.98 206.00 C 110.88 214.64 102.65 219.88 94.35 219.55 C 91.27 215.29 86.33 213.38 81.32 212.57 C 81.32 211.44 81.32 210.32 81.33 209.19 C 86.72 209.04 92.22 209.72 97.52 208.47 C 102.00 207.24 103.19 202.11 103.60 198.08 C 105.05 183.59 104.57 168.99 104.73 154.45 C 97.60 154.44 90.47 154.44 83.35 154.45 C 79.65 159.85 75.56 164.98 71.08 169.75 C 69.44 168.56 67.80 167.37 66.16 166.19 Z" />
<path fill="#ffffff" opacity="1.00" d=" M 156.64 131.11 C 159.99 131.30 163.34 131.50 166.68 131.71 C 166.71 134.56 166.72 137.41 166.75 140.26 C 174.70 140.29 182.64 140.29 190.58 140.26 C 190.59 137.21 190.60 134.16 190.62 131.11 C 193.96 131.30 197.31 131.50 200.66 131.71 C 200.69 134.56 200.70 137.40 200.73 140.25 C 206.58 140.32 212.68 140.88 218.17 138.37 C 220.55 139.85 222.91 141.35 225.27 142.87 C 225.27 144.39 225.26 145.92 225.26 147.45 C 217.09 147.52 208.93 147.42 200.77 147.53 C 200.66 150.41 200.97 153.39 200.17 156.20 C 197.40 158.16 193.81 157.69 190.63 158.04 C 190.60 154.52 190.59 151.00 190.59 147.48 C 182.67 147.48 174.74 147.47 166.82 147.48 C 166.74 150.17 166.91 152.89 166.39 155.54 C 164.06 158.35 159.87 157.54 156.66 158.06 C 156.63 154.53 156.62 151.01 156.62 147.48 C 149.07 147.46 141.52 147.51 133.97 147.44 C 133.63 145.06 133.28 142.68 132.93 140.30 C 140.82 140.25 148.72 140.30 156.61 140.26 C 156.62 137.21 156.63 134.16 156.64 131.11 Z" />
<path fill="#ffffff" opacity="1.00" d=" M 130.11 181.57 C 147.62 174.39 164.86 164.54 176.04 148.82 C 178.86 150.39 181.67 151.98 184.49 153.55 C 184.43 154.57 184.36 155.59 184.30 156.61 C 196.76 166.84 212.16 172.31 227.61 176.11 C 227.60 176.71 227.59 177.91 227.58 178.51 C 224.98 180.41 222.60 182.57 220.50 185.02 C 205.19 180.06 190.08 172.97 179.31 160.64 C 166.75 173.70 149.91 181.44 132.77 186.48 C 131.88 184.84 131.00 183.21 130.11 181.57 Z" />
<path fill="#ffffff" opacity="1.00" d=" M 76.21 171.62 C 77.44 170.51 78.67 169.41 79.91 168.31 C 85.22 172.09 91.10 175.80 94.28 181.69 C 95.84 185.04 94.54 191.10 90.02 190.93 C 86.52 191.08 85.51 187.20 84.29 184.69 C 82.40 179.88 79.57 175.52 76.21 171.62 Z" />
<path fill="#ffffff" opacity="1.00" d=" M 173.53 169.48 C 176.93 169.62 180.34 169.76 183.74 169.90 C 183.78 174.01 183.78 178.13 183.79 182.24 C 190.55 182.11 197.65 183.24 204.03 180.38 C 206.23 181.82 208.42 183.28 210.61 184.75 C 210.60 186.28 210.58 187.82 210.56 189.35 C 201.63 189.39 192.70 189.34 183.77 189.38 C 183.44 199.03 184.29 208.75 183.32 218.34 C 180.69 220.70 176.80 220.13 173.55 220.59 C 173.49 210.18 173.54 199.78 173.52 189.37 C 165.26 189.36 157.00 189.37 148.74 189.36 C 148.29 187.01 147.83 184.67 147.37 182.32 C 156.09 182.21 164.80 182.31 173.51 182.25 C 173.52 178.00 173.52 173.74 173.53 169.48 Z" />
<path fill="#ffffff" opacity="1.00" d=" M 136.24 211.80 C 145.04 206.47 153.30 199.99 159.33 191.55 C 161.97 193.54 164.61 195.54 167.22 197.58 C 159.40 205.88 149.48 211.97 138.87 216.02 C 138.00 214.61 137.12 213.20 136.24 211.80 Z" />
<path fill="#ffffff" opacity="1.00" d=" M 192.20 192.49 C 199.59 194.94 206.96 198.00 213.03 202.99 C 216.11 205.41 218.06 210.24 215.81 213.78 C 212.98 216.85 208.35 214.59 206.49 211.58 C 202.17 205.43 196.46 200.45 190.06 196.55 C 190.77 195.19 191.48 193.84 192.20 192.49 Z" />
</g>
</svg>
