<?xml version="1.0" encoding="UTF-8" ?>
<!DOCTYPE svg PUBLIC "-//W3C//DTD SVG 1.1//EN" "http://www.w3.org/Graphics/SVG/1.1/DTD/svg11.dtd">
<svg width="512pt" height="512pt" viewBox="28.64 29.64 454.72 454.72" version="1.1" xmlns="http://www.w3.org/2000/svg">
<g id="#c5181eff">
<path fill="#c5181e" opacity="1.00" d=" M 173.17 91.91 C 225.10 68.54 287.01 68.46 338.89 92.00 C 356.99 81.91 380.04 82.12 398.11 92.19 C 406.60 88.27 417.70 89.75 423.60 97.42 C 437.03 115.43 437.70 141.44 425.59 160.33 C 438.44 180.02 440.74 205.52 433.04 227.59 C 449.29 242.73 459.41 264.65 458.85 287.00 C 459.40 313.08 445.70 338.53 424.51 353.48 C 421.45 355.14 420.86 358.74 419.68 361.70 C 408.92 389.35 387.88 412.96 361.36 426.36 C 336.77 439.03 307.81 442.72 280.76 437.21 C 272.78 435.66 265.21 428.61 266.17 419.96 C 265.77 412.88 272.47 408.86 274.87 402.89 C 280.29 390.72 270.37 375.29 257.05 375.22 C 244.21 373.97 232.89 387.36 236.19 399.83 C 237.41 407.54 246.18 411.77 245.84 419.97 C 246.78 428.57 239.29 435.53 231.39 437.18 C 210.03 441.54 187.49 440.24 166.84 433.20 C 131.82 421.56 103.04 392.93 91.00 358.07 C 90.46 355.83 88.78 354.26 86.91 353.06 C 66.04 338.08 52.61 312.83 53.16 287.00 C 52.62 264.67 62.67 242.69 78.98 227.61 C 72.01 207.42 73.00 184.25 83.53 165.46 C 84.60 163.14 87.08 160.50 85.10 158.00 C 74.21 139.45 75.61 114.67 88.38 97.41 C 94.25 89.83 105.40 88.16 113.80 92.26 C 131.91 82.07 154.93 81.98 173.17 91.91 M 132.55 106.25 C 139.92 111.39 137.19 124.27 127.93 125.05 C 118.41 124.89 110.58 117.99 104.51 111.24 C 104.25 111.27 103.72 111.33 103.45 111.36 C 95.56 123.40 96.38 140.40 105.30 151.69 C 112.28 161.18 124.32 166.29 135.99 165.70 C 151.23 165.40 166.85 165.42 181.35 170.73 C 188.01 173.21 194.72 176.26 201.99 175.89 C 218.52 176.20 233.92 163.08 236.56 146.82 C 239.42 132.43 232.16 116.77 219.36 109.61 C 210.95 104.52 200.47 104.06 191.13 106.47 C 191.70 110.22 192.49 114.56 189.69 117.67 C 186.12 122.89 177.83 122.99 173.84 118.20 C 163.76 106.81 147.16 102.04 132.55 106.25 M 277.02 128.20 C 270.78 144.13 278.25 163.70 293.37 171.60 C 303.40 177.26 315.98 177.15 326.31 172.31 C 342.00 165.70 359.24 165.22 376.00 165.70 C 388.41 166.39 401.15 160.50 407.96 149.96 C 416.01 138.33 415.80 122.05 408.06 110.31 C 402.15 117.67 393.82 124.81 383.97 125.02 C 374.76 124.19 372.16 111.36 379.44 106.21 C 363.96 101.70 346.98 107.66 336.55 119.63 C 328.12 126.48 316.52 115.83 320.84 106.40 C 303.33 100.99 282.94 110.68 277.02 128.20 M 100.96 175.58 C 95.53 186.44 93.34 199.02 95.69 211.00 C 99.69 236.64 123.96 257.39 150.00 256.86 C 167.19 257.77 183.40 243.95 185.65 226.98 C 188.44 211.30 179.02 194.65 164.28 188.74 C 150.30 182.99 134.77 188.17 120.41 184.36 C 113.40 182.78 106.93 179.51 100.96 175.58 M 379.01 185.85 C 367.88 186.23 355.96 184.34 345.68 189.68 C 332.34 196.07 324.08 211.39 326.20 226.06 C 328.07 242.64 343.12 256.79 359.94 256.84 C 380.90 257.96 401.40 245.48 410.92 226.95 C 419.29 211.16 419.21 191.47 411.06 175.60 C 401.60 181.88 390.48 186.08 379.01 185.85 M 247.54 236.22 C 231.85 238.65 217.79 246.83 205.38 256.39 C 192.17 266.56 176.80 274.63 160.05 276.65 C 133.13 280.46 104.87 268.08 89.05 246.03 C 70.20 266.28 68.15 299.30 84.24 321.77 C 93.98 335.94 109.94 345.64 127.05 347.55 C 154.18 349.99 181.79 340.06 202.04 322.04 C 218.32 308.15 238.95 296.62 261.04 298.49 C 279.96 300.43 296.94 310.67 311.03 322.95 C 331.35 340.60 358.89 350.14 385.80 347.46 C 408.66 344.63 428.92 327.62 435.70 305.61 C 442.54 285.30 437.36 261.85 422.98 246.03 C 407.50 267.51 380.31 279.89 353.94 276.89 C 340.61 275.60 327.88 270.50 316.63 263.36 C 307.50 257.54 299.34 250.26 289.73 245.20 C 276.99 238.15 262.14 233.85 247.54 236.22 Z" />
</g>
<g id="#feffffff">
<path fill="#feffff" opacity="1.00" d=" M 175.75 79.82 C 226.55 59.03 285.46 59.00 336.26 79.83 C 339.02 81.40 341.79 79.31 344.43 78.50 C 361.82 71.99 381.40 73.53 398.30 80.78 C 410.05 78.15 423.47 80.97 431.26 90.70 C 446.19 110.28 448.57 138.35 437.30 160.25 C 447.85 179.66 450.56 203.14 444.44 224.40 C 461.63 242.99 471.17 268.62 468.81 293.97 C 467.29 319.36 453.97 343.45 434.00 359.02 C 432.07 360.46 430.18 362.12 429.48 364.51 C 417.65 395.68 393.64 422.08 363.61 436.59 C 338.55 449.00 309.53 452.46 282.07 447.82 C 269.59 446.38 257.69 437.07 256.02 424.15 C 254.37 435.47 245.01 444.62 233.98 446.98 C 211.63 451.63 188.07 450.56 166.26 443.75 C 128.71 432.08 97.38 402.56 83.10 365.97 C 82.30 363.90 81.60 361.61 79.63 360.35 C 65.81 349.86 54.84 335.55 48.69 319.30 C 36.36 287.37 44.02 249.22 67.55 224.38 C 61.36 203.02 64.33 179.57 74.68 159.98 C 63.63 138.81 65.84 111.91 79.42 92.42 C 85.94 83.31 97.87 78.25 108.94 80.27 C 111.28 80.64 113.77 81.19 116.00 80.05 C 133.12 72.69 153.18 72.43 170.40 79.58 C 172.10 80.40 174.01 80.83 175.75 79.82 M 173.17 91.91 C 154.93 81.98 131.91 82.07 113.80 92.26 C 105.40 88.16 94.25 89.83 88.38 97.41 C 75.61 114.67 74.21 139.45 85.10 158.00 C 87.08 160.50 84.60 163.14 83.53 165.46 C 73.00 184.25 72.01 207.42 78.98 227.61 C 62.67 242.69 52.62 264.67 53.16 287.00 C 52.61 312.83 66.04 338.08 86.91 353.06 C 88.78 354.26 90.46 355.83 91.00 358.07 C 103.04 392.93 131.82 421.56 166.84 433.20 C 187.49 440.24 210.03 441.54 231.39 437.18 C 239.29 435.53 246.78 428.57 245.84 419.97 C 246.18 411.77 237.41 407.54 236.19 399.83 C 232.89 387.36 244.21 373.97 257.05 375.22 C 270.37 375.29 280.29 390.72 274.87 402.89 C 272.47 408.86 265.77 412.88 266.17 419.96 C 265.21 428.61 272.78 435.66 280.76 437.21 C 307.81 442.72 336.77 439.03 361.36 426.36 C 387.88 412.96 408.92 389.35 419.68 361.70 C 420.86 358.74 421.45 355.14 424.51 353.48 C 445.70 338.53 459.40 313.08 458.85 287.00 C 459.41 264.65 449.29 242.73 433.04 227.59 C 440.74 205.52 438.44 180.02 425.59 160.33 C 437.70 141.44 437.03 115.43 423.60 97.42 C 417.70 89.75 406.60 88.27 398.11 92.19 C 380.04 82.12 356.99 81.91 338.89 92.00 C 287.01 68.46 225.10 68.54 173.17 91.91 Z" />
<path fill="#feffff" opacity="1.00" d=" M 132.55 106.25 C 147.16 102.04 163.76 106.81 173.84 118.20 C 177.83 122.99 186.12 122.89 189.69 117.67 C 192.49 114.56 191.70 110.22 191.13 106.47 C 200.47 104.06 210.95 104.52 219.36 109.61 C 232.16 116.77 239.42 132.43 236.56 146.82 C 233.92 163.08 218.52 176.20 201.99 175.89 C 194.72 176.26 188.01 173.21 181.35 170.73 C 166.85 165.42 151.23 165.40 135.99 165.70 C 124.32 166.29 112.28 161.18 105.30 151.69 C 96.38 140.40 95.56 123.40 103.45 111.36 C 103.72 111.33 104.25 111.27 104.51 111.24 C 110.58 117.99 118.41 124.89 127.93 125.05 C 137.19 124.27 139.92 111.39 132.55 106.25 Z" />
<path fill="#feffff" opacity="1.00" d=" M 277.02 128.20 C 282.94 110.68 303.33 100.99 320.84 106.40 C 316.52 115.83 328.12 126.48 336.55 119.63 C 346.98 107.66 363.96 101.70 379.44 106.21 C 372.16 111.36 374.76 124.19 383.97 125.02 C 393.82 124.81 402.15 117.67 408.06 110.31 C 415.80 122.05 416.01 138.33 407.96 149.96 C 401.15 160.50 388.41 166.39 376.00 165.70 C 359.24 165.22 342.00 165.70 326.31 172.31 C 315.98 177.15 303.40 177.26 293.37 171.60 C 278.25 163.70 270.78 144.13 277.02 128.20 Z" />
<path fill="#feffff" opacity="1.00" d=" M 100.96 175.58 C 106.93 179.51 113.40 182.78 120.41 184.36 C 134.77 188.17 150.30 182.99 164.28 188.74 C 179.02 194.65 188.44 211.30 185.65 226.98 C 183.40 243.95 167.19 257.77 150.00 256.86 C 123.96 257.39 99.69 236.64 95.69 211.00 C 93.34 199.02 95.53 186.44 100.96 175.58 Z" />
<path fill="#feffff" opacity="1.00" d=" M 379.01 185.85 C 390.48 186.08 401.60 181.88 411.06 175.60 C 419.21 191.47 419.29 211.16 410.92 226.95 C 401.40 245.48 380.90 257.96 359.94 256.84 C 343.12 256.79 328.07 242.64 326.20 226.06 C 324.08 211.39 332.34 196.07 345.68 189.68 C 355.96 184.34 367.88 186.23 379.01 185.85 Z" />
<path fill="#feffff" opacity="1.00" d=" M 247.54 236.22 C 262.14 233.85 276.99 238.15 289.73 245.20 C 299.34 250.26 307.50 257.54 316.63 263.36 C 327.88 270.50 340.61 275.60 353.94 276.89 C 380.31 279.89 407.50 267.51 422.98 246.03 C 437.36 261.85 442.54 285.30 435.70 305.61 C 428.92 327.62 408.66 344.63 385.80 347.46 C 358.89 350.14 331.35 340.60 311.03 322.95 C 296.94 310.67 279.96 300.43 261.04 298.49 C 238.95 296.62 218.32 308.15 202.04 322.04 C 181.79 340.06 154.18 349.99 127.05 347.55 C 109.94 345.64 93.98 335.94 84.24 321.77 C 68.15 299.30 70.20 266.28 89.05 246.03 C 104.87 268.08 133.13 280.46 160.05 276.65 C 176.80 274.63 192.17 266.56 205.38 256.39 C 217.79 246.83 231.85 238.65 247.54 236.22 Z" />
</g>
</svg>
