<svg xmlns="http://www.w3.org/2000/svg" viewBox="0 0 1024 1024">
  <path d="M512,0a512,512 0,1 1,0 1024A512,512 0,0 1,512 0z" fill="#FFFFFF"/>
  <path d="M693.2,361L704,368.4a328.8,328.8 0,0 1,-39.3 28.4,217.6 217.6,0 0,0 26.7,-35.8q-10,-6.3 -20.5,-11.9a184.9,184.9 0,0 0,23.9 -64.6,12.2 12.2,0 0,1 14.2,-10 12.2,12.2 0,0 1,10.2 14.2,221.6 221.6,0 0,1 -26.2,71.7zM326,372.3a215,215 0,0 1,-36.4 -120.3,353 353,0 0,1 14.2,-79.6 12.2,12.2 0,0 1,23.9 6.3,344.7 344.7,0 0,0 -13.4,73.4 189.7,189.7 0,0 0,33.3 107.8q-10.5,6.3 -20.5,13.7a204.5,204.5 0,0 0,22.5 28.4,287.3 287.3,0 0,1 -35.3,-19.9c4,-2.8 7.7,-6 11.7,-8.5z" fill="#13227a"/>
  <path d="M729.6,387.7a328.8,328.8 0,0 1,45.2 455.1c-27,-72.8 -87.6,-99.8 -156.7,-99.8 -85.3,0 -124,-33.8 -124,-97.3s36.7,-71.1 58.3,-76.8a211.9,211.9 0,0 0,61.2 -23c8,-6.3 4,-23.6 -11.1,-16.8a39.5,39.5 0,0 1,-33.3 4c30.7,0 30.7,-15.9 41,-10.5s11.9,2.3 13.9,0 0,-8.2 5.1,-18.8a12.2,12.2 0,0 0,-14.5 -17.4,157 157,0 0,1 -48.1,-1.4 195.7,195.7 0,0 1,-44.7 -16.5,312.9 312.9,0 0,0 205.9,-82.5c-7.4,-6 -15.4,-11.9 -23,-17.4a468.8,468.8 0,0 0,70.5 -75.9,15.1 15.1,0 0,1 23.9,18.2A500.9,500.9 0,0 1,729.6 386.6zM290.7,401.6c-79.9,-56.9 -125.7,-147.9 -136.2,-271.6a15.1,15.1 0,0 1,13.7 -16.2,15.1 15.1,0 0,1 16.2,13.7q14.8,177.8 130.8,256c-8,6.3 -15.4,12.8 -22.8,19.6a379.7,379.7 0,0 0,152.7 60c-5.4,3.7 -9.7,8.5 -15.1,13.1a123.7,123.7 0,0 0,-134.8 2.3,97.3 97.3,0 0,0 120.6,28.4c14.2,-5.4 23.9,-5.4 23.9,0 -60.3,-3.1 -105.8,129.4 -105.8,278.5a239.5,239.5 0,0 0,49.5 153.3,328.5 328.5,0 0,1 -92.7,-537z" fill="#13227a"/>
  <path d="M346.7,358.4a328.8,328.8 0,0 1,323.7 -10.5,191.7 191.7,0 0,1 -128.3,90.7 275.1,275.1 0,0 1,-56.9 0c-15.9,-2 -31.3,-4.3 -45.8,-7.4a193.1,193.1 0,0 1,-92.4 -72zM290.4,401.6l1.4,0.9 0.6,-0.6 -1.4,-0.9 -0.6,0.6zM729.6,387.7zM326,372.3v-1.4zM693.2,361z" fill="#13227a"/>
</svg>
