<?xml version="1.0" encoding="UTF-8" ?>
<!DOCTYPE svg PUBLIC "-//W3C//DTD SVG 1.1//EN" "http://www.w3.org/Graphics/SVG/1.1/DTD/svg11.dtd">
<svg width="512pt" height="512pt" viewBox="12.08 14.58 483.84 483.84" version="1.1" xmlns="http://www.w3.org/2000/svg">
<g id="#ffffffff">
</g>
<g id="#fd0000ff">
<path fill="#fd0000" opacity="1.00" d=" M 265.36 117.37 C 292.91 116.10 323.40 117.47 346.33 134.68 C 358.71 144.10 365.56 159.57 365.67 174.97 C 366.36 191.32 361.42 208.72 349.01 219.98 C 337.04 231.16 320.26 234.98 304.33 235.45 C 304.35 247.14 304.34 258.84 304.32 270.54 C 291.33 270.57 278.35 270.55 265.37 270.54 C 265.36 219.49 265.38 168.43 265.36 117.37 M 303.77 158.32 C 303.67 171.76 303.71 185.20 303.75 198.64 C 312.15 198.66 320.92 193.93 323.63 185.63 C 325.65 178.70 325.73 170.09 320.45 164.52 C 316.07 160.13 309.66 159.05 303.77 158.32 Z" />
<path fill="#fd0000" opacity="1.00" d=" M 178.41 128.36 C 190.65 124.95 203.12 122.14 215.81 121.15 C 230.75 170.92 245.63 220.71 260.55 270.49 C 246.88 270.64 233.20 270.51 219.53 270.55 C 217.52 264.46 215.72 258.31 213.77 252.20 C 201.98 252.09 190.18 252.21 178.38 252.17 C 176.57 258.26 175.10 264.44 173.33 270.54 C 159.80 270.53 146.28 270.60 132.76 270.51 C 147.67 223.04 163.19 175.74 178.41 128.36 M 197.25 180.20 C 194.50 193.60 190.69 206.76 188.00 220.17 C 193.98 220.20 199.95 220.19 205.93 220.17 C 203.12 206.84 200.90 193.33 197.25 180.20 Z" />
<path fill="#fd0000" opacity="1.00" d=" M 392.96 140.26 C 403.66 143.09 414.08 147.05 423.95 152.07 C 425.94 153.23 428.55 154.18 429.05 156.73 C 441.31 194.68 453.87 232.53 465.98 270.52 C 452.79 270.59 439.60 270.54 426.40 270.55 C 425.13 265.73 423.93 260.88 422.80 256.03 C 410.91 255.65 398.99 255.72 387.10 255.99 C 385.36 260.89 383.46 265.74 381.55 270.57 C 368.68 270.51 355.81 270.60 342.94 270.52 C 359.45 227.04 376.37 183.71 392.96 140.26 M 396.94 226.21 C 402.62 226.23 408.30 226.22 413.97 226.21 C 412.21 215.55 409.15 205.14 406.94 194.56 C 403.22 204.98 399.92 215.56 396.94 226.21 Z" />
<path fill="#fd0000" opacity="1.00" d=" M 54.22 162.59 C 74.35 150.64 98.06 141.22 121.83 145.29 C 132.99 147.24 143.22 154.91 147.07 165.73 C 153.13 182.71 149.96 202.66 139.06 217.01 C 127.68 232.26 109.86 241.29 91.72 245.81 C 91.74 254.06 91.75 262.31 91.72 270.56 C 79.20 270.57 66.68 270.51 54.16 270.59 C 54.02 234.61 54.14 198.60 54.22 162.59 M 91.73 180.90 C 91.75 191.17 91.70 201.44 91.76 211.71 C 99.02 208.68 107.00 204.74 110.16 197.03 C 112.34 191.51 112.81 184.19 108.33 179.68 C 103.46 175.57 96.67 178.31 91.73 180.90 Z" />
<path fill="#fd0000" opacity="1.00" d=" M 141.27 288.12 C 157.17 285.75 174.35 289.62 186.44 300.57 C 208.43 320.19 209.46 358.05 189.39 379.38 C 171.16 398.67 138.29 400.63 117.34 384.67 C 91.62 365.38 90.33 322.40 113.96 300.96 C 121.48 294.04 131.19 289.64 141.27 288.12 M 145.39 317.69 C 129.74 321.55 127.11 342.16 132.93 354.85 C 138.35 368.06 159.07 369.52 166.49 357.44 C 171.89 348.51 171.92 336.60 167.60 327.22 C 163.81 318.99 153.84 315.69 145.39 317.69 Z" />
<path fill="#fd0000" opacity="1.00" d=" M 414.81 292.06 C 430.44 284.47 449.78 286.73 464.67 295.09 C 464.73 304.51 464.68 313.92 464.68 323.34 C 457.78 318.85 449.90 315.93 441.78 314.63 C 438.38 314.25 434.24 313.94 431.70 316.74 C 430.58 319.33 431.60 322.59 434.28 323.73 C 442.64 328.44 452.37 330.79 459.70 337.29 C 471.41 347.01 473.12 365.21 466.23 378.21 C 460.79 388.44 449.04 393.43 437.97 394.37 C 424.77 395.25 410.98 393.36 399.30 386.85 C 399.19 377.08 399.33 367.31 399.24 357.55 C 409.29 364.21 421.54 369.37 433.78 367.91 C 438.44 367.42 439.12 360.80 435.04 358.91 C 424.52 352.66 411.24 349.75 404.00 339.00 C 394.04 324.15 398.13 300.33 414.81 292.06 Z" />
<path fill="#fd0000" opacity="1.00" d=" M 58.66 290.26 C 69.68 290.16 80.69 290.24 91.71 290.21 C 91.73 312.50 91.80 334.78 91.67 357.06 C 91.38 369.02 87.79 382.24 77.40 389.34 C 65.91 396.81 51.04 396.63 38.30 392.76 C 38.18 383.31 38.27 373.85 38.26 364.39 C 44.79 366.72 55.91 368.64 58.43 360.00 C 59.01 336.78 58.53 313.50 58.66 290.26 Z" />
<path fill="#fd0000" opacity="1.00" d=" M 209.16 290.23 C 220.15 290.25 231.15 290.13 242.15 290.30 C 242.18 302.13 242.15 313.96 242.17 325.80 C 249.24 325.78 256.31 325.86 263.38 325.76 C 263.34 313.92 263.37 302.09 263.35 290.26 C 274.33 290.19 285.31 290.19 296.29 290.26 C 296.37 324.31 296.21 358.36 296.37 392.41 C 285.38 392.77 274.37 392.49 263.37 392.55 C 263.32 380.22 263.39 367.89 263.36 355.55 C 256.30 355.51 249.24 355.50 242.18 355.53 C 242.08 367.87 242.27 380.21 242.09 392.55 C 231.12 392.59 220.14 392.57 209.17 392.56 C 209.17 358.45 209.20 324.34 209.16 290.23 Z" />
<path fill="#fd0000" opacity="1.00" d=" M 307.21 290.24 C 316.20 290.51 325.41 289.59 334.26 290.67 C 342.83 305.38 351.37 320.14 359.68 335.01 C 360.08 320.10 359.72 305.18 359.87 290.27 C 370.19 290.16 380.51 290.23 390.83 290.22 C 390.89 324.33 390.92 358.47 390.81 392.58 C 382.43 392.55 374.05 392.61 365.67 392.54 C 356.59 378.24 347.59 363.89 338.48 349.61 C 338.27 363.91 338.45 378.22 338.39 392.53 C 328.00 392.63 317.62 392.54 307.23 392.57 C 307.19 358.46 307.23 324.35 307.21 290.24 Z" />
</g>
</svg>
