<svg xmlns="http://www.w3.org/2000/svg" viewBox="0 0 1038 1024" width="512pt" height="512pt">
  <path d="M503.9,503.9m-487.6,0a487.6,487.6 0,1 0,975.2 0,487.6 487.6,0 1,0 -975.2,0Z" fill="#D8D8D8"/>
  <path d="M1005.9,503.9c0,278.1 -225.7,503.9 -503.9,503.9C223.9,1007.7 -1.8,782 -1.8,503.9 -1.8,225.7 223.9,0 502.1,0c278.1,0 503.9,225.7 503.9,503.9" fill="#FFFFFF"/>
  <path d="M480.4,438.9c0,3.6 -1.8,7.2 1.8,9 12.6,-1.8 34.3,7.2 39.7,-7.2 -5.4,-5.4 -12.6,-7.2 -19.9,-7.2 -7.2,-1.8 -14.4,1.8 -21.7,5.4zM460.5,469.6l1.8,7.2c14.4,9 19.9,27.1 39.7,25.3 18.1,1.8 30.7,-16.3 39.7,-28.9 -25.3,-5.4 -54.2,0 -81.3,-3.6zM861.5,417.2c37.9,10.8 77.7,52.4 117.4,25.3 -36.1,-57.8 -88.5,-112 -74,-189.6 1.8,-5.4 -1.8,-10.8 -7.2,-10.8 -23.5,9 -41.5,32.5 -50.6,54.2 -3.6,12.6 -5.4,27.1 -10.8,39.7 -27.1,-14.4 -56,-28.9 -90.3,-25.3 -12.6,1.8 -28.9,1.8 -32.5,14.4 37.9,19.9 68.6,54.2 92.1,90.3 19.9,-3.6 39.7,-1.8 56,1.8zM733.2,200.5c-27.1,-1.8 -50.6,14.4 -75.9,21.7 -1.8,-21.7 14.4,-45.1 18.1,-66.8 -41.5,1.8 -74,27.1 -108.4,47 -9,-18.1 -16.3,-37.9 -23.5,-56l45.1,-43.3 1.8,-5.4 -61.4,-3.6c-10.8,-18.1 -14.4,-39.7 -27.1,-57.8 -10.8,19.9 -16.3,39.7 -27.1,57.8l-61.4,3.6v3.6l47,41.5c-5.4,21.7 -10.8,45.1 -25.3,61.4 -27.1,-16.3 -54.2,-34.3 -83.1,-45.1 -7.2,-1.8 -18.1,-5.4 -23.5,-1.8 9,19.9 21.7,43.3 19.9,65 -12.6,-1.8 -21.7,-10.8 -34.3,-14.4 -14.4,-3.6 -30.7,-10.8 -43.3,-7.2 23.5,30.7 41.5,65 47,102.9 74,-36.1 162.5,-56 252.8,-39.7 43.3,7.2 81.3,23.5 119.2,37.9 1.8,-37.9 27.1,-68.6 43.3,-101.1zM568.9,359.4h-3.6c-7.2,5.4 -30.7,1.8 -21.7,19.9 14.4,-10.8 34.3,-3.6 48.8,1.8 5.4,-1.8 3.6,-7.2 3.6,-12.6 -5.4,-9 -16.3,-9 -27.1,-9zM592.4,321.5c-10.8,-23.5 -34.3,-32.5 -56,-37.9 -10.8,-1.8 -21.7,-1.8 -32.5,-1.8h-5.4c-30.7,0 -59.6,9 -77.7,34.3 -1.8,7.2 -14.4,18.1 -3.6,23.5 23.5,-1.8 50.6,-3.6 66.8,16.3 0,18.1 10.8,41.5 -7.2,50.6 -16.3,-14.4 -36.1,7.2 -52.4,-5.4 -9,-5.4 -12.6,0 -16.3,7.2 -5.4,47 19.9,97.5 63.2,122.8 18.1,7.2 41.5,12.6 59.6,3.6 45.1,-19.9 63.2,-68.6 70.4,-112 -3.6,-7.2 -3.6,-23.5 -16.3,-23.5 -12.6,9 -32.5,3.6 -47,0 -9,1.8 -9,14.4 -18.1,16.3l-5.4,-5.4c-5.4,-19.9 -7.2,-50.6 10.8,-63.2 21.7,-9 47,-12.6 68.6,-5.4 5.4,-7.2 0,-12.6 -1.8,-19.9zM408.2,370.2c0,5.4 0,12.6 7.2,10.8 10.8,-16.3 32.5,-3.6 45.1,-1.8v-5.4c-7.2,-10.8 -21.7,-16.3 -36.1,-16.3 -3.6,0 -7.2,0 -10.8,1.8 -3.6,0 -7.2,5.4 -5.4,10.8zM289,319.7c-39.7,-25.3 -88.5,-1.8 -124.6,12.6 -3.6,-34.3 -18.1,-65 -47,-88.5l-10.8,-5.4c-1.8,0 -3.6,0 -5.4,3.6 12.6,81.3 -39.7,137.3 -75.9,198.7 12.6,10.8 32.5,9 47,5.4 39.7,-16.3 77.7,-43.3 124.6,-34.3 14.4,-23.5 37.9,-47 56,-65 10.8,-9 27.1,-16.3 36.1,-27.1zM996.9,529.2c0,12.6 1.8,23.5 -3.6,36.1 -52.4,14.4 -84.9,-39.7 -135.4,-30.7l5.4,28.9c47,1.8 75.9,45.1 122.8,43.3 -7.2,12.6 3.6,48.8 -27.1,34.3 -30.7,-7.2 -54.2,-34.3 -88.5,-34.3 -3.6,7.2 -1.8,18.1 -1.8,27.1 36.1,5.4 61.4,36.1 97.5,41.5 -3.6,12.6 -7.2,27.1 -16.3,34.3 -28.9,-7.2 -52.4,-32.5 -83.1,-32.5l-5.4,25.3c28.9,0 48.8,27.1 75.9,34.3 0,10.8 -9,19.9 -14.4,30.7 -23.5,-7.2 -41.5,-27.1 -68.6,-25.3 0,-10.8 5.4,-21.7 3.6,-32.5 -30.7,9 -50.6,-19.9 -74,-36.1 0,-56 -59.6,-92.1 -61.4,-142.7 0,-10.8 1.8,-21.7 5.4,-32.5 19.9,-43.3 12.6,-101.1 -7.2,-142.7 -7.2,-10.8 -18.1,-19.9 -28.9,-25.3 16.3,32.5 34.3,70.4 25.3,112 -1.8,30.7 -19.9,61.4 -19.9,90.3 0,10.8 1.8,21.7 9,32.5 25.3,43.3 68.6,84.9 52.4,140.9 -5.4,16.3 -18.1,30.7 -21.7,47 28.9,23.5 56,50.6 93.9,52.4 12.6,-9 5.4,-47 34.3,-28.9l41.5,19.9c-3.6,10.8 -12.6,19.9 -19.9,28.9 -16.3,-7.2 -30.7,-16.3 -50.6,-16.3 -5.4,5.4 -10.8,12.6 -10.8,21.7 12.6,1.8 25.3,7.2 37.9,16.3 -5.4,10.8 -16.3,18.1 -25.3,27.1l-30.7,-10.8c-5.4,7.2 -16.3,16.3 -12.6,23.5 7.2,3.6 14.4,7.2 19.9,12.6 -14.4,14.4 -30.7,25.3 -48.8,34.3 -14.4,-47 -63.2,-81.3 -57.8,-135.4l-1.8,-1.8c-10.8,12.6 -7.2,32.5 -7.2,48.8 14.4,34.3 45.1,61.4 50.6,99.3 -5.4,9 -18.1,10.8 -28.9,16.3 1.8,-68.6 -102.9,-119.2 -36.1,-189.6 21.7,-34.3 59.6,-66.8 47,-112 -12.6,-45.1 -61.4,-72.2 -61.4,-122.8v-3.6c10.8,-52.4 43.3,-108.4 16.3,-164.3 -7.2,-21.7 -25.3,-48.8 -47,-57.8 34.3,39.7 47,102.9 28.9,155.3 -9,21.7 -23.5,45.1 -25.3,70.4 0,12.6 1.8,25.3 10.8,37.9 25.3,41.5 70.4,88.5 45.1,142.7 -28.9,43.3 -81.3,88.5 -52.4,146.3 19.9,34.3 52.4,68.6 43.3,112l-36.1,1.8c21.7,-79.5 -88.5,-126.4 -41.5,-204.1 28.9,-41.5 79.5,-81.3 50.6,-139.1 -18.1,-34.3 -52.4,-56 -52.4,-99.3l1.8,-7.2c10.8,-61.4 59.6,-121 25.3,-186 -9,-19.9 -25.3,-39.7 -45.1,-50.6l-1.8,1.8c37.9,37.9 50.6,97.5 28.9,148.1 -9,28.9 -30.7,57.8 -34.3,88.5 -1.8,14.4 0,28.9 7.2,45.1 25.3,37.9 66.8,79.5 39.7,130 -28.9,41.5 -75.9,81.3 -56,135.4 19.9,47 63.2,92.1 39.7,149.9l-30.7,5.4c27.1,-56 -14.4,-112 -37.9,-162.5 -28.9,-70.4 63.2,-104.7 65,-168 0,-41.5 -45.1,-65 -54.2,-102.9 -19.9,-16.3 -39.7,7.2 -61.4,1.8 -16.3,3.6 -43.3,-23.5 -52.4,5.4 -12.6,41.5 -66.8,74 -43.3,122.8 23.5,45.1 77.7,77.7 59.6,135.4 -16.3,54.2 -70.4,104.7 -37.9,168 -14.4,-3.6 -39.7,3.6 -39.7,-18.1 -21.7,-75.9 70.4,-119.2 41.5,-195 -12.6,-47 -72.2,-72.2 -59.6,-126.4 9,-45.1 61.4,-77.7 54.2,-128.2 0,-3.6 -1.8,-9 -3.6,-12.6 -19.9,-54.2 -57.8,-108.4 -34.3,-171.6 7.2,-18.1 19.9,-32.5 30.7,-48.8 -37.9,19.9 -56,61.4 -56,104.7 -1.8,47 32.5,86.7 37.9,128.2 1.8,18.1 0,34.3 -12.6,54.2 -25.3,32.5 -56,68.6 -41.5,112 14.4,43.3 68.6,70.4 65,121 0,59.6 -70.4,97.5 -50.6,166.2l-34.3,-10.8c-14.4,-59.6 50.6,-90.3 50.6,-146.3 9,-63.2 -72.2,-86.7 -66.8,-149.9 0,-47 41.5,-77.7 59.6,-117.4 3.6,-9 3.6,-18.1 3.6,-27.1 -1.8,-43.3 -41.5,-77.7 -36.1,-128.2 1.8,-36.1 14.4,-68.6 37.9,-95.7 -32.5,12.6 -47,50.6 -56,81.3 -16.3,50.6 21.7,95.7 25.3,140.9 1.8,19.9 -3.6,39.7 -21.7,59.6 -27.1,32.5 -54.2,72.2 -34.3,115.6 19.9,47 86.7,83.1 57.8,142.7 -16.3,37.9 -52.4,65 -50.6,108.4 -9,-3.6 -19.9,-9 -28.9,-16.3 0,-56 79.5,-90.3 41.5,-149.9 -3.6,10.8 -3.6,27.1 -7.2,39.7 -12.6,34.3 -41.5,61.4 -52.4,97.5 -18.1,-7.2 -36.1,-21.7 -50.6,-36.1l19.9,-12.6c-1.8,-7.2 -9,-14.4 -12.6,-19.9 -12.6,-1.8 -21.7,7.2 -32.5,10.8 -9,-9 -18.1,-16.3 -25.3,-25.3 7.2,-19.9 59.6,-3.6 32.5,-34.3 -18.1,-10.8 -36.1,5.4 -52.4,12.6l-21.7,-27.1c18.1,-10.8 36.1,-27.1 59.6,-21.7 5.4,10.8 5.4,25.3 16.3,30.7 37.9,0 66.8,-30.7 95.7,-52.4 -19.9,-30.7 -37.9,-72.2 -19.9,-110.2 14.4,-37.9 52.4,-68.6 54.2,-110.2 0,-9 -1.8,-19.9 -5.4,-30.7 -19.9,-52.4 -27.1,-122.8 10.8,-168 -21.7,5.4 -34.3,32.5 -41.5,52.4 -23.5,50.6 5.4,97.5 7.2,146.3 0,9 0,18.1 -1.8,27.1 -19.9,39.7 -52.4,75.9 -57.8,121 -23.5,14.4 -41.5,39.7 -74,30.7 -1.8,9 1.8,21.7 3.6,30.7 -25.3,-1.8 -43.3,18.1 -65,27.1 -10.8,-3.6 -14.4,-18.1 -19.9,-28.9 25.3,-9 43.3,-34.3 74,-34.3 3.6,-9 -1.8,-18.1 -3.6,-27.1 -36.1,-16.3 -93.9,79.5 -99.3,-3.6 36.1,-1.8 59.6,-36.1 95.7,-39.7l1.8,-27.1c-41.5,-3.6 -66.8,37.9 -108.4,34.3l-9,-36.1c47,3.6 75.9,-39.7 121,-41.5 5.4,-7.2 7.2,-19.9 7.2,-30.7 -45.1,-5.4 -79.5,48.8 -131.8,32.5 0,0 -1.8,-23.5 -3.6,-36.1v-9c47,18.1 88.5,-16.3 128.2,-32.5 10.8,-3.6 25.3,1.8 30.7,-9 0,-9 16.3,-18.1 1.8,-25.3 -57.8,-7.2 -97.5,61.4 -157.1,30.7l-3.6,-9C16.3,305.2 112,140.9 272.7,61.4c65,-36.1 144.5,-56 225.7,-56 97.5,0 195,25.3 269.1,75.9 70.4,43.3 139.1,115.6 175.2,187.8 36.1,63.2 52.4,135.4 56,211.3 -61.4,47 -102.9,-43.3 -166.2,-23.5 3.6,9 5.4,19.9 12.6,28.9 56,0 93.9,57.8 151.7,34.3v9zM498.5,178.8c18.1,10.8 36.1,23.5 50.6,37.9l-5.4,5.4c-28.9,-3.6 -57.8,0 -84.9,1.8 -3.6,-3.6 -9,-7.2 -3.6,-10.8l43.3,-34.3z" fill="#106E33"/>
  <path d="M460.5,460.5h83.1v-34.3h-83.1z" fill="#FFFFFF"/>
  <path d="M475,444.3c10.8,1.8 12.6,5.4 21.7,7.2 9,0 7.2,-1.8 23.5,-7.2 1.8,0 1.8,-1.8 0,-3.6 -9,-9 -16.3,-3.6 -21.7,-1.8 -7.2,0 -16.3,-7.2 -23.5,1.8 -1.8,0 -1.8,1.8 0,3.6" fill="#106E33"/>
</svg>
