<?xml version="1.0" encoding="UTF-8" ?>
<!DOCTYPE svg PUBLIC "-//W3C//DTD SVG 1.1//EN" "http://www.w3.org/Graphics/SVG/1.1/DTD/svg11.dtd">
<svg width="512pt" height="512pt" viewBox="9.72 10.22 490.56 490.56" version="1.1" xmlns="http://www.w3.org/2000/svg">
<g id="#ffffffff">
</g>
<g id="#f3c50dff">
<path fill="#f3c50d" opacity="1.00" d=" M 238.00 64.67 C 279.80 64.63 321.60 64.35 363.40 64.35 C 399.95 127.93 437.13 191.16 473.46 254.85 C 437.24 318.32 401.23 381.92 365.26 445.54 C 292.35 446.41 219.42 446.41 146.49 446.53 C 109.71 383.34 73.33 319.92 36.45 256.79 C 72.25 192.89 108.78 129.38 144.70 65.54 C 175.80 65.05 206.94 65.99 238.00 64.67 M 166.16 145.39 C 193.32 145.48 220.48 145.44 247.65 145.41 C 247.71 134.66 247.66 123.91 247.68 113.17 C 217.97 114.70 188.96 126.33 166.16 145.39 M 265.37 113.21 C 265.33 123.94 265.34 134.67 265.37 145.40 C 292.24 145.46 319.11 145.47 345.98 145.39 C 323.40 126.54 294.76 114.96 265.37 113.21 M 151.17 159.70 C 141.26 171.27 132.44 184.04 126.84 198.28 C 167.11 198.36 207.39 198.30 247.67 198.31 C 247.55 185.37 247.93 172.42 247.48 159.50 C 215.38 159.75 183.27 159.36 151.17 159.70 M 265.60 198.42 C 305.55 198.15 345.51 198.43 385.46 198.28 C 379.45 184.17 371.02 171.14 360.85 159.67 C 329.07 159.41 297.27 159.69 265.48 159.53 C 265.33 172.48 265.10 185.48 265.60 198.42 M 121.44 212.41 C 117.99 223.81 115.86 235.64 115.41 247.56 C 159.50 247.62 203.58 247.59 247.67 247.57 C 247.67 235.85 247.69 224.12 247.66 212.40 C 205.59 212.36 163.51 212.35 121.44 212.41 M 265.35 212.41 C 265.34 224.12 265.33 235.84 265.36 247.56 C 309.14 247.61 352.91 247.60 396.69 247.57 C 396.32 235.64 394.10 223.81 390.68 212.40 C 348.90 212.37 307.13 212.35 265.35 212.41 M 115.47 261.66 C 116.07 273.58 118.17 285.46 121.88 296.81 C 211.39 296.73 300.90 296.97 390.40 296.69 C 393.80 285.31 396.18 273.55 396.62 261.66 C 302.91 261.65 209.19 261.64 115.47 261.66 M 127.26 310.94 C 132.83 323.78 140.29 335.99 149.79 346.31 C 220.79 346.10 291.80 346.37 362.80 346.18 C 371.70 335.52 379.52 323.80 384.81 310.92 C 298.96 310.86 213.11 310.84 127.26 310.94 M 163.43 360.38 C 177.19 372.29 193.15 381.71 210.40 387.57 C 257.03 404.07 311.75 393.21 348.72 360.40 C 286.96 360.26 225.19 360.29 163.43 360.38 Z" />
</g>
<g id="#000001ff">
<path fill="#000001" opacity="1.00" d=" M 166.16 145.39 C 188.96 126.33 217.97 114.70 247.68 113.17 C 247.66 123.91 247.71 134.66 247.65 145.41 C 220.48 145.44 193.32 145.48 166.16 145.39 Z" />
<path fill="#000001" opacity="1.00" d=" M 265.37 113.21 C 294.76 114.96 323.40 126.54 345.98 145.39 C 319.11 145.47 292.24 145.46 265.37 145.40 C 265.34 134.67 265.33 123.94 265.37 113.21 Z" />
<path fill="#000001" opacity="1.00" d=" M 151.17 159.70 C 183.27 159.36 215.38 159.75 247.48 159.50 C 247.93 172.42 247.55 185.37 247.67 198.31 C 207.39 198.30 167.11 198.36 126.84 198.28 C 132.44 184.04 141.26 171.27 151.17 159.70 Z" />
<path fill="#000001" opacity="1.00" d=" M 265.60 198.42 C 265.10 185.48 265.33 172.48 265.48 159.53 C 297.27 159.69 329.07 159.41 360.85 159.67 C 371.02 171.14 379.45 184.17 385.46 198.28 C 345.51 198.43 305.55 198.15 265.60 198.42 Z" />
<path fill="#000001" opacity="1.00" d=" M 121.44 212.41 C 163.51 212.35 205.59 212.36 247.66 212.40 C 247.69 224.12 247.67 235.85 247.67 247.57 C 203.58 247.59 159.50 247.62 115.41 247.56 C 115.86 235.64 117.99 223.81 121.44 212.41 Z" />
<path fill="#000001" opacity="1.00" d=" M 265.35 212.41 C 307.13 212.35 348.90 212.37 390.68 212.40 C 394.10 223.81 396.32 235.64 396.69 247.57 C 352.91 247.60 309.14 247.61 265.36 247.56 C 265.33 235.84 265.34 224.12 265.35 212.41 Z" />
<path fill="#000001" opacity="1.00" d=" M 115.47 261.66 C 209.19 261.64 302.91 261.65 396.62 261.66 C 396.18 273.55 393.80 285.31 390.40 296.69 C 300.90 296.97 211.39 296.73 121.88 296.81 C 118.17 285.46 116.07 273.58 115.47 261.66 Z" />
<path fill="#000001" opacity="1.00" d=" M 127.26 310.94 C 213.11 310.84 298.96 310.86 384.81 310.92 C 379.52 323.80 371.70 335.52 362.80 346.18 C 291.80 346.37 220.79 346.10 149.79 346.31 C 140.29 335.99 132.83 323.78 127.26 310.94 Z" />
<path fill="#000001" opacity="1.00" d=" M 163.43 360.38 C 225.19 360.29 286.96 360.26 348.72 360.40 C 311.75 393.21 257.03 404.07 210.40 387.57 C 193.15 381.71 177.19 372.29 163.43 360.38 Z" />
</g>
</svg>
