<?xml version="1.0" encoding="UTF-8" ?>
<!DOCTYPE svg PUBLIC "-//W3C//DTD SVG 1.1//EN" "http://www.w3.org/Graphics/SVG/1.1/DTD/svg11.dtd">
<svg width="512pt" height="512pt" viewBox="51.04 50.54 409.92 409.92" version="1.1" xmlns="http://www.w3.org/2000/svg">
<g id="#ffffffff">
</g>
<g id="#e50112ff">
<path fill="#e50112" opacity="1.00" d=" M 246.70 126.96 C 259.83 123.49 274.63 128.24 283.43 138.56 C 289.86 145.64 291.88 155.24 294.98 163.99 C 308.85 204.90 322.38 245.93 336.41 286.78 C 348.99 243.00 360.82 199.01 373.20 155.18 C 375.71 145.72 382.42 137.10 391.84 133.80 C 406.22 128.44 424.65 132.38 433.85 145.17 C 440.14 154.08 439.53 166.00 435.78 175.80 C 414.19 237.07 392.23 298.21 370.54 359.45 C 366.02 372.80 354.65 384.80 340.04 386.07 C 323.28 387.86 308.38 374.97 303.29 359.71 C 292.60 327.42 281.97 295.11 271.36 262.79 C 268.29 253.13 258.00 246.57 247.94 247.89 C 239.70 248.42 232.61 254.31 230.04 262.08 C 222.46 263.54 214.85 265.31 207.90 268.76 C 215.19 269.83 222.53 271.47 228.98 275.17 C 228.69 281.85 225.97 288.43 220.86 292.85 C 215.09 298.44 206.34 303.08 205.74 312.00 C 205.96 319.59 214.16 323.87 221.03 322.52 C 216.39 336.44 212.72 350.71 207.38 364.37 C 201.10 378.42 185.48 388.42 169.93 385.79 C 156.75 383.91 146.50 373.03 142.25 360.85 C 121.18 297.91 97.04 236.04 75.77 173.16 C 71.82 162.84 73.19 150.17 81.01 142.01 C 92.77 130.03 113.55 127.76 127.23 137.76 C 133.88 142.60 137.86 150.22 140.02 158.00 C 152.06 200.97 163.91 243.99 176.03 286.94 C 191.80 241.18 206.84 195.18 222.47 149.39 C 226.15 138.52 235.44 129.58 246.70 126.96 M 246.93 216.92 C 242.93 221.07 241.45 226.80 239.28 231.98 C 230.88 230.62 233.19 221.37 236.60 216.34 C 231.94 216.01 228.64 219.69 225.90 222.93 C 220.15 230.13 217.09 239.66 218.43 248.86 C 219.08 252.97 223.70 256.47 227.82 254.87 C 233.27 253.12 236.45 247.67 241.81 245.68 C 252.95 240.91 265.51 244.86 275.58 250.42 C 281.93 253.67 287.34 259.78 294.95 259.71 C 300.66 260.14 305.87 257.52 310.86 255.11 C 303.39 253.35 301.25 245.50 300.09 238.92 C 298.75 231.08 293.23 223.31 285.03 221.82 C 279.21 220.54 273.64 223.10 268.42 225.34 C 266.15 226.51 262.54 225.79 262.27 222.83 C 260.89 216.77 266.83 213.25 269.60 208.75 C 261.37 208.10 252.56 210.67 246.93 216.92 Z" />
<path fill="#e50112" opacity="1.00" d=" M 244.34 263.21 C 247.47 260.97 252.09 264.20 251.55 267.86 C 251.30 270.78 247.96 273.11 245.17 271.85 C 241.45 270.87 240.95 264.90 244.34 263.21 Z" />
</g>
<g id="#fdd701ff">
<path fill="#fdd701" opacity="1.00" d=" M 246.93 216.92 C 252.56 210.67 261.37 208.10 269.60 208.75 C 266.83 213.25 260.89 216.77 262.27 222.83 C 262.54 225.79 266.15 226.51 268.42 225.34 C 273.64 223.10 279.21 220.54 285.03 221.82 C 293.23 223.31 298.75 231.08 300.09 238.92 C 301.25 245.50 303.39 253.35 310.86 255.11 C 305.87 257.52 300.66 260.14 294.95 259.71 C 287.34 259.78 281.93 253.67 275.58 250.42 C 265.51 244.86 252.95 240.91 241.81 245.68 C 236.45 247.67 233.27 253.12 227.82 254.87 C 223.70 256.47 219.08 252.97 218.43 248.86 C 217.09 239.66 220.15 230.13 225.90 222.93 C 228.64 219.69 231.94 216.01 236.60 216.34 C 233.19 221.37 230.88 230.62 239.28 231.98 C 241.45 226.80 242.93 221.07 246.93 216.92 Z" />
</g>
</svg>
