<?xml version="1.0" encoding="UTF-8" ?>
<!DOCTYPE svg PUBLIC "-//W3C//DTD SVG 1.1//EN" "http://www.w3.org/Graphics/SVG/1.1/DTD/svg11.dtd">
<svg width="512pt" height="512pt" viewBox="23.04 23.04 465.92 465.92" version="1.1" xmlns="http://www.w3.org/2000/svg">
<g id="#006fffff">
</g>
<g id="#e5eef5ff">
<path fill="#e5eef5" opacity="1.00" d=" M 189.71 59.78 C 206.65 51.91 225.56 49.78 244.01 48.65 C 266.37 48.19 289.24 49.78 310.43 57.47 C 318.42 60.72 327.65 64.98 330.38 73.95 C 292.46 57.31 249.17 55.78 209.02 64.24 C 197.49 66.46 186.71 71.25 176.05 76.02 C 175.77 67.96 183.29 62.94 189.71 59.78 Z" />
<path fill="#e5eef5" opacity="1.00" d=" M 416.98 216.03 C 433.39 229.20 440.07 250.64 441.50 270.93 C 442.19 285.79 441.72 301.42 435.08 315.05 C 426.96 332.18 409.58 344.06 391.04 346.97 C 419.03 310.20 426.47 260.60 416.98 216.03 Z" />
<path fill="#e5eef5" opacity="1.00" d=" M 69.74 274.01 C 70.85 253.28 76.24 230.30 93.11 216.65 C 86.47 250.30 88.89 286.16 102.25 317.90 C 106.21 327.48 112.24 335.94 117.33 344.92 C 100.92 342.48 86.08 331.41 77.95 317.04 C 70.53 304.05 69.45 288.64 69.74 274.01 Z" />
</g>
<g id="#ffffffff">
<path fill="#ffffff" opacity="1.00" d=" M 209.02 64.24 C 249.17 55.78 292.46 57.31 330.38 73.95 C 347.21 81.85 362.18 93.65 373.85 108.13 C 398.50 138.87 410.34 177.75 416.98 216.03 C 426.47 260.60 419.03 310.20 391.04 346.97 C 372.87 370.47 345.89 385.87 317.54 393.71 C 304.38 397.39 290.88 399.73 277.28 401.06 C 262.97 402.63 248.54 402.71 234.23 401.15 C 220.57 399.85 206.98 397.63 193.75 393.97 C 163.99 386.08 136.28 369.42 117.33 344.92 C 112.24 335.94 106.21 327.48 102.25 317.90 C 88.89 286.16 86.47 250.30 93.11 216.65 C 98.64 186.10 107.08 155.60 122.57 128.49 C 135.11 106.57 153.25 87.30 176.05 76.02 C 186.71 71.25 197.49 66.46 209.02 64.24 M 216.01 79.60 C 196.13 81.32 175.69 84.87 158.43 95.47 C 145.67 103.19 135.85 115.23 129.94 128.85 C 119.61 152.48 118.41 178.86 119.81 204.27 C 121.27 219.50 128.77 233.73 139.65 244.35 C 161.76 265.54 192.47 274.54 222.10 278.82 C 228.60 281.99 236.03 281.64 242.96 283.19 C 251.44 284.98 260.26 284.76 268.72 282.96 C 275.21 281.56 282.16 281.87 288.22 278.82 C 312.16 275.51 336.19 268.94 356.67 255.71 C 370.78 246.58 382.87 233.38 388.02 217.14 C 392.33 204.20 391.01 190.39 391.10 177.00 C 389.38 151.67 383.66 124.49 365.15 105.84 C 345.53 86.02 316.42 81.04 289.73 79.26 C 265.20 77.87 240.53 77.85 216.01 79.60 Z" />
</g>
<g id="#000000ff">
<path fill="#000000" opacity="1.00" d=" M 216.01 79.60 C 240.53 77.85 265.20 77.87 289.73 79.26 C 316.42 81.04 345.53 86.02 365.15 105.84 C 383.66 124.49 389.38 151.67 391.10 177.00 C 391.01 190.39 392.33 204.20 388.02 217.14 C 382.87 233.38 370.78 246.58 356.67 255.71 C 336.19 268.94 312.16 275.51 288.22 278.82 C 287.35 276.81 286.24 274.87 284.36 273.65 C 276.71 267.97 269.30 261.98 261.65 256.31 C 257.87 253.37 252.21 253.46 248.48 256.43 C 241.05 261.99 233.82 267.83 226.37 273.37 C 224.38 274.69 223.14 276.73 222.10 278.82 C 192.47 274.54 161.76 265.54 139.65 244.35 C 128.77 233.73 121.27 219.50 119.81 204.27 C 118.41 178.86 119.61 152.48 129.94 128.85 C 135.85 115.23 145.67 103.19 158.43 95.47 C 175.69 84.87 196.13 81.32 216.01 79.60 M 245.45 154.75 C 221.39 159.11 202.53 182.54 203.96 207.01 C 204.72 215.02 215.61 218.90 221.27 213.26 C 225.11 210.37 224.42 205.20 225.16 201.02 C 226.86 187.94 237.99 176.74 251.12 175.15 C 268.23 172.07 285.60 186.65 285.90 203.98 C 285.55 209.44 289.19 215.36 295.00 215.77 C 300.51 216.82 306.25 212.47 306.70 206.88 C 307.41 194.61 302.94 182.28 295.23 172.79 C 283.61 158.30 263.69 150.88 245.45 154.75 Z" />
</g>
<g id="#01f4c4ff">
<path fill="#01f4c4" opacity="1.00" d=" M 245.45 154.75 C 263.69 150.88 283.61 158.30 295.23 172.79 C 302.94 182.28 307.41 194.61 306.70 206.88 C 306.25 212.47 300.51 216.82 295.00 215.77 C 289.19 215.36 285.55 209.44 285.90 203.98 C 285.60 186.65 268.23 172.07 251.12 175.15 C 237.99 176.74 226.86 187.94 225.16 201.02 C 224.42 205.20 225.11 210.37 221.27 213.26 C 215.61 218.90 204.72 215.02 203.96 207.01 C 202.53 182.54 221.39 159.11 245.45 154.75 Z" />
<path fill="#01f4c4" opacity="1.00" d=" M 248.48 256.43 C 252.21 253.46 257.87 253.37 261.65 256.31 C 269.30 261.98 276.71 267.97 284.36 273.65 C 286.24 274.87 287.35 276.81 288.22 278.82 C 282.16 281.87 275.21 281.56 268.72 282.96 C 260.26 284.76 251.44 284.98 242.96 283.19 C 236.03 281.64 228.60 281.99 222.10 278.82 C 223.14 276.73 224.38 274.69 226.37 273.37 C 233.82 267.83 241.05 261.99 248.48 256.43 Z" />
<path fill="#01f4c4" opacity="1.00" d=" M 277.42 410.78 C 277.57 415.11 278.17 419.42 279.21 423.63 C 291.72 424.03 304.23 423.49 316.73 423.62 C 317.16 426.33 317.61 429.04 318.01 431.75 C 325.80 434.95 334.66 438.30 338.93 446.11 C 341.72 450.82 340.03 457.65 335.09 460.19 C 327.12 464.54 317.75 463.68 309.00 463.85 C 300.07 463.74 290.68 464.44 282.30 460.76 C 278.49 459.16 275.60 455.29 276.22 451.03 C 277.34 437.63 275.89 424.15 277.42 410.78 Z" />
<path fill="#01f4c4" opacity="1.00" d=" M 193.75 420.75 C 194.34 421.83 194.97 422.91 195.58 424.00 C 207.96 423.98 220.57 422.71 232.81 424.82 C 233.28 423.76 233.75 422.68 234.19 421.62 C 234.98 431.07 233.64 440.64 235.26 450.03 C 235.99 454.29 233.45 458.92 229.45 460.59 C 221.19 464.39 211.85 463.75 203.00 463.85 C 193.94 463.70 184.21 464.61 175.99 460.04 C 170.60 456.98 169.89 449.20 173.42 444.47 C 178.04 437.56 186.33 434.84 193.56 431.59 C 193.63 427.98 193.62 424.36 193.75 420.75 Z" />
</g>
<g id="#01c99dff">
<path fill="#01c99d" opacity="1.00" d=" M 193.75 393.97 C 206.98 397.63 220.57 399.85 234.23 401.15 C 234.52 407.96 234.66 414.82 234.19 421.62 C 233.75 422.68 233.28 423.76 232.81 424.82 C 220.57 422.71 207.96 423.98 195.58 424.00 C 194.97 422.91 194.34 421.83 193.75 420.75 C 193.44 411.84 193.56 402.89 193.75 393.97 Z" />
<path fill="#01c99d" opacity="1.00" d=" M 277.28 401.06 C 290.88 399.73 304.38 397.39 317.54 393.71 C 317.99 406.39 317.35 419.08 318.01 431.75 C 317.61 429.04 317.16 426.33 316.73 423.62 C 304.23 423.49 291.72 424.03 279.21 423.63 C 278.17 419.42 277.57 415.11 277.42 410.78 C 277.26 407.54 277.29 404.30 277.28 401.06 Z" />
</g>
</svg>
