<?xml version="1.0" encoding="UTF-8" ?>
<!DOCTYPE svg PUBLIC "-//W3C//DTD SVG 1.1//EN" "http://www.w3.org/Graphics/SVG/1.1/DTD/svg11.dtd">
<svg width="512pt" height="512pt" viewBox="0 0 335 319" version="1.1" xmlns="http://www.w3.org/2000/svg">
<g id="#ffffffff">
<path fill="#ffffff" opacity="1.00" d=" M 188.34 126.33 C 190.08 125.99 192.40 125.77 193.50 127.52 C 197.19 133.55 197.77 141.43 202.11 146.94 C 220.43 151.44 239.37 154.95 256.25 163.77 C 260.90 165.82 258.97 173.80 253.95 173.72 C 217.09 176.22 180.20 180.03 144.00 187.63 C 119.91 192.21 96.05 198.07 72.00 202.74 C 67.73 204.01 65.33 198.33 69.00 196.02 C 82.99 184.48 98.44 174.64 114.87 166.93 C 126.86 161.98 124.10 141.61 138.32 140.07 C 155.04 135.65 171.60 130.63 188.34 126.33 Z" />
</g>
<g id="#ce142cff">
<path fill="#ce142c" opacity="1.00" d=" M 111.68 38.75 C 135.35 31.05 159.95 24.97 185.01 25.27 C 224.60 25.32 267.16 41.32 289.34 75.63 C 305.89 100.73 314.51 130.94 313.88 161.00 C 313.78 184.00 310.49 207.48 300.37 228.36 C 290.22 249.54 273.69 266.99 255.26 281.26 C 247.31 287.82 238.19 292.89 228.56 296.53 C 224.54 297.91 219.99 299.48 215.94 297.31 C 219.25 292.37 224.71 289.77 229.46 286.50 C 247.30 274.79 263.37 259.91 274.52 241.58 C 295.23 208.00 298.31 165.88 288.88 128.14 C 285.53 115.03 281.68 101.59 273.28 90.71 C 256.66 68.81 232.00 53.62 205.64 46.42 C 199.08 45.02 192.17 42.49 185.49 44.52 C 185.00 47.96 190.65 47.96 193.16 48.69 C 221.55 51.95 246.40 69.12 264.67 90.34 C 280.94 111.52 285.15 139.00 285.47 165.02 C 286.88 201.05 270.87 236.37 245.65 261.64 C 206.91 301.77 143.83 316.74 91.39 297.53 C 69.40 289.16 49.47 273.69 38.27 252.73 C 34.97 246.17 31.54 238.41 34.71 231.13 C 43.75 233.49 47.61 243.15 53.42 249.56 C 70.64 272.64 97.56 287.44 126.01 291.03 C 130.37 291.46 135.00 293.05 139.24 291.19 C 135.21 286.97 129.02 288.54 123.94 286.99 C 91.03 278.72 61.01 256.64 46.17 225.75 C 39.89 214.21 38.78 200.84 37.88 187.99 C 37.24 170.99 37.35 153.76 41.14 137.10 C 49.89 103.87 75.14 75.98 106.61 62.60 C 112.36 59.72 118.82 58.59 124.49 55.56 C 122.46 55.38 120.41 55.15 118.40 55.51 C 89.31 62.94 62.89 81.78 48.14 108.18 C 36.24 128.70 32.05 152.62 31.28 176.06 C 31.92 180.29 26.22 182.57 23.61 179.43 C 19.42 173.94 19.95 166.52 19.54 159.99 C 18.37 125.54 33.91 91.37 59.66 68.67 C 74.99 55.65 92.73 45.50 111.68 38.75 M 188.34 126.33 C 171.60 130.63 155.04 135.65 138.32 140.07 C 124.10 141.61 126.86 161.98 114.87 166.93 C 98.44 174.64 82.99 184.48 69.00 196.02 C 65.33 198.33 67.73 204.01 72.00 202.74 C 96.05 198.07 119.91 192.21 144.00 187.63 C 180.20 180.03 217.09 176.22 253.95 173.72 C 258.97 173.80 260.90 165.82 256.25 163.77 C 239.37 154.95 220.43 151.44 202.11 146.94 C 197.77 141.43 197.19 133.55 193.50 127.52 C 192.40 125.77 190.08 125.99 188.34 126.33 Z" />
<path fill="#ce142c" opacity="1.00" d=" M 20.29 191.30 C 26.45 188.81 33.33 194.57 33.18 200.96 C 33.12 207.36 33.47 213.73 35.48 219.84 C 30.95 227.53 18.69 220.78 17.54 213.42 C 16.14 206.43 13.76 196.18 20.29 191.30 Z" />
</g>
</svg>
