<?xml version="1.0" encoding="UTF-8" ?>
<!DOCTYPE svg PUBLIC "-//W3C//DTD SVG 1.1//EN" "http://www.w3.org/Graphics/SVG/1.1/DTD/svg11.dtd">
<svg width="512pt" height="512pt" viewBox="22.523 20.685 325.5 314.125" version="1.1" xmlns="http://www.w3.org/2000/svg">
<g id="#ffffffff">
</g>
<g id="#036649ff">
<path fill="#036649" opacity="1.00" d=" M 200.53 88.62 C 203.33 74.99 205.33 61.19 208.34 47.61 C 249.11 47.83 289.88 47.61 330.64 47.72 C 328.78 56.78 327.04 65.86 325.37 74.95 C 289.43 75.40 253.46 75.00 217.51 75.16 C 214.97 88.33 212.65 101.55 210.17 114.74 C 210.04 116.23 208.29 116.28 207.17 116.23 C 186.00 116.20 164.84 116.20 143.67 116.22 C 142.80 120.63 141.93 125.05 141.21 129.49 C 168.05 129.54 194.89 129.52 221.73 129.50 C 224.53 115.89 226.87 102.20 229.66 88.59 C 260.67 88.63 291.67 88.51 322.68 88.50 C 321.04 97.59 319.29 106.66 317.58 115.74 C 291.69 115.84 265.79 115.63 239.91 115.90 C 239.66 116.10 239.16 116.48 238.91 116.67 C 236.14 129.97 233.77 143.36 231.19 156.70 C 199.61 156.74 168.01 156.88 136.43 156.63 C 134.76 161.07 134.49 165.87 133.41 170.47 C 155.50 170.64 177.59 170.58 199.69 170.65 C 195.35 193.41 191.15 216.19 186.87 238.97 C 164.76 239.24 142.62 238.50 120.49 238.82 C 119.64 243.36 118.72 247.89 118.06 252.47 C 144.93 252.57 171.80 252.47 198.66 252.51 C 204.13 225.26 208.75 197.82 214.35 170.60 C 245.39 170.74 276.44 170.66 307.48 170.72 C 305.63 179.72 303.92 188.76 302.16 197.78 C 275.96 197.83 249.75 197.81 223.55 197.76 C 218.09 224.40 213.51 251.23 208.29 277.93 C 207.57 282.21 201.97 279.32 199.01 279.86 C 170.24 280.04 141.41 279.31 112.68 280.22 C 112.05 284.64 111.15 289.01 110.34 293.40 C 146.89 293.42 183.45 293.43 220.00 293.39 C 225.00 266.07 230.10 238.77 235.41 211.51 C 256.81 211.58 278.22 211.56 299.63 211.62 C 297.91 220.70 296.30 229.80 294.52 238.87 C 277.95 239.04 261.36 238.49 244.82 239.16 C 239.83 266.40 234.57 293.60 229.46 320.83 C 183.17 320.82 136.87 320.86 90.57 320.81 C 95.80 293.50 100.94 266.17 105.89 238.81 C 83.97 238.79 62.05 238.82 40.13 238.80 C 44.22 216.01 48.68 193.29 52.85 170.52 C 74.92 170.47 96.99 170.61 119.06 170.45 C 124.02 143.13 129.09 115.83 134.35 88.57 C 156.41 88.68 178.47 88.58 200.53 88.62 M 59.93 211.53 C 77.03 211.53 94.12 211.56 111.22 211.51 C 111.98 206.92 112.98 202.37 113.72 197.77 C 96.63 197.74 79.54 197.82 62.46 197.74 C 61.25 202.26 60.51 206.89 59.93 211.53 M 125.97 211.36 C 143.11 211.37 160.26 211.35 177.40 211.37 C 178.24 206.84 179.30 202.35 179.85 197.77 C 162.73 197.76 145.62 197.80 128.50 197.75 C 127.40 202.24 126.51 206.77 125.97 211.36 Z" />
</g>
</svg>
