<?xml version="1.0" encoding="UTF-8" ?>
<!DOCTYPE svg PUBLIC "-//W3C//DTD SVG 1.1//EN" "http://www.w3.org/Graphics/SVG/1.1/DTD/svg11.dtd">
<svg width="512pt" height="512pt" viewBox="0 0 1316 380" version="1.1" xmlns="http://www.w3.org/2000/svg">
<g id="#000000ff">
<path fill="#000000" opacity="1.00" d=" M 1189.42 1.52 C 1223.95 -2.96 1262.16 3.19 1288.58 27.40 C 1317.02 52.97 1323.37 97.92 1306.48 131.60 C 1292.82 159.59 1263.01 176.40 1233.00 180.82 C 1198.47 185.91 1160.16 180.44 1132.98 157.04 C 1101.61 130.47 1096.06 80.97 1116.05 46.04 C 1131.14 20.08 1160.34 5.22 1189.42 1.52 M 1201.45 32.63 C 1185.16 33.73 1168.48 38.99 1156.44 50.42 C 1136.13 69.98 1134.64 105.15 1151.77 127.17 C 1165.74 144.75 1189.41 150.73 1210.97 150.46 C 1228.29 150.25 1246.37 146.23 1260.08 135.11 C 1286.60 113.84 1286.22 67.50 1259.11 46.87 C 1242.87 34.39 1221.41 31.19 1201.45 32.63 Z" />
<path fill="#000000" opacity="1.00" d=" M 17.26 7.78 C 32.25 7.72 47.24 7.74 62.23 7.77 C 62.28 48.00 62.25 88.22 62.24 128.44 C 102.48 128.57 142.72 128.47 182.96 128.49 C 183.03 143.49 183.03 158.50 182.96 173.51 C 127.73 173.48 72.50 173.51 17.27 173.50 C 17.22 118.26 17.25 63.02 17.26 7.78 Z" />
<path fill="#000000" opacity="1.00" d=" M 216.02 7.77 C 231.52 7.80 247.02 7.61 262.52 7.87 C 262.47 63.07 262.54 118.28 262.48 173.48 C 247.00 173.54 231.52 173.48 216.04 173.51 C 215.96 118.26 216.00 63.02 216.02 7.77 Z" />
<path fill="#000000" opacity="1.00" d=" M 295.26 7.78 C 309.66 7.72 324.07 7.74 338.47 7.77 C 338.58 44.02 338.40 80.28 338.57 116.53 C 369.51 80.39 400.11 43.94 431.01 7.77 C 448.17 7.74 465.32 7.73 482.47 7.77 C 482.52 63.01 482.51 118.24 482.48 173.48 C 468.06 173.50 453.65 173.56 439.23 173.44 C 439.22 137.20 439.34 100.96 439.17 64.72 C 408.31 100.89 377.62 137.22 346.85 173.46 C 329.64 173.52 312.44 173.55 295.23 173.44 C 295.27 118.22 295.22 63.00 295.26 7.78 Z" />
<path fill="#000000" opacity="1.00" d=" M 515.49 7.86 C 530.40 7.62 545.31 7.79 560.23 7.77 C 560.27 47.99 560.26 88.21 560.23 128.43 C 600.47 128.58 640.72 128.47 680.96 128.49 C 681.03 143.49 681.03 158.50 680.96 173.51 C 625.81 173.47 570.67 173.54 515.52 173.48 C 515.46 118.27 515.53 63.07 515.49 7.86 Z" />
<path fill="#000000" opacity="1.00" d=" M 714.02 7.77 C 769.75 7.74 825.49 7.73 881.23 7.77 C 881.27 20.51 881.26 33.25 881.23 45.98 C 840.49 46.03 799.75 45.98 759.01 46.01 C 759.00 54.17 758.96 62.34 759.04 70.51 C 795.95 70.52 832.86 70.43 869.77 70.56 C 869.72 83.87 869.79 97.18 869.73 110.50 C 832.82 110.52 795.92 110.47 759.01 110.52 C 758.99 118.68 758.99 126.84 759.01 134.99 C 800.34 135.02 841.66 134.98 882.99 135.01 C 882.99 147.84 883.05 160.68 882.96 173.51 C 826.65 173.49 770.35 173.49 714.04 173.51 C 713.96 118.26 714.00 63.02 714.02 7.77 Z" />
<path fill="#000000" opacity="1.00" d=" M 915.77 7.77 C 971.59 7.73 1027.41 7.73 1083.23 7.77 C 1083.27 20.51 1083.26 33.25 1083.23 45.98 C 1042.41 46.04 1001.59 45.96 960.77 46.02 C 960.78 54.18 960.64 62.35 960.86 70.51 C 997.73 70.50 1034.61 70.47 1071.48 70.52 C 1071.52 83.84 1071.52 97.16 1071.48 110.48 C 1034.61 110.52 997.74 110.51 960.87 110.49 C 960.62 118.65 960.78 126.82 960.77 134.98 C 1002.10 135.04 1043.43 134.96 1084.76 135.02 C 1084.73 147.85 1084.79 160.67 1084.73 173.50 C 1028.44 173.51 972.15 173.49 915.86 173.51 C 915.62 118.27 915.79 63.02 915.77 7.77 Z" />
<path fill="#000000" opacity="1.00" d=" M 1167.26 54.78 C 1186.16 54.73 1205.06 54.73 1223.96 54.77 C 1233.66 54.76 1243.93 58.10 1250.16 65.87 C 1255.16 71.91 1255.89 81.04 1251.73 87.73 C 1247.88 94.39 1240.73 98.12 1233.63 100.34 C 1241.90 109.86 1250.43 119.16 1258.67 128.72 C 1248.10 128.82 1237.53 128.68 1226.97 128.80 C 1225.15 128.66 1222.84 129.18 1221.65 127.43 C 1214.33 118.94 1207.22 110.26 1199.83 101.82 C 1199.65 110.79 1199.81 119.77 1199.74 128.74 C 1188.91 128.76 1178.08 128.76 1167.26 128.74 C 1167.24 104.09 1167.24 79.43 1167.26 54.78 M 1200.02 70.77 C 1199.98 75.67 1199.98 80.58 1200.01 85.48 C 1207.34 85.14 1215.01 86.56 1222.07 84.11 C 1227.05 82.38 1227.45 74.48 1222.55 72.41 C 1215.42 69.57 1207.49 71.14 1200.02 70.77 Z" />
<path fill="#000000" opacity="1.00" d=" M 81.38 212.35 C 83.38 210.30 86.41 210.79 89.00 210.69 C 103.46 210.87 117.92 210.62 132.38 210.82 C 101.64 239.26 70.46 267.23 39.74 295.70 C 70.70 323.86 101.72 351.97 132.80 380.00 L 83.44 380.00 C 57.64 356.99 32.22 333.56 6.48 310.47 C 3.35 307.82 1.22 304.20 0.00 300.31 L 0.00 291.99 C 1.38 286.73 4.19 281.87 8.42 278.41 C 32.79 256.45 57.06 234.37 81.38 212.35 Z" />
<path fill="#000000" opacity="1.00" d=" M 528.33 210.81 C 543.57 210.66 558.82 210.81 574.06 210.71 C 578.49 210.23 581.23 214.23 584.24 216.76 C 607.81 238.20 631.46 259.55 655.07 280.96 C 663.80 288.60 662.05 303.44 653.82 310.79 C 628.32 333.85 602.92 357.03 577.34 380.00 L 527.96 380.00 C 559.05 351.72 590.05 323.33 621.07 294.97 C 590.20 266.87 559.14 238.98 528.33 210.81 Z" />
<path fill="#000000" opacity="1.00" d=" M 171.26 217.78 C 180.91 217.72 190.57 217.73 200.23 217.77 C 200.29 228.09 200.22 238.42 200.26 248.74 C 208.33 248.78 216.40 248.71 224.47 248.77 C 224.50 258.10 224.56 267.44 224.44 276.77 C 216.66 276.78 208.89 276.66 201.11 276.84 C 211.31 282.11 220.86 289.50 226.08 299.98 C 220.25 306.23 214.48 312.54 208.64 318.79 C 205.96 314.71 203.40 310.54 200.32 306.74 C 200.15 328.82 200.32 350.90 200.23 372.98 C 190.57 373.01 180.91 373.02 171.24 372.98 C 171.20 356.20 171.36 339.43 171.16 322.65 C 164.31 332.66 156.13 342.13 145.48 348.22 C 141.10 339.39 136.79 330.53 132.48 321.67 C 147.84 309.99 161.19 294.92 168.31 276.80 C 158.80 276.69 149.29 276.80 139.78 276.74 C 139.72 267.42 139.73 258.10 139.77 248.77 C 150.25 248.70 160.73 248.78 171.21 248.74 C 171.30 238.42 171.21 228.10 171.26 217.78 Z" />
<path fill="#000000" opacity="1.00" d=" M 255.77 217.77 C 265.43 217.73 275.09 217.72 284.74 217.78 C 284.79 228.10 284.70 238.42 284.79 248.74 C 296.26 248.78 307.75 248.70 319.23 248.77 C 319.26 258.10 319.28 267.42 319.22 276.74 C 311.58 276.79 303.95 276.71 296.31 276.78 C 301.97 295.26 313.93 311.48 329.23 323.18 C 324.94 332.08 320.61 340.96 316.20 349.80 C 303.22 340.09 292.82 327.29 284.82 313.26 C 284.66 333.17 284.80 353.07 284.76 372.98 C 275.09 373.02 265.43 373.01 255.77 372.98 C 255.73 353.12 255.75 333.25 255.76 313.39 C 246.59 325.67 236.21 336.99 225.77 348.19 C 221.40 340.40 217.10 332.58 212.75 324.78 C 226.11 309.61 243.04 296.26 250.30 276.81 C 244.54 276.70 238.78 276.77 233.02 276.76 C 232.98 267.43 232.99 258.10 233.02 248.77 C 240.59 248.71 248.16 248.78 255.74 248.74 C 255.78 238.42 255.70 228.09 255.77 217.77 Z" />
<path fill="#000000" opacity="1.00" d=" M 1136.52 218.52 C 1145.92 218.47 1155.32 218.50 1164.72 218.50 C 1164.74 221.66 1164.75 224.82 1164.78 227.98 C 1181.68 228.00 1198.59 228.04 1215.50 227.96 C 1215.49 224.81 1215.49 221.67 1215.52 218.52 C 1224.42 218.48 1233.32 218.47 1242.23 218.53 C 1242.24 221.67 1242.24 224.82 1242.25 227.97 C 1253.99 228.04 1265.74 227.97 1277.48 228.01 C 1277.51 234.42 1277.52 240.82 1277.47 247.23 C 1265.73 247.29 1254.00 247.22 1242.26 247.26 C 1242.25 251.00 1242.24 254.74 1242.23 258.47 C 1233.32 258.52 1224.42 258.52 1215.52 258.48 C 1215.49 254.74 1215.48 251.01 1215.50 247.28 C 1198.59 247.22 1181.69 247.25 1164.78 247.26 C 1164.74 250.99 1164.73 254.71 1164.77 258.44 C 1155.35 258.56 1145.93 258.50 1136.52 258.48 C 1136.49 254.74 1136.48 251.01 1136.50 247.28 C 1124.75 247.19 1113.00 247.31 1101.26 247.22 C 1101.23 240.82 1101.24 234.42 1101.24 228.02 C 1112.98 227.96 1124.73 228.03 1136.47 227.99 C 1136.48 224.83 1136.50 221.67 1136.52 218.52 Z" />
<path fill="#000000" opacity="1.00" d=" M 354.02 219.24 C 405.18 219.27 456.34 219.21 507.50 219.27 C 507.51 249.83 507.48 280.40 507.51 310.96 C 486.51 311.06 465.51 310.96 444.51 311.01 C 444.50 314.00 444.50 316.99 444.51 319.99 C 466.50 320.02 488.49 319.98 510.48 320.01 C 510.51 326.75 510.52 333.49 510.48 340.23 C 488.49 340.30 466.50 340.20 444.51 340.28 C 444.49 343.84 444.49 347.40 444.49 350.96 C 468.91 351.07 493.34 350.94 517.76 351.02 C 517.75 358.34 517.75 365.66 517.76 372.98 C 458.84 373.03 399.92 372.99 341.01 372.99 C 340.99 365.66 340.99 358.33 341.01 351.01 C 365.84 350.96 390.67 351.06 415.51 350.96 C 415.51 347.40 415.50 343.84 415.49 340.28 C 394.00 340.20 372.51 340.29 351.02 340.23 C 350.98 333.49 350.99 326.75 351.01 320.01 C 372.50 319.98 393.99 320.02 415.49 319.99 C 415.50 316.99 415.50 314.00 415.49 311.01 C 394.99 310.98 374.50 311.02 354.01 310.99 C 354.00 280.41 353.97 249.83 354.02 219.24 M 384.26 239.79 C 384.24 245.33 384.25 250.88 384.23 256.43 C 394.64 256.56 405.06 256.49 415.47 256.47 C 415.52 250.91 415.52 245.34 415.47 239.78 C 405.07 239.74 394.66 239.72 384.26 239.79 M 444.53 239.78 C 444.48 245.34 444.48 250.91 444.53 256.47 C 455.42 256.51 466.32 256.52 477.22 256.47 C 477.26 250.91 477.27 245.34 477.22 239.78 C 466.32 239.73 455.43 239.74 444.53 239.78 M 384.26 273.79 C 384.24 279.33 384.26 284.88 384.23 290.43 C 394.64 290.57 405.06 290.49 415.47 290.47 C 415.52 284.91 415.52 279.34 415.47 273.78 C 405.07 273.74 394.66 273.72 384.26 273.79 M 444.53 273.78 C 444.48 279.34 444.48 284.91 444.53 290.47 C 455.43 290.51 466.32 290.52 477.22 290.47 C 477.26 284.90 477.27 279.34 477.22 273.78 C 466.32 273.73 455.43 273.74 444.53 273.78 Z" />
<path fill="#000000" opacity="1.00" d=" M 704.24 219.02 C 713.08 218.98 721.92 218.98 730.76 219.02 C 730.77 228.60 730.71 238.17 730.79 247.74 C 736.69 247.79 742.61 247.64 748.52 247.87 C 748.49 255.29 748.49 262.70 748.53 270.12 C 742.61 270.37 736.69 270.21 730.77 270.26 C 730.74 273.43 730.74 276.60 730.82 279.77 C 737.82 285.58 744.72 291.52 751.72 297.34 C 751.77 291.98 751.72 286.62 751.78 281.26 C 788.77 281.24 825.75 281.24 862.74 281.26 C 862.76 288.75 862.76 296.25 862.74 303.74 C 850.99 303.83 839.24 303.62 827.50 303.85 C 827.50 319.90 827.50 335.95 827.51 352.00 C 827.38 357.95 826.25 364.49 821.83 368.85 C 817.62 372.79 811.49 373.36 806.00 373.51 C 793.17 373.49 780.35 373.53 767.52 373.48 C 767.48 365.49 767.48 357.51 767.52 349.52 C 775.79 349.31 784.08 349.82 792.34 349.30 C 796.79 348.93 798.95 344.06 798.95 340.10 C 798.96 327.99 799.41 315.89 799.22 303.78 C 785.87 303.74 772.52 303.72 759.17 303.79 C 754.34 309.17 749.61 314.65 744.77 320.02 C 740.23 316.08 735.53 312.33 730.79 308.64 C 730.71 330.24 730.76 351.84 730.77 373.44 C 722.02 373.56 713.27 373.50 704.52 373.48 C 704.46 354.95 704.51 336.42 704.50 317.90 C 699.89 326.10 695.84 334.66 690.22 342.25 C 685.39 334.24 680.67 326.17 675.96 318.09 C 686.81 303.21 695.89 287.03 703.97 270.51 C 698.15 270.48 692.33 270.53 686.52 270.48 C 686.48 262.91 686.47 255.34 686.53 247.77 C 692.42 247.72 698.32 247.77 704.22 247.74 C 704.29 238.17 704.22 228.60 704.24 219.02 Z" />
<path fill="#000000" opacity="1.00" d=" M 790.49 219.04 C 803.40 218.96 816.32 219.00 829.23 219.02 C 829.27 224.92 829.23 230.83 829.26 236.74 C 840.42 236.79 851.58 236.69 862.74 236.78 C 862.75 249.02 862.78 261.26 862.73 273.50 C 853.91 273.51 845.09 273.51 836.27 273.50 C 836.25 268.75 836.24 264.01 836.22 259.26 C 817.49 259.23 798.75 259.26 780.02 259.25 C 779.99 263.99 779.99 268.74 779.99 273.48 C 771.17 273.52 762.34 273.52 753.52 273.48 C 753.48 261.24 753.47 249.01 753.53 236.77 C 765.82 236.73 778.13 236.74 790.43 236.77 C 790.55 230.86 790.49 224.95 790.49 219.04 Z" />
<path fill="#000000" opacity="1.00" d=" M 908.26 218.78 C 917.16 218.72 926.07 218.74 934.98 218.77 C 935.03 228.34 934.97 237.91 935.01 247.48 C 939.04 247.50 943.08 247.51 947.12 247.48 C 947.38 254.98 947.22 262.48 947.23 269.98 C 943.16 269.99 939.09 270.01 935.02 270.00 C 935.08 273.17 934.58 276.45 935.37 279.56 C 939.63 283.61 944.38 287.12 948.76 291.04 C 948.75 288.70 948.75 286.36 948.76 284.02 C 989.92 283.99 1031.07 283.99 1072.23 284.02 C 1072.27 288.93 1072.27 293.84 1072.22 298.75 C 1067.66 298.75 1063.11 298.74 1058.57 298.80 C 1062.98 304.19 1067.81 309.22 1072.27 314.58 C 1065.90 317.34 1059.53 320.09 1053.03 322.52 C 1058.23 335.82 1069.30 345.24 1081.04 352.69 C 1075.84 358.78 1070.35 364.60 1065.01 370.57 C 1051.63 359.92 1040.87 345.95 1033.16 330.73 C 1032.13 331.18 1031.11 331.63 1030.11 332.08 C 1031.29 339.02 1031.13 346.09 1030.90 353.10 C 1030.23 363.37 1021.72 373.46 1010.99 373.51 C 1000.83 373.51 990.67 373.52 980.52 373.48 C 980.48 368.28 980.50 363.09 980.49 357.89 C 970.79 362.28 960.64 365.55 950.53 368.85 C 948.72 364.54 946.93 360.23 945.18 355.90 C 965.32 349.58 985.42 342.30 1003.19 330.69 C 1002.73 329.62 1002.27 328.56 1001.83 327.50 C 986.14 335.82 969.34 341.83 952.24 346.52 C 949.90 342.19 947.48 337.90 945.16 333.57 C 961.86 328.68 978.55 323.46 994.33 316.04 C 993.82 315.08 993.32 314.11 992.84 313.16 C 978.98 318.14 964.87 322.40 950.55 325.82 C 948.84 317.44 941.05 313.32 935.03 308.29 C 934.96 330.02 935.03 351.75 934.99 373.48 C 926.16 373.51 917.34 373.52 908.52 373.48 C 908.44 354.94 908.56 336.40 908.46 317.86 C 903.91 325.95 899.83 334.34 894.40 341.90 C 889.51 333.96 884.93 325.83 880.11 317.85 C 890.82 302.77 900.07 286.63 908.17 270.01 C 902.36 269.98 896.56 270.02 890.77 269.98 C 890.77 262.48 890.65 254.98 890.85 247.49 C 896.64 247.49 902.43 247.52 908.22 247.47 C 908.29 237.91 908.21 228.34 908.26 218.78 M 958.20 298.79 C 959.87 300.32 961.56 301.83 963.26 303.35 C 961.91 304.91 960.57 306.47 959.23 308.04 C 969.29 305.49 979.42 302.99 989.01 298.95 C 978.75 298.53 968.47 298.82 958.20 298.79 M 1014.26 304.35 C 1017.37 307.93 1020.27 311.71 1022.73 315.78 C 1034.33 310.66 1045.71 305.00 1056.79 298.85 C 1047.19 298.62 1037.59 298.84 1027.99 298.71 C 1022.70 298.19 1018.73 302.28 1014.26 304.35 M 985.32 355.70 C 990.82 355.80 996.34 355.73 1001.85 355.75 C 1004.02 352.62 1005.20 348.97 1005.17 345.14 C 998.73 349.00 991.94 352.20 985.32 355.70 Z" />
<path fill="#000000" opacity="1.00" d=" M 975.27 218.78 C 983.50 218.72 991.73 218.74 999.97 218.77 C 999.98 221.43 1000.00 224.09 1000.03 226.75 C 1007.01 226.75 1013.99 226.75 1020.97 226.75 C 1020.98 224.09 1021.00 221.43 1021.03 218.77 C 1029.26 218.74 1037.49 218.72 1045.73 218.78 C 1045.74 221.43 1045.76 224.08 1045.79 226.74 C 1054.02 226.78 1062.24 226.71 1070.47 226.77 C 1070.52 232.18 1070.52 237.58 1070.48 242.99 C 1062.22 243.03 1053.96 242.95 1045.70 243.03 C 1045.74 244.52 1045.81 246.01 1045.88 247.50 C 1054.07 247.51 1062.28 247.46 1070.48 247.52 C 1070.52 257.68 1070.51 267.83 1070.48 277.99 C 1062.73 278.00 1054.98 278.02 1047.24 277.98 C 1047.25 273.16 1047.25 268.34 1047.23 263.53 C 1022.15 263.48 997.08 263.49 972.01 263.52 C 972.00 268.34 971.99 273.17 972.00 277.99 C 964.83 278.01 957.67 278.01 950.52 277.99 C 950.48 267.83 950.48 257.68 950.52 247.52 C 958.72 247.46 966.92 247.51 975.12 247.51 C 975.17 246.01 975.23 244.52 975.30 243.03 C 967.61 242.95 959.93 243.05 952.24 242.98 C 952.24 237.58 952.23 232.18 952.26 226.78 C 959.91 226.70 967.56 226.78 975.21 226.74 C 975.23 224.08 975.24 221.43 975.27 218.78 M 1000.00 243.01 C 999.99 244.49 999.98 245.98 999.99 247.47 C 1006.99 247.52 1014.00 247.52 1021.01 247.47 C 1020.99 245.98 1020.99 244.49 1021.00 243.01 C 1014.00 242.99 1007.00 242.99 1000.00 243.01 Z" />
<path fill="#000000" opacity="1.00" d=" M 1094.17 288.58 C 1122.79 280.69 1152.06 271.64 1176.23 253.83 C 1183.77 253.01 1191.43 253.75 1199.02 253.46 C 1204.07 252.86 1207.20 257.57 1211.23 259.75 C 1233.63 274.14 1259.64 281.29 1285.06 288.30 C 1282.51 296.10 1279.76 303.83 1277.05 311.58 C 1271.83 310.30 1266.67 308.77 1261.52 307.25 C 1261.48 312.20 1261.49 317.16 1261.53 322.11 C 1243.36 322.43 1225.19 322.16 1207.02 322.25 C 1206.20 335.18 1208.82 348.56 1205.15 361.15 C 1202.96 369.06 1194.61 372.81 1187.01 373.08 C 1174.86 373.48 1162.68 373.16 1150.53 373.23 C 1150.47 365.74 1150.47 358.26 1150.52 350.77 C 1156.68 350.63 1162.85 350.94 1169.02 350.67 C 1173.09 350.67 1176.90 347.24 1176.90 343.07 C 1177.18 336.14 1176.93 329.19 1176.98 322.25 C 1167.29 322.26 1157.61 322.24 1147.93 322.26 C 1154.15 327.58 1160.49 332.77 1166.70 338.12 C 1150.14 349.65 1133.03 360.42 1115.34 370.13 C 1108.82 364.78 1102.27 359.45 1095.82 354.02 C 1113.64 346.01 1130.01 335.11 1144.73 322.30 C 1135.49 322.18 1126.25 322.30 1117.02 322.23 C 1116.98 316.98 1117.01 311.73 1116.98 306.48 C 1112.31 307.99 1107.71 309.66 1103.05 311.16 C 1100.01 303.66 1097.00 296.15 1094.17 288.58 M 1190.24 274.06 C 1173.05 286.30 1152.98 293.33 1133.54 301.05 C 1148.01 301.48 1162.50 301.16 1176.99 301.23 C 1176.98 296.98 1177.00 292.73 1177.04 288.49 C 1187.01 288.50 1196.98 288.50 1206.96 288.49 C 1206.99 292.73 1207.01 296.98 1207.01 301.23 C 1220.34 301.15 1233.67 301.49 1247.00 301.04 C 1227.31 293.86 1206.99 287.10 1190.24 274.06 Z" />
<path fill="#000000" opacity="1.00" d=" M 979.25 269.78 C 999.83 269.72 1020.41 269.75 1040.99 269.77 C 1041.00 273.01 1041.00 276.26 1040.96 279.51 C 1020.40 279.48 999.83 279.51 979.27 279.50 C 979.24 276.26 979.23 273.02 979.25 269.78 Z" />
<path fill="#000000" opacity="1.00" d=" M 1213.81 341.41 C 1218.96 335.30 1224.40 329.43 1229.85 323.58 C 1248.40 333.15 1266.60 343.38 1284.55 354.01 C 1278.69 359.99 1272.74 365.89 1266.80 371.79 C 1249.27 361.43 1231.83 350.90 1213.81 341.41 Z" />
</g>
</svg>
