<svg xmlns="http://www.w3.org/2000/svg" viewBox="66.24 65.24 891.52 891.52" width="512pt" height="512pt">
  <path d="M907.9,349.3c-20.5,-124.3 -98.4,-203.7 -243.5,-201.7L625.8,153.9a248.3,248.3 0,0 0,-94.7 54c-33.6,33 -50.3,87.3 -87.3,116.3 -17.9,13.9 -79.6,37.3 -60.6,70.3a40.1,40.1 0,0 0,21.6 20.5l-11.9,21.6c0,26.7 38.7,38.1 54,54.9 -15.1,8.5 -47.8,0 -56.9,13.9s4,43 8.5,51.8a126,126 0,0 0,52.9 56.9,334.5 334.5,0 0,1 64.9,31.3c1.7,49.8 -46.6,63.1 -60.6,100.4 -11.9,-6.8 -17.9,-19.6 -27,-28.4l-113.8,-120.6v-4.3a483.6,483.6 0,0 0,76.8 -93.9c-2,-17.4 -21.6,-22.8 -33.6,-30.2 -22.2,-13.9 -89.3,-70.8 -113.8,-68 -32.1,52.1 -62.3,107.2 -91.6,162.7 -12.5,22.5 -25.3,44.7 -37.8,66.8 -5.1,20.2 22.8,35.3 32.4,43.2 33.6,28.4 77.7,52.1 101.3,-2.3l4.3,-3.1 134.8,181.2a117.2,117.2 0,0 0,-4.3 20.5l6.5,6.5h9.7c25.6,-23 39.5,-65.1 59.4,-93.6s48.1,-62 72.2,-92.7h142.2l4.3,37.5 19.9,97.6c3.4,18.5 -4.8,39.8 6.5,49.8 5.7,0 10.8,1.7 13.9,-2.3 10.5,-8.8 7.4,-46.9 3.4,-63.7 -10.8,-43.8 -36.7,-131.7 -14.2,-177.8 20.2,-41 56.9,-45.8 92.7,-71.1a293,293 0,0 0,79.9 -81.1,199.1 199.1,0 0,0 27.9,-129.4zM223.3,483.6c8.8,2.3 10.2,7.4 16.2,11.7v10.8L227.6,512l-11.7,-10.8a25,25 0,0 1,7.4 -17.6zM205.9,512a21.9,21.9 0,0 1,10.8 13.9,9.1 9.1,0 0,1 -6.3,14.5c-5.7,2.3 -9.7,0 -14.2,-2.3l-2,-3.1zM185.5,548.7c10.5,1.4 15.6,8 15.4,20.5l-3.4,5.4h-16.2l-4.3,-3.4c-2.3,-1.7 0,0 -2,-3.1zM165,585.4l20.5,8.5 -3.1,8.8L170.7,602.7a18.8,18.8 0,0 1,-9.7 -7.7zM210.5,678.1a99.6,99.6 0,0 1,-66.8 -44.4c-2.6,-4.3 3.7,-10.5 6.3,-17.1 8,0 22.5,10.2 36.7,4.3a100.7,100.7 0,0 0,32.4 -65.7c14.8,-5.4 8.5,-16.2 17.4,-27l15.9,-9.7c16.2,-19.6 0,-45.5 -15.9,-54l17.1,-33.3 105.8,66.8zM404.5,822.6l-3.1,2c-44.1,-59.2 -87.9,-118.6 -131.7,-177.8 9.1,-10.2 17.9,-20.8 27,-31.3l140.2,151c-3.4,22.2 -26.2,34.7 -32.4,56zM697.7,494.6a227.6,227.6 0,0 0,22.8 79.9c-20.8,26.2 -43.8,45.2 -46.4,90.5L540.4,665c0,-88.5 -124.3,-50.3 -127.1,-142.2 23,0 76.5,-4.8 61.4,-36.7 -10,-21 -38.4,-32.4 -54.9,-47.5 5.7,-9.7 14.8,-13.1 17.4,-27 -8.5,-11.4 -23.6,-15.6 -31.3,-26.7h-2.3c5.1,-15.6 30.2,-21 42.1,-30.2a176.6,176.6 0,0 0,56.9 -64.9h2.3a938.7,938.7 0,0 0,132.6 107.8,175.8 175.8,0 0,0 70,36.7c13.9,-18.2 42.7,-24.5 52.9,2.3 17.4,35 -39.3,52.6 -62.6,58zM509.2,344.7c-9.7,-3.7 -12.8,-13.1 -22.8,-17.1l-7.4,6.5c1.7,33 77.9,41.8 65.7,11.7 -11.7,-2 -25,3.4 -35.6,-1.1z" fill="#CB9B73"/>
</svg>
