<?xml version="1.0" encoding="UTF-8" ?>
<!DOCTYPE svg PUBLIC "-//W3C//DTD SVG 1.1//EN" "http://www.w3.org/Graphics/SVG/1.1/DTD/svg11.dtd">
<svg width="512pt" height="512pt" viewBox="8.052 26.57 316.951 322.293" version="1.1" xmlns="http://www.w3.org/2000/svg">
<g id="#0090e1ff">
<path fill="#0090e1" opacity="1.00" d=" M 28.40 227.43 C 57.64 198.16 86.95 168.96 116.13 139.64 C 147.94 171.31 179.71 203.02 211.35 234.87 C 182.21 264.24 152.83 293.36 123.66 322.69 C 119.98 326.88 112.85 327.15 109.03 323.01 C 81.97 296.04 54.98 269.00 27.97 241.98 C 23.82 238.21 24.23 231.04 28.40 227.43 M 146.45 211.71 C 128.63 213.09 119.38 237.28 131.82 250.14 C 142.16 263.27 165.10 259.47 170.92 243.91 C 178.47 228.32 163.43 208.74 146.45 211.71 M 76.36 212.45 C 64.93 215.59 57.05 228.32 59.97 239.93 C 62.21 250.37 72.24 258.61 83.01 258.26 C 94.72 258.47 105.18 248.58 106.16 236.99 C 107.97 221.40 91.44 207.46 76.36 212.45 Z" />
</g>
<g id="#f9f8f4ff">
<path fill="#f9f8f4" opacity="1.00" d=" M 212.38 35.61 C 218.78 34.32 225.75 35.78 230.30 40.70 C 257.03 67.30 283.68 93.98 310.32 120.68 C 317.73 127.53 317.74 140.49 310.46 147.43 C 250.13 207.79 189.73 268.07 129.43 328.46 C 124.47 333.52 116.70 335.35 110.01 333.04 C 104.91 331.28 101.49 326.89 97.75 323.26 C 72.63 298.04 47.41 272.91 22.25 247.72 C 15.29 241.05 15.37 228.93 22.11 222.13 C 80.76 163.45 139.47 104.81 198.10 46.11 C 202.32 42.02 206.31 36.85 212.38 35.61 M 208.88 46.88 C 180.03 76.20 150.38 104.78 121.87 134.42 C 152.25 164.60 182.51 194.92 212.74 225.25 C 214.34 226.62 216.42 230.26 218.61 227.70 C 245.98 200.38 273.30 172.99 300.67 145.66 C 303.87 142.44 308.36 139.16 307.80 134.02 C 308.16 129.72 304.93 126.61 302.06 123.93 C 276.20 98.12 250.37 72.28 224.55 46.43 C 220.57 41.97 212.57 42.13 208.88 46.88 M 28.40 227.43 C 24.23 231.04 23.82 238.21 27.97 241.98 C 54.98 269.00 81.97 296.04 109.03 323.01 C 112.85 327.15 119.98 326.88 123.66 322.69 C 152.83 293.36 182.21 264.24 211.35 234.87 C 179.71 203.02 147.94 171.31 116.13 139.64 C 86.95 168.96 57.64 198.16 28.40 227.43 Z" />
<path fill="#f9f8f4" opacity="1.00" d=" M 211.36 111.49 C 223.02 108.09 236.14 115.99 239.32 127.57 C 243.20 139.14 235.81 152.73 224.24 156.25 C 212.51 160.81 198.26 153.16 194.71 141.28 C 190.17 129.02 198.64 114.15 211.36 111.49 Z" />
<path fill="#f9f8f4" opacity="1.00" d=" M 146.45 211.71 C 163.43 208.74 178.47 228.32 170.92 243.91 C 165.10 259.47 142.16 263.27 131.82 250.14 C 119.38 237.28 128.63 213.09 146.45 211.71 Z" />
<path fill="#f9f8f4" opacity="1.00" d=" M 76.36 212.45 C 91.44 207.46 107.97 221.40 106.16 236.99 C 105.18 248.58 94.72 258.47 83.01 258.26 C 72.24 258.61 62.21 250.37 59.97 239.93 C 57.05 228.32 64.93 215.59 76.36 212.45 Z" />
</g>
<g id="#fe0000ff">
<path fill="#fe0000" opacity="1.00" d=" M 208.88 46.88 C 212.57 42.13 220.57 41.97 224.55 46.43 C 250.37 72.28 276.20 98.12 302.06 123.93 C 304.93 126.61 308.16 129.72 307.80 134.02 C 308.36 139.16 303.87 142.44 300.67 145.66 C 273.30 172.99 245.98 200.38 218.61 227.70 C 216.42 230.26 214.34 226.62 212.74 225.25 C 182.51 194.92 152.25 164.60 121.87 134.42 C 150.38 104.78 180.03 76.20 208.88 46.88 M 211.36 111.49 C 198.64 114.15 190.17 129.02 194.71 141.28 C 198.26 153.16 212.51 160.81 224.24 156.25 C 235.81 152.73 243.20 139.14 239.32 127.57 C 236.14 115.99 223.02 108.09 211.36 111.49 Z" />
</g>
</svg>
